<?xml version="1.0" encoding="UTF-8"?>
<svg version="1.1" xmlns="http://www.w3.org/2000/svg" width="438" height="438">
<path d="M0 0 C0.61504395 0.33435059 1.23008789 0.66870117 1.86376953 1.01318359 C10.20517012 5.57053444 18.1840634 10.58751122 26 16 C26.60618164 16.41701172 27.21236328 16.83402344 27.83691406 17.26367188 C39.32750731 25.18465111 50.43923055 33.57014385 61.5 42.07763672 C65.84365896 45.41767291 70.19892711 48.74252856 74.5534668 52.06835938 C78.38226375 54.99391383 82.20429515 57.92787016 86.01953125 60.87109375 C131.20313339 96.41812085 131.20313339 96.41812085 185.8125 109.5 C187.32118652 109.52779541 187.32118652 109.52779541 188.86035156 109.55615234 C206.92796494 109.41085933 224.10560791 103.67448644 241.0625 98 C276.67774066 86.10447861 276.67774066 86.10447861 292.9375 86.5625 C294.252948 86.58449463 294.252948 86.58449463 295.5949707 86.60693359 C307.83522199 86.96244547 319.37553471 89.78819355 328.125 98.9375 C331.40094169 103.0672282 333.70922549 107.86507756 336.02197266 112.58178711 C339.33473163 119.18433524 343.78865976 123.07741819 350 127.0625 C352.01110572 128.35791886 354.01159943 129.6699927 356 131 C356.928125 131.61746094 357.85625 132.23492187 358.8125 132.87109375 C361.52412058 135.51008164 361.74715889 137.2916637 362 141 C361.0884314 141.02187378 361.0884314 141.02187378 360.15844727 141.04418945 C320.67815691 142.09655097 295.48464374 153.36896051 267.8515625 182.04345703 C263.95101479 186.16515921 260.42201121 190.47704323 257 195 C256.46197754 195.70463379 255.92395508 196.40926758 255.36962891 197.13525391 C248.2255442 206.50023797 241.25092849 215.96944219 234.49780273 225.61987305 C226.0447427 237.6788533 217.39892448 249.65712126 208 261 C207.25492187 261.92941406 206.50984375 262.85882813 205.7421875 263.81640625 C193.58468535 278.78757 179.76003219 292.83347156 164 304 C163.34805664 304.46921875 162.69611328 304.9384375 162.02441406 305.421875 C103.63123635 347.11169657 33.26430483 354.40369241 -36.1328125 343.2109375 C-66.6159593 337.99916001 -66.6159593 337.99916001 -76 334 C-72.94848576 331.96565717 -71.30330407 331.51844715 -67.765625 330.88671875 C-66.72422363 330.69368164 -65.68282227 330.50064453 -64.60986328 330.30175781 C-63.5011084 330.09905273 -62.39235352 329.89634766 -61.25 329.6875 C-39.32194348 325.45058512 -18.75471759 317.82580249 -1 304 C-0.18273437 303.36578125 0.63453125 302.7315625 1.4765625 302.078125 C18.1600874 288.20385343 26.77223242 268.13244139 28.875 246.9375 C30.38141526 214.56794278 12.43239198 186.29048998 -7 162 C-8.54629919 160.00357947 -10.08782361 158.00345323 -11.625 156 C-12.45043971 154.9244169 -13.27596495 153.84889944 -14.1015625 152.7734375 C-14.55176758 152.1865918 -15.00197266 151.59974609 -15.46582031 150.99511719 C-16.58800934 149.53577143 -17.71271171 148.0783574 -18.83886719 146.62207031 C-27.30548248 135.67136252 -35.62829458 124.72414851 -43 113 C-43.36609375 112.42185547 -43.7321875 111.84371094 -44.109375 111.24804688 C-62.5697848 81.89989539 -82.04812349 45.30409485 -75.3359375 9.453125 C-72.56094393 0.71792783 -66.070162 -6.65323216 -58 -11 C-38.66371186 -19.02370901 -16.92537516 -9.30570562 0 0 Z " fill="#2D6AA9" transform="translate(76,35)"/>
<path d="M0 0 C0.61504395 0.33435059 1.23008789 0.66870117 1.86376953 1.01318359 C10.20517012 5.57053444 18.1840634 10.58751122 26 16 C26.60618164 16.41701172 27.21236328 16.83402344 27.83691406 17.26367188 C39.30340877 25.16803892 50.39242623 33.53485976 61.4296875 42.02490234 C63.92837663 43.94496267 66.43184821 45.85856892 68.9375 47.76953125 C69.70900391 48.35806885 70.48050781 48.94660645 71.27539062 49.55297852 C72.71156484 50.64854995 74.14776115 51.74409242 75.58398438 52.83959961 C76.84045746 53.80007057 78.09515179 54.76287509 79.34765625 55.72851562 C80.7974344 56.84412505 82.25730583 57.94659232 83.71875 59.046875 C86 61 86 61 87.98046875 63.4765625 C90.18764986 66.23447159 92.53527386 68.19878602 95.3125 70.375 C99.18919431 73.48046865 102.78380797 76.64155789 106.22021484 80.22192383 C107.97209469 81.97212148 109.78787788 83.57735301 111.671875 85.18359375 C116.15939741 89.08462298 120.37073787 93.22297717 124.5625 97.4375 C125.27857422 98.14970703 125.99464844 98.86191406 126.73242188 99.59570312 C131.36124536 104.23295031 135.74156349 109.02208663 140 114 C140.88912286 115.02100758 141.77843059 116.04185422 142.66796875 117.0625 C149.32630937 124.82540255 155.59825693 132.8197841 161.61181641 141.09277344 C162.51407512 142.33238742 163.42229825 143.56768973 164.33740234 144.79785156 C165.53570678 146.41373994 166.70628077 148.05008614 167.875 149.6875 C168.53242188 150.59886719 169.18984375 151.51023438 169.8671875 152.44921875 C171 155 171 155 170.47265625 157.5234375 C168.77590299 160.37686341 166.86654162 162.54498318 164.5625 164.9375 C161.15096001 168.58465714 157.92816905 172.26020417 154.87866211 176.21459961 C153.95500424 177.41075863 153.01941482 178.59779306 152.07250977 179.77563477 C149.82935574 182.56865348 147.85940917 185.23822336 146.03125 188.3359375 C143.74425488 191.75763405 141.78224989 194.33400898 138 196 C129.12750491 197.6962123 119.93390172 196.73315539 111 196 C109.86739746 195.91347168 108.73479492 195.82694336 107.56787109 195.73779297 C54.33863079 191.38444325 9.74048579 171.01074241 -27.26806641 132.77392578 C-28.72718129 131.27943342 -30.22118122 129.81911601 -31.72265625 128.3671875 C-56.8989784 102.19763137 -77.04546409 56.74001014 -76.52172852 20.55834961 C-76.08205207 9.53652842 -73.2016273 1.58133616 -65 -6 C-46.09346525 -22.1116557 -18.80155336 -10.33724329 0 0 Z " fill="#6DB0DC" transform="translate(76,35)"/>
<path d="M0 0 C5.21910078 4.42648033 8.05753631 10.53599645 11.02197266 16.58178711 C14.33473163 23.18433524 18.78865976 27.07741819 25 31.0625 C27.01110572 32.35791886 29.01159943 33.6699927 31 35 C32.3921875 35.92619141 32.3921875 35.92619141 33.8125 36.87109375 C36.52412058 39.51008164 36.74715889 41.2916637 37 45 C36.3922876 45.01458252 35.7845752 45.02916504 35.15844727 45.04418945 C-4.32184309 46.09655097 -29.51535626 57.36896051 -57.1484375 86.04345703 C-61.04898521 90.16515921 -64.57798879 94.47704323 -68 99 C-68.53802246 99.70463379 -69.07604492 100.40926758 -69.63037109 101.13525391 C-76.7744558 110.50023797 -83.74907151 119.96944219 -90.50219727 129.61987305 C-98.95385375 141.67685102 -107.5890541 153.66959385 -117 165 C-118.23943359 166.5159375 -118.23943359 166.5159375 -119.50390625 168.0625 C-125.91376915 175.82891709 -132.76890667 182.99606143 -140 190 C-140 186.44623692 -139.17115082 185.42927947 -137.25 182.5 C-124.34478223 161.46814746 -126.14779837 135.1963125 -131.46484375 112.0390625 C-135.44750911 95.89892156 -141.77739605 81.66940135 -149.87426758 67.17797852 C-151.08396877 64.83754383 -152.05808623 62.45900705 -153 60 C-142.03328931 47.32735654 -130.28671179 35.24143624 -117 25 C-116.04480469 24.21625 -115.08960938 23.4325 -114.10546875 22.625 C-107.74986748 17.50854111 -101.17101522 13.11968984 -94.125 9 C-93.32835937 8.53094238 -92.53171875 8.06188477 -91.7109375 7.57861328 C-87.19981576 5.00420845 -83.06056636 3.18754624 -78 2 C-78 1.34 -78 0.68 -78 0 C-53.33326478 -7.76747766 -22.91423588 -17.26810222 0 0 Z " fill="#334C89" transform="translate(401,131)"/>
<path d="M0 0 C3.06438422 3.03982001 6.08354536 6.11773947 9.08203125 9.22265625 C53.44806572 54.83757526 109.15508049 68.29383759 171 70 C167.42149504 74.21059244 163.79725819 78.36376862 160.0625 82.4375 C157.14299493 85.6315257 154.2557307 88.84143354 151.4375 92.125 C148.1587208 95.90761052 144.62372828 99.39522375 141.05859375 102.90625 C139.40015004 104.59301628 137.9005479 106.27279121 136.4375 108.125 C133.90526558 111.11173803 131.20099842 113.49460996 128.2265625 116.0234375 C125.76553431 118.20813972 123.4849599 120.51919191 121.1875 122.875 C116.97750249 127.12992127 112.56767978 130.93808288 107.890625 134.66796875 C105.38363474 136.69050008 102.94295663 138.77097195 100.51342773 140.88525391 C92.09674742 148.17405994 83.1218853 154.62798944 74 161 C73.36336426 161.44730469 72.72672852 161.89460937 72.07080078 162.35546875 C39.74972744 184.9393953 3.95784564 201.47164167 -35 208 C-34.67 208.66 -34.34 209.32 -34 210 C-40.75 209.25 -40.75 209.25 -43 207 C-41.84552368 206.7666394 -41.84552368 206.7666394 -40.66772461 206.52856445 C-14.41294558 201.17945994 10.50456661 194.73874085 32 178 C32.81726563 177.36578125 33.63453125 176.7315625 34.4765625 176.078125 C51.1600874 162.20385343 59.77223242 142.13244139 61.875 120.9375 C63.38141526 88.56794278 45.43239198 60.29048998 26 36 C24.45370081 34.00357947 22.91217639 32.00345323 21.375 30 C20.56258419 28.94134163 19.75007923 27.88275168 18.9375 26.82421875 C18.48890625 26.23946777 18.0403125 25.6547168 17.578125 25.05224609 C16.38758423 23.50402739 15.1944226 21.95782357 14 20.41259766 C11.78720941 17.5493059 9.58081161 14.68117036 7.375 11.8125 C6.65103027 10.87857422 5.92706055 9.94464844 5.18115234 8.98242188 C4.51035645 8.10779297 3.83956055 7.23316406 3.1484375 6.33203125 C2.23843994 5.15217651 2.23843994 5.15217651 1.31005859 3.94848633 C0 2 0 2 0 0 Z " fill="#348FC7" transform="translate(43,161)"/>
<path d="M0 0 C0.99 0.495 0.99 0.495 2 1 C1.32195312 1.47308594 0.64390625 1.94617188 -0.0546875 2.43359375 C-15.516014 13.4192731 -29.47835874 26.92088828 -41 42 C-41.54382324 42.71043457 -42.08764648 43.42086914 -42.64794922 44.15283203 C-49.78577722 53.51199969 -56.75391111 62.97635814 -63.50219727 72.61987305 C-71.95385375 84.67685102 -80.5890541 96.66959385 -90 108 C-90.82628906 109.010625 -91.65257812 110.02125 -92.50390625 111.0625 C-98.91376915 118.82891709 -105.76890667 125.99606143 -113 133 C-113 129.44623692 -112.17115082 128.42927947 -110.25 125.5 C-96.48979395 103.07475854 -99.79160725 75.96606944 -105.31396484 51.51342773 C-105.94837002 48.95927902 -105.94837002 48.95927902 -107.08056641 46.48852539 C-108.06644061 43.82017283 -108.16114922 41.82011137 -108 39 C-107.35264893 38.87995605 -106.70529785 38.75991211 -106.03833008 38.63623047 C-91.1068666 35.83715708 -76.47624565 32.62808312 -62 28 C-60.75645752 27.60917236 -60.75645752 27.60917236 -59.48779297 27.21044922 C-43.6976933 22.15285004 -28.95496508 14.94588623 -14.12890625 7.609375 C-13.51304153 7.30540802 -12.89717682 7.00144104 -12.26264954 6.68826294 C-9.15755565 5.13837944 -6.15049515 3.50036349 -3.17944336 1.71191406 C-2.13022705 1.14698242 -1.08101074 0.58205078 0 0 Z " fill="#1F3572" transform="translate(374,188)"/>
<path d="M0 0 C2.8544002 1.33999001 5.29906763 2.86039 7.80859375 4.765625 C8.54489014 5.31903564 9.28118652 5.87244629 10.03979492 6.44262695 C10.8310376 7.03906006 11.62228027 7.63549316 12.4375 8.25 C40.83905339 29.51184844 40.83905339 29.51184844 73 44 C73.99128906 44.31839844 74.98257813 44.63679688 76.00390625 44.96484375 C100.83127423 51.57532087 126.26054418 45.65040007 149.86547852 37.5546875 C150.88053467 37.21050781 151.89559082 36.86632812 152.94140625 36.51171875 C153.84576416 36.19678467 154.75012207 35.88185059 155.68188477 35.55737305 C158 35 158 35 161 36 C159.97261719 36.49628906 158.94523438 36.99257812 157.88671875 37.50390625 C134.67412056 48.8319914 115.4904932 64.43653648 97.1875 82.5 C96.0126001 83.64843384 96.0126001 83.64843384 94.81396484 84.82006836 C94.08516113 85.5497583 93.35635742 86.27944824 92.60546875 87.03125 C91.95731201 87.67642578 91.30915527 88.32160156 90.64135742 88.98632812 C88.77766518 91.27276775 87.78339756 93.15560794 87 96 C88.18857742 98.66593963 89.38729997 100.87267448 90.9375 103.3125 C94.36897748 109.02873338 97.42006866 114.75085912 100.0625 120.875 C100.5100061 121.90040894 100.5100061 121.90040894 100.96655273 122.9465332 C103 127.71752325 103 127.71752325 103 130 C96.20664989 131.48493505 89.48801227 132.51455213 82.5625 133.125 C81.62325684 133.20991699 80.68401367 133.29483398 79.71630859 133.38232422 C70.46988445 134.1540241 61.27060035 134.19269146 52 134 C55.69068899 128.86938311 59.63489069 124.10108599 63.8671875 119.41015625 C67.71925256 115.05718163 71.34102552 110.51519915 75 106 C76.68528914 103.93568223 78.37398449 101.87418273 80.0625 99.8125 C80.81660156 98.89082031 81.57070312 97.96914062 82.34765625 97.01953125 C82.89292969 96.35308594 83.43820313 95.68664062 84 95 C82.38467015 90.1351177 79.63903921 86.31588898 76.6875 82.1875 C76.15914551 81.44483887 75.63079102 80.70217773 75.08642578 79.93701172 C67.18838146 68.9596358 58.62797632 58.5226318 49.4140625 48.625 C47.46895542 46.50993211 45.58345566 44.36646725 43.70703125 42.19140625 C39.9927296 37.93264672 36.06871564 33.92053599 32.0625 29.9375 C31.39798828 29.26912109 30.73347656 28.60074219 30.04882812 27.91210938 C25.53044672 23.40249302 20.8318022 19.16905869 16 15 C14.28790616 13.46251063 12.57896033 11.92149865 10.875 10.375 C8.08731364 7.85403671 5.28696041 5.37626958 2.375 3 C1.59125 2.34 0.8075 1.68 0 1 C0 0.67 0 0.34 0 0 Z " fill="#3274B0" transform="translate(162,97)"/>
<path d="M0 0 C3.0625 2.125 3.0625 2.125 5 5 C5.59860081 8.59160485 5.25303004 10.44333391 3.75 13.75 C1.84613263 16.19782948 0.97692549 17.17307625 -2 18 C-5.75248912 17.86598253 -8.22744076 17.47542107 -11.4375 15.5 C-13.78950397 11.73679365 -13.75220386 8.31527478 -13 4 C-10.16721477 -1.04974758 -5.24218983 -1.07269009 0 0 Z " fill="#F9FAFB" transform="translate(380,141)"/>
<path d="M0 0 C0.66 0.33 1.32 0.66 2 1 C-3.445 4.96 -3.445 4.96 -9 9 C-9.33 8.01 -9.66 7.02 -10 6 C-8.3811004 4.96951963 -6.75467511 3.95085322 -5.125 2.9375 C-4.22007812 2.36902344 -3.31515625 1.80054688 -2.3828125 1.21484375 C-1.20332031 0.61349609 -1.20332031 0.61349609 0 0 Z " fill="#203C7F" transform="translate(374,188)"/>
<path d="M0 0 C-6.435 2.97 -6.435 2.97 -13 6 C-12.67 4.68 -12.34 3.36 -12 2 C-10.0390625 0.91796875 -10.0390625 0.91796875 -7.625 0.1875 C-6.83351563 -0.06644531 -6.04203125 -0.32039062 -5.2265625 -0.58203125 C-3 -1 -3 -1 0 0 Z " fill="#3266A9" transform="translate(323,133)"/>
<path d="M0 0 C0.33 0.99 0.66 1.98 1 3 C-5.75 2.25 -5.75 2.25 -8 0 C-4.71023192 -1.09658936 -3.28696233 -0.79953138 0 0 Z " fill="#2D8CBF" transform="translate(8,368)"/>
</svg>
