<?xml version="1.0" encoding="UTF-8"?>
<svg version="1.1" xmlns="http://www.w3.org/2000/svg" width="1969" height="2048">
<path d="M0 0 C1.45986328 0.83724609 1.45986328 0.83724609 2.94921875 1.69140625 C3.60809082 2.04082275 4.26696289 2.39023926 4.94580078 2.75024414 C7.29358072 4.01095494 9.58987963 5.34021524 11.88671875 6.69140625 C12.72428711 7.18125 13.56185547 7.67109375 14.42480469 8.17578125 C50.40148913 29.41420432 87.38499108 57.95202208 112.96484375 91.171875 C114.66108671 93.32556932 116.41416671 95.36251711 118.234375 97.41015625 C137.88647315 119.74350725 153.16541612 145.93137243 165.94921875 172.69140625 C166.31015625 173.44373535 166.67109375 174.19606445 167.04296875 174.97119141 C173.34588346 188.21989623 178.35669929 201.76411239 182.94921875 215.69140625 C184.13845947 215.88661865 185.3277002 216.08183105 186.55297852 216.28295898 C226.34637225 222.85142586 265.24499168 231.34491214 303.94921875 242.69140625 C304.95640961 242.98470825 304.95640961 242.98470825 305.98394775 243.28393555 C326.7337098 249.32978661 346.95899225 256.58073217 367.15234375 264.2734375 C367.92470367 264.56492676 368.6970636 264.85641602 369.49282837 265.15673828 C374.00076861 266.87632279 378.33109191 268.81470765 382.69140625 270.88671875 C387.03198729 272.73268282 387.03198729 272.73268282 391.62890625 271.4140625 C392.72498024 270.56592405 393.78921757 269.67558384 394.82421875 268.75390625 C396.09744362 267.7776273 397.37784426 266.81065831 398.6640625 265.8515625 C399.34710449 265.33223145 400.03014648 264.81290039 400.73388672 264.27783203 C448.1675266 230.31003481 514.67283087 219.24462699 571.77709961 219.6953125 C574.52458745 219.69192915 577.2315518 219.58520917 579.97265625 219.41796875 C584.40122159 219.24310526 588.72925981 219.18663172 592.94921875 220.69140625 C596.539293 224.10688723 598.23043352 227.93953747 600.02441406 232.45751953 C601.0027229 234.82064674 602.11695764 237.06881222 603.28515625 239.34375 C618.56571388 269.35552536 628.39561044 302.35824894 632.94921875 335.69140625 C633.12275879 336.92238037 633.12275879 336.92238037 633.29980469 338.17822266 C637.26489385 367.56341607 636.29911652 398.99796118 629.40234375 427.8359375 C628.89035176 431.06236979 628.9090789 432.58873842 629.94921875 435.69140625 C631.80781202 438.08707474 633.96101623 440.14419152 636.14453125 442.2421875 C636.77019989 442.85982468 637.39586853 443.47746185 638.04049683 444.11381531 C640.04249446 446.08685824 642.05759954 448.04582006 644.07421875 450.00390625 C646.70596955 452.57912551 649.332465 455.15964793 651.95703125 457.7421875 C652.58632034 458.36033829 653.21560944 458.97848907 653.8639679 459.6153717 C658.10887297 463.80487903 662.13079235 468.10731269 665.94921875 472.69140625 C666.95820401 473.84874296 667.96993125 475.00369484 668.984375 476.15625 C681.99654146 491.05562841 694.37289698 506.3134793 706.12304688 522.22998047 C707.84676704 524.55331559 709.58950663 526.86074548 711.33984375 529.1640625 C733.70214354 558.76208675 753.18321421 590.92199405 770.39404297 623.74121094 C771.82048808 626.44720195 773.27134692 629.13788261 774.734375 631.82421875 C812.08898856 700.87966376 835.94029223 778.39209501 855.26171875 955.69140625 C855.27143707 956.59715393 855.2811554 957.50290161 855.29116821 958.43609619 C855.31482909 961.02146655 855.31707564 963.60594898 855.3125 966.19140625 C855.321604 966.96193329 855.33070801 967.73246033 855.34008789 968.52633667 C855.29356456 974.03330691 854.22742567 978.25088433 850.4140625 982.3359375 C844.17537236 987.10670055 839.75145961 987.40627125 831.94921875 986.69140625 C826.64488776 984.32340135 824.42665597 980.76415373 821.94921875 975.69140625 C821.15616784 973.33450876 820.45173903 970.94634335 819.828125 968.5390625 C819.45403828 967.13022006 819.07967611 965.72145073 818.70507812 964.31274414 C818.41540161 963.20263474 818.41540161 963.20263474 818.11987305 962.07009888 C805.44617045 913.80153175 787.86855158 867.31852518 765.85552979 822.54119873 C764.40884057 819.58848743 762.98427555 816.6250826 761.5546875 813.6640625 C754.84587084 799.88968414 747.49120737 786.59978977 739.60742188 773.46533203 C738.05143391 770.86239692 736.51969995 768.24698401 734.99609375 765.625 C712.42992989 727.02153853 684.75672693 690.30679012 654.43359375 657.421875 C652.45557176 655.24791687 650.5145805 653.05321912 648.5859375 650.8359375 C639.93658161 640.92487805 630.79327504 631.44665436 621.51171875 622.12890625 C620.55567749 621.16597656 620.55567749 621.16597656 619.58032227 620.18359375 C615.82978745 616.44525342 611.95843531 612.90938101 607.95141602 609.44848633 C604.5907147 606.49921583 601.37559806 603.39797313 598.13671875 600.31640625 C591.95080982 594.480024 585.60951753 588.98339875 578.94921875 583.69140625 C577.77170879 582.72475823 576.59605152 581.75585064 575.421875 580.78515625 C548.6024716 558.66384312 519.99362471 538.30258733 489.91796875 520.83544922 C488.52499963 520.0259932 487.13462091 519.21207175 485.74609375 518.39501953 C431.57436955 486.54446728 372.93357006 462.0013197 311.94921875 446.69140625 C310.67224121 446.36479004 309.39526367 446.03817383 308.07958984 445.70166016 C250.46436106 431.0189403 191.3629148 424.61043466 131.94921875 425.69140625 C130.76666504 425.71074219 129.58411133 425.73007812 128.36572266 425.75 C59.61633899 427.03485862 -11.46201816 436.63822303 -77.05078125 457.69140625 C-77.70264404 457.89958984 -78.35450684 458.10777344 -79.02612305 458.32226562 C-99.00324317 464.70758347 -118.74885881 471.45243984 -138.05078125 479.69140625 C-139.12021973 480.14451172 -140.1896582 480.59761719 -141.29150391 481.06445312 C-186.7542561 500.43744529 -230.69496434 525.65064196 -268.12109375 558.1640625 C-271.00823512 560.65470313 -273.95364792 563.05322866 -276.92578125 565.44140625 C-280.5986615 568.42861132 -284.00526751 571.51217652 -287.28295898 574.92456055 C-288.9804741 576.62113793 -290.73572657 578.16804227 -292.56640625 579.71875 C-297.48004967 583.9902087 -302.07798278 588.56795268 -306.66918945 593.17944336 C-308.11103346 594.6266501 -309.55815241 596.06842651 -311.00585938 597.50976562 C-316.23424966 602.73401395 -321.25834724 608.06491952 -326.05078125 613.69140625 C-327.09584271 614.88310325 -328.14269965 616.07322825 -329.19140625 617.26171875 C-336.43768417 625.52689657 -343.3727349 633.96223025 -350.05078125 642.69140625 C-350.60459473 643.4086084 -351.1584082 644.12581055 -351.72900391 644.86474609 C-394.96694144 700.94469527 -428.03712843 764.81797767 -451.05078125 831.69140625 C-451.29141296 832.39031982 -451.53204468 833.0892334 -451.77996826 833.80932617 C-475.17000977 901.98584006 -491.92200084 975.3223559 -492.2890625 1047.69140625 C-492.29392733 1048.43098949 -492.29879215 1049.17057274 -492.3038044 1049.9325676 C-492.34009467 1055.51884176 -492.35649279 1061.1050238 -492.36328125 1066.69140625 C-492.36500713 1067.92171947 -492.36500713 1067.92171947 -492.36676788 1069.17688751 C-492.39016232 1093.16732752 -492.15101405 1116.88090982 -488.37689209 1140.62957764 C-488.03568394 1142.78685865 -487.7094136 1144.94605215 -487.38525391 1147.10595703 C-474.97995648 1229.01646977 -446.1809195 1307.45516891 -363.47900391 1426.95898438 C-361.43815635 1429.43451502 -359.43650989 1431.9413884 -357.42578125 1434.44140625 C-353.36588986 1439.40101716 -349.07598782 1444.11552488 -344.71484375 1448.80859375 C-342.41184088 1451.3006995 -340.16431296 1453.82922728 -337.92578125 1456.37890625 C-333.59934697 1461.19822545 -329.05847055 1465.79245468 -324.48828125 1470.37890625 C-323.42552979 1471.44854614 -323.42552979 1471.44854614 -322.34130859 1472.53979492 C-318.30914038 1476.56028246 -314.17860034 1480.40355036 -309.8659668 1484.12133789 C-307.44190179 1486.21806447 -305.09238496 1488.39169769 -302.73828125 1490.56640625 C-297.33586668 1495.48712405 -291.74909266 1500.11933178 -286.05078125 1504.69140625 C-284.93057609 1505.60365914 -283.8108042 1506.51644428 -282.69140625 1507.4296875 C-268.05956491 1519.31556407 -252.90410893 1530.48826703 -237.05078125 1540.69140625 C-236.32955078 1541.15756348 -235.60832031 1541.6237207 -234.86523438 1542.10400391 C-215.82315632 1554.37943018 -196.27317713 1565.47636833 -176.05078125 1575.69140625 C-175.2088623 1576.11776367 -174.36694336 1576.54412109 -173.49951172 1576.98339844 C-116.98625291 1605.35816226 -54.65918945 1622.7815175 7.94921875 1630.69140625 C8.71884949 1630.78957642 9.48848022 1630.88774658 10.28143311 1630.9888916 C32.37573285 1633.77745413 54.30265473 1635.06208838 76.57421875 1635.06640625 C77.62011169 1635.06830963 78.66600464 1635.07021301 79.74359131 1635.07217407 C99.28982931 1635.06812771 118.80495564 1633.93961951 138.13671875 1630.94140625 C139.24144531 1630.7722168 140.34617187 1630.60302734 141.484375 1630.42871094 C164.11768628 1626.84934177 186.1599396 1621.79213665 207.94921875 1614.69140625 C209.06055176 1614.33095215 210.17188477 1613.97049805 211.31689453 1613.59912109 C256.15558232 1598.83823801 297.46893121 1576.32042457 334.94921875 1547.69140625 C335.63975342 1547.16498535 336.33028809 1546.63856445 337.04174805 1546.09619141 C343.82855688 1540.88923839 350.41119873 1535.54061615 356.7109375 1529.74609375 C358.81961402 1527.81038022 360.96708203 1525.93320649 363.13671875 1524.06640625 C366.36570103 1521.26057689 369.37408085 1518.29219593 372.3671875 1515.23828125 C373.94921875 1513.69140625 373.94921875 1513.69140625 376.44921875 1511.75390625 C379.33063315 1509.37673937 381.58575503 1506.72359746 384.00390625 1503.88671875 C386.02160795 1501.60971402 388.14307494 1499.49925162 390.32421875 1497.37890625 C394.33937359 1493.40430853 397.92763298 1489.2200413 401.453125 1484.80859375 C403.25190899 1482.56222502 405.0673813 1480.34282112 406.9140625 1478.13671875 C455.92153626 1419.31267101 486.96384108 1345.8290973 499.61920166 1270.64746094 C499.93873106 1268.75356817 500.26682882 1266.8611272 500.59521484 1264.96875 C506.52608904 1229.48697765 507.28709774 1190.1334178 500.94921875 1154.69140625 C500.75054199 1153.54671875 500.55186523 1152.40203125 500.34716797 1151.22265625 C495.60622203 1124.63074372 487.58213081 1099.48974461 476.94921875 1074.69140625 C476.6145459 1073.91007324 476.27987305 1073.12874023 475.93505859 1072.32373047 C464.83714825 1046.81175532 449.64831204 1023.10535726 431.94921875 1001.69140625 C431.48725098 1001.13179199 431.0252832 1000.57217773 430.54931641 999.99560547 C424.64448774 992.88835368 418.49183113 986.0193285 412.19921875 979.25390625 C411.59754883 978.60373535 410.99587891 977.95356445 410.37597656 977.28369141 C406.68796796 973.35875497 402.83547309 969.745975 398.74853516 966.23901367 C396.61544821 964.40432735 394.56789151 962.48653733 392.51171875 960.56640625 C371.09251366 941.2792813 345.89404109 924.9647776 319.89257812 912.62255859 C317.93590989 911.68502937 315.99705052 910.71674132 314.05859375 909.7421875 C259.64699405 882.76227219 193.0297274 871.15311177 132.94921875 881.69140625 C131.93875488 881.86833008 130.92829102 882.04525391 129.88720703 882.22753906 C116.22577477 884.70211103 103.05754856 888.13855923 89.94921875 892.69140625 C88.70140625 893.10648438 87.45359375 893.5215625 86.16796875 893.94921875 C60.5397324 902.94063781 36.41019949 916.15519865 15.47216797 933.44042969 C14.05270143 934.6064038 12.61298972 935.74760978 11.171875 936.88671875 C-41.54755678 978.84550293 -76.20510085 1041.99497607 -85.05078125 1108.69140625 C-91.75702353 1168.75601102 -78.22628335 1225.4380454 -40.78369141 1273.53320312 C-36.499235 1278.86915616 -31.84142249 1283.81211023 -27.05078125 1288.69140625 C-26.11546698 1289.66496275 -25.18056725 1290.6389177 -24.24609375 1291.61328125 C15.01709935 1331.87751893 72.72197713 1355.12460489 128.69921875 1355.94140625 C154.97435691 1355.92942215 181.19551947 1349.88053226 204.76953125 1338.34765625 C205.60774414 1337.9400708 206.44595703 1337.53248535 207.30957031 1337.11254883 C208.93603033 1336.31463597 210.55578101 1335.50283324 212.16699219 1334.67456055 C220.03138302 1330.77528819 227.15790124 1329.63836952 235.58203125 1332.47265625 C240.791343 1335.15467814 244.82361612 1340.25820701 246.94921875 1345.69140625 C247.82747928 1353.41192906 247.69515575 1360.34689797 242.94921875 1366.69140625 C237.87381813 1371.7631237 232.15946274 1375.75140279 226.07421875 1379.50390625 C224.83212646 1380.27420166 224.83212646 1380.27420166 223.56494141 1381.06005859 C221.03420997 1382.61717277 218.49375058 1384.15696734 215.94921875 1385.69140625 C214.84610352 1386.36357178 214.84610352 1386.36357178 213.72070312 1387.04931641 C158.3177966 1420.50180465 90.08477456 1424.53965899 28.1796875 1409.609375 C5.95491535 1403.90621716 -15.58355672 1396.0743224 -36.05078125 1385.69140625 C-36.98422363 1385.2212207 -37.91766602 1384.75103516 -38.87939453 1384.26660156 C-62.64080156 1372.16258426 -83.85509683 1356.4328602 -103.3046875 1338.25 C-105.95042728 1335.78490817 -108.64834202 1333.39223625 -111.36328125 1331.00390625 C-114.93253306 1327.79782156 -118.15010993 1324.4835626 -121.234375 1320.8125 C-122.51998702 1319.31123693 -123.85071712 1317.84807422 -125.2109375 1316.4140625 C-173.47947454 1265.47702098 -200.94221119 1189.8172095 -201.25390625 1120.1640625 C-201.26096588 1119.10523361 -201.26802551 1118.04640472 -201.27529907 1116.95549011 C-201.50587289 1072.19488659 -201.50587289 1072.19488659 -198.05078125 1050.69140625 C-197.74479004 1048.77739014 -197.74479004 1048.77739014 -197.43261719 1046.82470703 C-187.1306229 983.75992492 -162.60588458 923.79963151 -124.05078125 872.69140625 C-123.60782715 872.09682617 -123.16487305 871.50224609 -122.70849609 870.88964844 C-106.79457407 849.52843309 -88.44505548 828.87136552 -68.05078125 811.69140625 C-67.03907295 810.80616149 -66.0287899 809.91928657 -65.01953125 809.03125 C-26.37478476 775.18716232 18.75353614 750.02539242 66.94921875 732.69140625 C67.7081543 732.41200195 68.46708984 732.13259766 69.24902344 731.84472656 C99.22144421 720.84042689 132.17344946 714.1325382 163.94921875 711.69140625 C165.04218262 711.60528076 166.13514648 711.51915527 167.26123047 711.43041992 C178.6581553 710.62006494 190.02637828 710.48980591 201.44921875 710.50390625 C202.92804031 710.50531113 202.92804031 710.50531113 204.43673706 710.50674438 C297.58605671 710.69732979 388.7717398 734.94809675 534.953125 830.1328125 C537.84763028 832.60465208 540.79323158 834.99678692 543.76171875 837.37890625 C547.69039297 840.5730892 551.32011147 843.90194893 554.8046875 847.57421875 C556.68804716 849.43356472 558.61669095 851.14946201 560.62109375 852.875 C565.28797326 856.9280008 569.65360315 861.24861195 574.01171875 865.62890625 C574.77548828 866.38880859 575.53925781 867.14871094 576.32617188 867.93164062 C580.51743779 872.13007722 584.53993599 876.4152199 588.40991211 880.91137695 C590.44795162 883.26813287 592.57449282 885.53782085 594.69921875 887.81640625 C599.93076277 893.5600743 604.70078339 899.59412516 609.43798828 905.74755859 C611.00417323 907.76209245 612.59661439 909.75337871 614.1953125 911.7421875 C675.03508356 987.87487259 709.95006329 1083.49958365 720.94921875 1179.69140625 C721.06104492 1180.6654541 721.17287109 1181.63950195 721.28808594 1182.64306641 C721.92584702 1188.3195424 722.475391 1193.99901784 722.94921875 1199.69140625 C723.06136719 1200.99207031 723.17351562 1202.29273438 723.2890625 1203.6328125 C725.68088139 1236.62680738 724.23300977 1270.81047693 720.94921875 1303.69140625 C721.51503662 1303.95002441 722.08085449 1304.20864258 722.66381836 1304.47509766 C731.57117972 1309.2156675 738.8489993 1317.2374838 745.88671875 1324.31640625 C746.36822388 1324.79906952 746.849729 1325.28173279 747.3458252 1325.77902222 C754.86438252 1333.33328567 761.65675319 1341.10100958 767.94921875 1349.69140625 C768.74585938 1350.68140625 769.5425 1351.67140625 770.36328125 1352.69140625 C801.99415198 1392.05426761 821.38955656 1442.99278435 831.44921875 1492.00390625 C831.60946533 1492.77903564 831.76971191 1493.55416504 831.93481445 1494.3527832 C832.86411577 1499.21718747 833.47448314 1503.74774141 832.94921875 1508.69140625 C830.95703125 1511.203125 830.95703125 1511.203125 828.07421875 1513.37890625 C827.54393066 1513.7869751 827.01364258 1514.19504395 826.46728516 1514.61547852 C824.64684726 1516.00133528 822.79911947 1517.3451822 820.94921875 1518.69140625 C819.5578336 1519.73727073 818.16723801 1520.78418627 816.77734375 1521.83203125 C806.55773076 1529.45014356 795.97132973 1536.2987209 784.94921875 1542.69140625 C783.77818604 1543.37565674 783.77818604 1543.37565674 782.58349609 1544.07373047 C748.68847943 1563.74426929 710.83042093 1576.67991678 671.94921875 1581.69140625 C671.25054688 1581.78929443 670.551875 1581.88718262 669.83203125 1581.98803711 C661.03506975 1583.06399938 652.16991165 1582.79987818 643.32421875 1582.75390625 C641.63541799 1582.74888102 639.94661579 1582.74431993 638.2578125 1582.74023438 C634.15491164 1582.72931024 630.05208148 1582.71210205 625.94921875 1582.69140625 C625.6860083 1583.41110596 625.42279785 1584.13080566 625.15161133 1584.87231445 C623.91588953 1587.76954889 622.45815408 1590.17885524 620.7109375 1592.796875 C620.06205566 1593.77164795 619.41317383 1594.7464209 618.74462891 1595.75073242 C618.04901855 1596.78302979 617.3534082 1597.81532715 616.63671875 1598.87890625 C615.56236572 1600.48052612 615.56236572 1600.48052612 614.46630859 1602.11450195 C595.21634146 1630.66911817 573.91533781 1657.7823936 550.47680664 1683.02026367 C549.33662844 1684.26758983 548.21040842 1685.52770186 547.09155273 1686.79418945 C541.02517273 1693.64332816 534.65255978 1700.14157695 528.17407227 1706.59692383 C526.38245925 1708.38315295 524.5962882 1710.17469972 522.81054688 1711.96679688 C517.54885607 1717.23154508 512.28968238 1722.43581019 506.61987305 1727.26586914 C504.0528323 1729.45627553 501.60594321 1731.76640137 499.13671875 1734.06640625 C493.59262048 1739.18140831 487.84015973 1743.97865347 481.94921875 1748.69140625 C480.83016061 1749.60216644 479.71169987 1750.51366101 478.59375 1751.42578125 C471.4603699 1757.22159192 464.19923122 1762.83116992 456.82421875 1768.31640625 C455.61572266 1769.22265747 455.61572266 1769.22265747 454.3828125 1770.1472168 C453.23619141 1770.99280151 453.23619141 1770.99280151 452.06640625 1771.85546875 C451.39206543 1772.3551416 450.71772461 1772.85481445 450.02294922 1773.36962891 C447.7501106 1774.81831602 445.4748808 1775.76483526 442.94921875 1776.69140625 C442.95791992 1777.33319824 442.96662109 1777.97499023 442.97558594 1778.63623047 C443.35042538 1828.62374773 430.39956405 1877.76337329 408.94921875 1922.69140625 C408.49015137 1923.65643066 408.03108398 1924.62145508 407.55810547 1925.61572266 C390.05321453 1962.12767555 366.89212079 1996.69925585 339.15234375 2026.2734375 C336.93504866 2028.64101767 336.93504866 2028.64101767 335.05859375 2031.140625 C334.20007812 2032.24857422 334.20007812 2032.24857422 333.32421875 2033.37890625 C332.85757812 2034.02214844 332.3909375 2034.66539063 331.91015625 2035.328125 C328.05373575 2038.00918228 323.50924063 2036.93695531 319.11230469 2036.24487305 C315.77220629 2035.61893129 312.45590515 2034.92017065 309.13671875 2034.19140625 C307.90767822 2033.92295898 306.6786377 2033.65451172 305.41235352 2033.37792969 C274.37764353 2026.4086482 244.50912524 2015.6536963 215.94921875 2001.69140625 C215.06073242 2001.25747559 214.17224609 2000.82354492 213.25683594 2000.37646484 C192.1377675 1989.94249922 172.28051553 1977.4832897 153.94921875 1962.69140625 C152.93859375 1961.8921875 151.92796875 1961.09296875 150.88671875 1960.26953125 C133.52650412 1946.36163203 116.39387973 1930.45098778 102.94921875 1912.69140625 C102.04565907 1911.53016848 101.14061648 1910.37008358 100.234375 1909.2109375 C93.17727029 1900.14750934 93.17727029 1900.14750934 91.94921875 1897.69140625 C91.27160995 1897.69584747 90.59400116 1897.7002887 89.89585876 1897.7048645 C4.24429724 1898.23972077 -78.73213192 1891.40835003 -180.41796875 1863.765625 C-181.16481934 1863.52759659 -181.91166992 1863.28956818 -182.68115234 1863.04432678 C-186.20510939 1861.91448571 -189.71806989 1860.75992344 -193.21972656 1859.56274414 C-194.44530273 1859.15660889 -195.67087891 1858.75047363 -196.93359375 1858.33203125 C-198.53291748 1857.78337402 -198.53291748 1857.78337402 -200.16455078 1857.22363281 C-204.25255866 1856.46979614 -206.45000336 1857.69396886 -209.87744141 1859.82958984 C-210.72508057 1860.45341553 -210.72508057 1860.45341553 -211.58984375 1861.08984375 C-212.24227051 1861.56284912 -212.89469727 1862.03585449 -213.56689453 1862.52319336 C-214.26282715 1863.03245361 -214.95875977 1863.54171387 -215.67578125 1864.06640625 C-283.22245108 1912.49070899 -364.7916049 1941.74043104 -447.05078125 1951.69140625 C-448.9222583 1951.91787842 -448.9222583 1951.91787842 -450.83154297 1952.14892578 C-477.86054155 1955.25875347 -504.8782204 1955.02132226 -532.05078125 1954.69140625 C-558.59901709 1894.87962519 -568.19267497 1826.55738445 -564.30078125 1761.50390625 C-564.25787964 1760.77973511 -564.21497803 1760.05556396 -564.17077637 1759.30944824 C-561.89748286 1721.96364439 -556.09274821 1682.75188908 -542.4753418 1647.68481445 C-541.90891463 1645.02531026 -542.25040557 1643.28341362 -543.05078125 1640.69140625 C-544.3909093 1638.67236848 -544.3909093 1638.67236848 -546.15234375 1636.8671875 C-546.78430664 1636.17963379 -547.41626953 1635.49208008 -548.06738281 1634.78369141 C-548.7219043 1634.0932373 -549.37642578 1633.4027832 -550.05078125 1632.69140625 C-550.65631836 1632.04349121 -551.26185547 1631.39557617 -551.88574219 1630.72802734 C-553.72414982 1628.77032617 -555.57451812 1626.82444778 -557.42578125 1624.87890625 C-562.44921628 1619.55983043 -567.26862577 1614.16847818 -571.828125 1608.44140625 C-573.9263805 1605.84532211 -576.08809469 1603.32544141 -578.28173828 1600.81054688 C-584.97872883 1593.12117039 -591.20679774 1585.13277002 -597.328125 1576.98046875 C-599.09128234 1574.63758847 -600.86691634 1572.30458119 -602.64453125 1569.97265625 C-616.22780801 1552.09198759 -629.09591926 1533.70152773 -641.05078125 1514.69140625 C-641.81769287 1513.47420898 -641.81769287 1513.47420898 -642.60009766 1512.23242188 C-643.69554934 1510.4894336 -644.78727725 1508.74410006 -645.87548828 1506.99658203 C-646.99120362 1505.2116326 -648.11850661 1503.43387352 -649.25732422 1501.66357422 C-652.01671889 1497.30836571 -654.36876262 1493.13772756 -656.1953125 1488.30859375 C-658.34464684 1482.98324305 -660.40644506 1478.26816006 -665.05078125 1474.69140625 C-673.14432938 1471.60111928 -681.99446945 1471.13523 -690.56263733 1470.37091064 C-698.08337117 1469.67345389 -705.31776818 1468.15807299 -712.67578125 1466.44140625 C-713.95235596 1466.14548584 -715.22893066 1465.84956543 -716.54418945 1465.54467773 C-750.61190144 1457.43208711 -783.28373357 1445.3333461 -815.05078125 1430.69140625 C-815.95828125 1430.27681152 -816.86578125 1429.8622168 -817.80078125 1429.43505859 C-846.57174772 1416.2466232 -874.59730014 1400.36569256 -900.34326172 1381.91357422 C-902.06205824 1380.68333468 -903.79130504 1379.46918584 -905.5234375 1378.2578125 C-918.77168366 1368.95105468 -931.63864342 1359.08634452 -944.05078125 1348.69140625 C-944.55528809 1348.27181641 -945.05979492 1347.85222656 -945.57958984 1347.41992188 C-953.02950167 1341.22108847 -960.26089336 1334.83690545 -967.35961914 1328.23901367 C-968.62700038 1327.07921439 -969.90698689 1325.93316419 -971.19311523 1324.79418945 C-977.72313378 1319.00220418 -983.94434544 1312.95223326 -990.10180664 1306.77075195 C-991.74317921 1305.12399221 -993.38986944 1303.4826853 -995.03710938 1301.84179688 C-1000.06587706 1296.81563216 -1004.98918169 1291.7531181 -1009.59985352 1286.3347168 C-1011.20081148 1284.46911903 -1011.20081148 1284.46911903 -1013.80859375 1282.109375 C-1019.92084714 1276.35013954 -1019.92084714 1276.35013954 -1020.234375 1272.34765625 C-1019.4663566 1269.29490387 -1018.30437411 1266.58227738 -1017.05078125 1263.69140625 C-1016.47541813 1262.14001122 -1015.90981325 1260.58497829 -1015.3515625 1259.02734375 C-1011.1568855 1247.44574536 -1006.31922118 1236.19172221 -1001.13134766 1225.02441406 C-1000.11638455 1222.83304771 -999.11854811 1220.63473244 -998.125 1218.43359375 C-976.73576836 1171.47390217 -946.490922 1127.33080027 -911.53515625 1089.421875 C-910.21745605 1087.97364789 -908.90473375 1086.52008178 -907.63452148 1085.0300293 C-902.47847606 1078.9914812 -896.90232423 1073.39106271 -891.28100586 1067.79125977 C-889.61651848 1066.13213305 -887.95744678 1064.46772574 -886.29882812 1062.80273438 C-880.72180049 1057.22190277 -875.07604142 1051.79113241 -869.05078125 1046.69140625 C-867.95547107 1045.73094299 -866.86167414 1044.76875077 -865.76953125 1043.8046875 C-857.84778493 1036.88475168 -849.6543751 1030.44601828 -841.16455078 1024.23876953 C-839.00427452 1022.65736148 -836.85368543 1021.06333759 -834.703125 1019.46875 C-817.60742129 1006.87033175 -799.58977109 996.02065529 -781.05078125 985.69140625 C-780.33970215 985.29453613 -779.62862305 984.89766602 -778.89599609 984.48876953 C-768.46586127 978.69140625 -768.46586127 978.69140625 -766.05078125 978.69140625 C-765.99656006 978.0986792 -765.94233887 977.50595215 -765.88647461 976.89526367 C-759.1380248 905.5707837 -742.32046632 834.24232638 -718.64013672 766.69311523 C-718.29611816 765.69868408 -717.95209961 764.70425293 -717.59765625 763.6796875 C-717.14664551 762.40411987 -717.14664551 762.40411987 -716.68652344 761.1027832 C-715.99385416 758.47548117 -715.79813321 756.3963729 -716.05078125 753.69140625 C-717.5772791 751.29388932 -719.10727335 749.15694394 -720.86328125 746.94140625 C-721.88906155 745.59130323 -722.91108299 744.23833758 -723.9296875 742.8828125 C-724.45320801 742.18687988 -724.97672852 741.49094727 -725.51611328 740.77392578 C-774.91389434 673.74193844 -802.46683925 587.43227797 -821.23828125 411.87890625 C-821.2393689 410.8716449 -821.24045654 409.86438354 -821.24157715 408.82659912 C-821.24030313 398.43422713 -821.10309599 388.06099006 -820.6015625 377.6796875 C-820.54381905 376.47073067 -820.54381905 376.47073067 -820.48490906 375.23735046 C-820.23897621 370.68217416 -819.93994755 366.17377883 -819.05078125 361.69140625 C-816.8046875 359.828125 -816.8046875 359.828125 -813.61328125 358.37890625 C-813.00766357 358.10095215 -812.4020459 357.82299805 -811.77807617 357.53662109 C-809.55249704 356.54288162 -807.30746404 355.61236474 -805.05078125 354.69140625 C-804.13490234 354.31612793 -803.21902344 353.94084961 -802.27539062 353.55419922 C-753.98724865 334.0071215 -702.93551595 320.91554625 -651.05078125 315.69140625 C-650.20231628 315.60527069 -649.35385132 315.51913513 -648.47967529 315.4303894 C-630.83184283 313.69624808 -613.27478788 313.32821885 -595.55078125 313.37890625 C-594.17270922 313.38113001 -592.79463712 313.38330646 -591.41656494 313.38543701 C-571.15916671 313.42880232 -551.13820638 313.8052376 -531.05078125 316.69140625 C-530.35023621 316.79086548 -529.64969116 316.89032471 -528.92791748 316.99279785 C-492.53429753 322.19174331 -455.95252856 329.99433146 -421.71801758 343.66015625 C-416.51049686 345.79465165 -416.51049686 345.79465165 -411.05078125 345.69140625 C-408.29001915 344.22308625 -405.78474708 342.43781221 -403.23828125 340.62890625 C-401.62581761 339.52034795 -400.01111554 338.41504058 -398.39453125 337.3125 C-397.53214844 336.7232373 -396.66976562 336.13397461 -395.78125 335.52685547 C-373.14023024 320.30732877 -349.32751179 307.08432632 -325.05078125 294.69140625 C-323.94742432 294.12728027 -323.94742432 294.12728027 -322.82177734 293.55175781 C-318.92567396 291.56594776 -315.01443466 289.61382738 -311.08691406 287.69091797 C-309.69344865 287.00688351 -308.30226993 286.31817641 -306.91308594 285.62548828 C-273.89974351 269.19061642 -239.12719277 255.71642638 -203.86328125 245.00390625 C-203.13670319 244.78286224 -202.41012512 244.56181824 -201.66152954 244.33407593 C-199.61207968 243.71391495 -197.56061162 243.10116025 -195.5078125 242.4921875 C-193.74401245 241.96878784 -193.74401245 241.96878784 -191.94458008 241.43481445 C-189.05078125 240.69140625 -189.05078125 240.69140625 -186.05078125 240.69140625 C-185.95933838 239.99337891 -185.86789551 239.29535156 -185.77368164 238.57617188 C-184.53255344 230.13123931 -182.23570455 222.25590925 -179.48828125 214.19140625 C-179.15839203 213.21128571 -179.15839203 213.21128571 -178.82183838 212.21136475 C-174.93341433 200.69336812 -170.39896228 189.61009455 -165.05078125 178.69140625 C-164.38801294 177.3112017 -163.72525233 175.93099347 -163.0625 174.55078125 C-146.91769239 141.31123369 -126.31469981 110.29760129 -101.24609375 83.09765625 C-100.03574398 81.77100953 -98.83330883 80.43642138 -97.66796875 79.07006836 C-92.53964184 73.07120173 -87.02312741 67.47761947 -81.44580078 61.90112305 C-79.81250677 60.26564743 -78.18739655 58.62232917 -76.5625 56.97851562 C-70.77990051 51.16529603 -64.88227787 45.72657525 -58.45849609 40.61108398 C-56.43871876 39.00070991 -54.48010543 37.35653035 -52.546875 35.64453125 C-44.28273522 28.32717243 -35.61599742 21.75278138 -26.56005859 15.44580078 C-24.79845252 14.21415054 -23.04417018 12.97199061 -21.29541016 11.72216797 C-18.47841151 9.71112919 -15.6425343 7.72976422 -12.80078125 5.75390625 C-11.91962646 5.11984863 -11.03847168 4.48579102 -10.13061523 3.83251953 C-3.93928938 -0.39846845 -3.93928938 -0.39846845 0 0 Z " fill="#F3821D" transform="translate(1067.05078125,5.30859375)"/>
</svg>
