<?xml version="1.0" encoding="UTF-8"?>
<svg version="1.1" xmlns="http://www.w3.org/2000/svg" width="512" height="512">
<path d="M0 0 C7.33833841 4.34309824 9.57778124 11.87556559 12.25 19.625 C14.02292636 27.60316862 14.19266309 35.6026497 14.1875 43.75 C14.18814453 44.80316406 14.18878906 45.85632813 14.18945312 46.94140625 C14.13821835 54.49620716 13.51409304 61.5907099 12 69 C12.6077124 69.09498779 13.2154248 69.18997559 13.84155273 69.2878418 C40.84785584 73.57395094 63.05094081 81.90380561 87 95 C87.26683594 94.13632813 87.53367187 93.27265625 87.80859375 92.3828125 C91.5510644 81.75664993 98.00515835 72.71221317 105 64 C105.86238281 62.88818359 105.86238281 62.88818359 106.7421875 61.75390625 C113.10209384 53.94856666 121.82647767 46.70550277 132 45 C135.49015336 45.06463247 137.13316112 45.2826161 139.8125 47.5 C142.98077396 54.17005043 142.14893494 60.67812301 140.20703125 67.62109375 C135.19400906 81.6543112 127.3247734 93.6975362 117.2109375 104.578125 C114.71198072 107.31549816 112.3563651 110.13929009 110 113 C110.96486328 114.00353516 110.96486328 114.00353516 111.94921875 115.02734375 C117.61602997 121.04984641 122.90503635 127.24794832 127.9375 133.8125 C128.48043701 134.51689209 129.02337402 135.22128418 129.58276367 135.94702148 C132.75863897 140.14052053 135.49136236 144.37564387 138 149 C134.2141279 153.09165408 130.26600677 156.0059583 125.5 158.875 C124.84902344 159.29007813 124.19804687 159.70515625 123.52734375 160.1328125 C120.76962529 161.80415702 118.57970975 162.97203155 115.328125 163.12890625 C112.01412533 161.52195003 110.30568344 159.00427529 108.25 156.0625 C107.37432795 154.86871463 106.49537101 153.67733243 105.61328125 152.48828125 C105.17580566 151.89611816 104.73833008 151.30395508 104.28759766 150.69384766 C101.13815917 146.55072968 97.56621688 142.78235123 94 139 C93.32839844 138.26394531 92.65679687 137.52789062 91.96484375 136.76953125 C77.40267608 121.39079343 58.10827113 110.74468292 38.1875 104 C37.40165527 103.73348633 36.61581055 103.46697266 35.80615234 103.19238281 C22.42158319 98.96164392 9.21620923 97.43946887 -4.75 97.5625 C-5.48879395 97.56554138 -6.22758789 97.56858276 -6.98876953 97.57171631 C-19.03795153 97.64476723 -30.39078189 98.64622588 -42 102 C-42.73460449 102.19835449 -43.46920898 102.39670898 -44.22607422 102.60107422 C-66.84034716 108.80088689 -86.06134068 121.01359921 -103 137 C-103.66386719 137.61101562 -104.32773438 138.22203125 -105.01171875 138.8515625 C-109.97354117 143.5819003 -114.10082129 148.82160996 -118.14428711 154.34057617 C-121.49097089 158.78717206 -121.49097089 158.78717206 -123.92285156 159.80395508 C-126.56630507 160.05344887 -127.53984795 159.45062558 -129.75 158.015625 C-130.78640625 157.35433594 -130.78640625 157.35433594 -131.84375 156.6796875 C-132.91109375 155.97199219 -132.91109375 155.97199219 -134 155.25 C-135.06734375 154.56550781 -135.06734375 154.56550781 -136.15625 153.8671875 C-139.52777373 151.69079345 -142.83546958 149.47228939 -146 147 C-145.49059417 142.30310561 -143.57132663 139.67952362 -140.6875 136 C-140.24962158 135.44111084 -139.81174316 134.88222168 -139.3605957 134.30639648 C-135.0940949 128.94876111 -130.47033248 123.94103903 -125.76171875 118.97265625 C-123.03888807 116.08666687 -120.51221888 113.07048974 -118 110 C-118.928125 109.154375 -119.85625 108.30875 -120.8125 107.4375 C-130.95840357 97.20944336 -138.18396056 85.08608874 -144 72 C-144.3815625 71.14664063 -144.763125 70.29328125 -145.15625 69.4140625 C-147.44557419 63.54236989 -147.88706751 57.22686606 -147 51 C-145.671875 48.203125 -145.671875 48.203125 -144 46 C-138.14788552 44.12732337 -133.3365502 45.31428519 -128 48 C-124.42881789 50.41775683 -121.20966459 53.12434929 -118 56 C-117.32066406 56.59683594 -116.64132813 57.19367188 -115.94140625 57.80859375 C-106.02397085 67.087482 -99.03846548 78.96305887 -93 91 C-88.75076761 89.73057523 -84.96965511 88.03377548 -81.0390625 86.02978516 C-62.31914548 76.58597036 -39.29560172 68.33059012 -18 69 C-18.2165625 67.42025391 -18.2165625 67.42025391 -18.4375 65.80859375 C-20.99649636 46.32015169 -22.92486383 22.22757679 -11.6328125 4.90234375 C-8.10808876 0.49122498 -5.61220688 -0.64756233 0 0 Z " fill="#00ABC1" transform="translate(260,21)"/>
<path d="M0 0 C2.39141795 1.31092719 3.4275183 2.77233572 5.01171875 5 C28.25860964 35.13004853 61.29659984 53.22505275 98.82421875 58.25 C135.51264382 62.52267845 172.53453044 52.27842469 201.6640625 29.56542969 C209.83083272 23.02597045 217.00247677 15.9364849 223.82421875 8 C225.19882787 6.43715611 226.57378558 4.87461871 227.94921875 3.3125 C228.90869354 2.20932507 229.86752283 1.10558569 230.82421875 0 C235.56359848 1.61340587 239.40436876 4.21130457 243.51171875 7 C244.18783203 7.45117188 244.86394531 7.90234375 245.56054688 8.3671875 C248.19047409 10.13617337 250.57648535 11.7522666 252.82421875 14 C251.92261418 23.96058384 239.47693457 33.99263573 232.82421875 41 C235.73862079 45.01397498 238.67506985 48.88285342 242.07421875 52.5 C252.13709238 63.85986623 262.84553465 80.82677541 262.8203125 96.4140625 C262.56222858 99.78562693 262.09234491 102.43552387 260.63671875 105.5 C257.95737987 107.7173839 256.31437211 107.93536753 252.82421875 108 C246.00573765 106.68681105 241.04521232 103.42146872 235.82421875 99 C235.29916748 98.57992676 234.77411621 98.15985352 234.2331543 97.72705078 C229.77325433 94.07520565 226.28726324 90.14134517 222.88671875 85.5 C222.3752832 84.81019043 221.86384766 84.12038086 221.33691406 83.40966797 C208.82421875 66.22729446 208.82421875 66.22729446 208.82421875 61 C208.22738281 61.3403125 207.63054687 61.680625 207.015625 62.03125 C185.54366798 74.02746967 158.94053124 87 133.82421875 87 C133.98535156 88.22074219 134.14648438 89.44148438 134.3125 90.69921875 C134.97928748 96.73571074 135.00819711 102.7447147 135.01171875 108.8125 C135.02396484 109.91142578 135.03621094 111.01035156 135.04882812 112.14257812 C135.07266015 125.6235592 133.35793331 139.06617822 124.82421875 150 C122.43530846 152.38891029 121.24926031 152.93669594 117.88671875 153.4375 C113.86823248 152.86343053 112.60000621 151.98930957 109.82421875 149 C98.44685298 131.10681348 99.97258993 108.2266196 101.82421875 88 C100.86721069 87.85751831 100.86721069 87.85751831 99.89086914 87.7121582 C86.53923137 85.6920891 73.61416924 83.37617554 60.82421875 79 C60.15487305 78.77586426 59.48552734 78.55172852 58.79589844 78.32080078 C50.34825289 75.4584589 42.46901822 72.01165231 34.69482422 67.62768555 C31.7768095 65.98584721 29.14744151 64.56758013 25.82421875 64 C25.55738281 64.70898438 25.29054687 65.41796875 25.015625 66.1484375 C18.6185565 81.45945392 5.94806259 98.36320757 -9.17578125 106 C-13.64923177 107.50895495 -17.51996032 108.34496269 -22.17578125 107.375 C-24.55875888 105.73670288 -25.10625899 104.66686069 -26.17578125 102 C-28.45821328 86.47946219 -19.99059351 71.70417592 -11.3515625 59.40234375 C-7.94874925 54.94427605 -4.25515198 50.75667804 -0.4609375 46.62890625 C1.03068545 45.08411488 1.03068545 45.08411488 0.82421875 43 C0.14359375 42.46375 -0.53703125 41.9275 -1.23828125 41.375 C-5.05625672 38.28812622 -8.014671 34.74135228 -11.17578125 31 C-12.05391086 29.99541434 -12.93286591 28.99154982 -13.8125 27.98828125 C-14.72582898 26.93017801 -15.63859159 25.87158561 -16.55078125 24.8125 C-17.40414062 23.82894531 -18.2575 22.84539062 -19.13671875 21.83203125 C-21.13970944 19.05009973 -21.84346928 17.36619717 -22.17578125 14 C-19.96830733 12.41545708 -17.75983383 10.83233947 -15.55078125 9.25 C-14.62458984 8.58484375 -14.62458984 8.58484375 -13.6796875 7.90625 C-12.44587289 7.02309849 -11.20856651 6.14480428 -9.96777344 5.27148438 C-8.8048857 4.44637275 -7.65351568 3.60468892 -6.51660156 2.74414062 C-2.76407191 0 -2.76407191 0 0 0 Z " fill="#00ACC1" transform="translate(139.17578125,338)"/>
<path d="M0 0 C11.55 0 23.1 0 35 0 C40.35223704 12.9083364 45.1857998 25.94363019 49.8125 39.125 C50.09644623 39.9318222 50.38039246 40.73864441 50.67294312 41.56991577 C53.63300539 49.99253837 56.58059178 58.40214752 59 67 C60.65911288 64.51133068 61.48788651 62.89335118 62.38525391 60.13720703 C62.76711601 58.97695259 62.76711601 58.97695259 63.1566925 57.79325867 C63.4272496 56.95656143 63.6978067 56.1198642 63.9765625 55.2578125 C64.56737683 53.45952533 65.15828194 51.66126799 65.74926758 49.86303711 C66.20941757 48.45464066 66.20941757 48.45464066 66.67886353 47.01779175 C75.25848106 20.78579725 75.25848106 20.78579725 79.8125 8.9375 C80.13105957 8.10814941 80.44961914 7.27879883 80.77783203 6.42431641 C82.8446733 1.1553267 82.8446733 1.1553267 84 0 C95.22 0 106.44 0 118 0 C118 40.26 118 80.52 118 122 C109 123.125 109 123.125 104.625 123.09765625 C103.24248047 123.09282227 103.24248047 123.09282227 101.83203125 123.08789062 C100.43017578 123.07532227 100.43017578 123.07532227 99 123.0625 C98.03449219 123.05798828 97.06898438 123.05347656 96.07421875 123.04882812 C93.71607911 123.03715417 91.35807398 123.02078021 89 123 C88.10697123 113.17953055 87.94822994 103.60657627 88.3125 93.75 C88.33545135 93.06921387 88.35840271 92.38842773 88.38204956 91.68701172 C88.84122083 78.09190193 89.7904835 64.54940173 91 51 C90.61779297 52.07668945 90.23558594 53.15337891 89.84179688 54.26269531 C77.02950274 90.3198767 77.02950274 90.3198767 72.25 102.25 C71.93998047 103.02633789 71.62996094 103.80267578 71.31054688 104.60253906 C70.07365732 107.63277759 68.82257389 110.26613916 67 113 C64.25682667 113.33132997 61.80355321 113.46401854 59.0625 113.4375 C58.33353516 113.45748047 57.60457031 113.47746094 56.85351562 113.49804688 C51.50688309 113.4931462 51.50688309 113.4931462 49.47753906 111.51879883 C47.36362338 107.91515241 46.03395834 104.13130628 44.63671875 100.203125 C44.32225296 99.33669373 44.00778717 98.47026245 43.68379211 97.57757568 C42.67860864 94.80398883 41.68278678 92.02715171 40.6875 89.25 C39.70404205 86.52519879 38.71865822 83.80109919 37.73318481 81.07702637 C37.08835857 79.2938842 36.44436908 77.51043921 35.80123901 75.72668457 C32.93707834 67.791362 29.98700887 59.88978965 27 52 C27.05534912 52.55010742 27.11069824 53.10021484 27.16772461 53.66699219 C32.41180451 106.86084329 32.41180451 106.86084329 29 123 C24.72918086 123.02897435 20.45838691 123.04678996 16.1875 123.0625 C14.36508789 123.07506836 14.36508789 123.07506836 12.50585938 123.08789062 C10.76079102 123.09272461 10.76079102 123.09272461 8.98046875 123.09765625 C7.90692139 123.10289307 6.83337402 123.10812988 5.72729492 123.11352539 C3 123 3 123 0 122 C0 81.74 0 41.48 0 0 Z " fill="#00ACC1" transform="translate(363,199)"/>
<path d="M0 0 C10.56 0 21.12 0 32 0 C32.66 14.52 33.32 29.04 34 44 C44.89 44 55.78 44 67 44 C67.66 29.48 68.32 14.96 69 0 C79.56 0 90.12 0 101 0 C101 40.26 101 80.52 101 122 C90.44 122 79.88 122 69 122 C68.38776931 106.31158858 67.87340311 90.69801436 68 75 C56.45 75 44.9 75 33 75 C33.020625 79.0425 33.04125 83.085 33.0625 87.25 C33.09147982 98.86525441 32.74007193 110.40994498 32 122 C25.50277104 122.83027469 19.17170398 123.15426991 12.625 123.125 C11.29275391 123.13080078 11.29275391 123.13080078 9.93359375 123.13671875 C9.08152344 123.13542969 8.22945312 123.13414062 7.3515625 123.1328125 C6.58666504 123.13168457 5.82176758 123.13055664 5.03369141 123.12939453 C3 123 3 123 0 122 C0 81.74 0 41.48 0 0 Z " fill="#00ABC1" transform="translate(31,199)"/>
<path d="M0 0 C26.07 0 52.14 0 79 0 C79.33 8.91 79.66 17.82 80 27 C73.80978117 27.68780209 67.98668668 28.13828934 61.80859375 28.09765625 C60.97787857 28.0962413 60.14716339 28.09482635 59.29127502 28.09336853 C56.67331125 28.0878317 54.05543733 28.07529162 51.4375 28.0625 C49.64778771 28.05747681 47.85807405 28.05291535 46.06835938 28.04882812 C41.71220567 28.03788308 37.356118 28.02066319 33 28 C33.14021805 30.64624284 33.28689776 33.29184578 33.4375 35.9375 C33.47681641 36.69224609 33.51613281 37.44699219 33.55664062 38.22460938 C33.44038024 41.91944187 33.44038024 41.91944187 35 45 C37.80976518 45.16017166 40.59773596 45.25950534 43.41015625 45.31640625 C44.67320839 45.3475779 44.67320839 45.3475779 45.96177673 45.37937927 C48.66193179 45.44496812 51.36218717 45.50380276 54.0625 45.5625 C55.88868241 45.60567637 57.71485454 45.64929036 59.54101562 45.69335938 C64.02723992 45.80065894 68.5135655 45.90189966 73 46 C73.02929977 49.35414799 73.0468989 52.70826253 73.0625 56.0625 C73.07087891 57.00544922 73.07925781 57.94839844 73.08789062 58.91992188 C73.09111328 59.84482422 73.09433594 60.76972656 73.09765625 61.72265625 C73.10289307 62.56578369 73.10812988 63.40891113 73.11352539 64.27758789 C72.97761754 67.53674589 72.46131512 70.77079419 72 74 C59.13 74 46.26 74 33 74 C33 80.6 33 87.2 33 94 C48.84 94.33 64.68 94.66 81 95 C81 103.91 81 112.82 81 122 C64.29930345 122.87898403 47.65894261 123.11123028 30.9375 123.125 C29.33310059 123.12874634 29.33310059 123.12874634 27.69628906 123.13256836 C24.59827499 123.13849871 21.50035911 123.13694965 18.40234375 123.1328125 C17.00815468 123.13578842 17.00815468 123.13578842 15.58580017 123.13882446 C14.26510277 123.13415665 14.26510277 123.13415665 12.91772461 123.12939453 C12.15817978 123.12859894 11.39863495 123.12780334 10.61607361 123.12698364 C7.06168331 122.95445431 3.53109535 122.44138692 0 122 C0 81.74 0 41.48 0 0 Z " fill="#00ABC1" transform="translate(158,199)"/>
<path d="M0 0 C10.89 0 21.78 0 33 0 C33 31.02 33 62.04 33 94 C48.18 94.33 63.36 94.66 79 95 C79 103.91 79 112.82 79 122 C62.63236585 122.85026671 46.32348026 123.11088549 29.9375 123.125 C28.40485504 123.12874634 28.40485504 123.12874634 26.84124756 123.13256836 C23.88241248 123.13849943 20.92368018 123.13695009 17.96484375 123.1328125 C16.63629112 123.13578842 16.63629112 123.13578842 15.28089905 123.13882446 C14.02024879 123.13415665 14.02024879 123.13415665 12.73413086 123.12939453 C11.64810829 123.12820114 11.64810829 123.12820114 10.54014587 123.12698364 C7.01114444 122.95056643 3.50612287 122.43826536 0 122 C0 81.74 0 41.48 0 0 Z " fill="#00ABC0" transform="translate(263,199)"/>
</svg>
