<?xml version="1.0" encoding="UTF-8"?>
<svg version="1.1" xmlns="http://www.w3.org/2000/svg" width="1793" height="2055">
<path d="M0 0 C14.30492931 10.29838215 27.5193904 25.12708497 37.82617188 39.37744141 C39.00671101 41.0092765 40.21211948 42.6202123 41.421875 44.23046875 C77.21142893 92.44278402 95.90440745 149.26007931 110.21417236 206.83850098 C111.03578784 210.14397968 111.86144597 213.44843557 112.68701172 216.75292969 C133.88922287 301.83283833 151.41111546 387.79198116 201.00218582 671.7265358 C201.49610116 674.91235198 201.99140112 678.09795085 202.48678589 681.28353882 C203.26136147 686.27073952 204.02969608 691.25886388 204.79284477 696.24782562 C205.07159688 698.06700153 205.3517994 699.88595592 205.63362312 701.70465851 C207.14341065 711.46497471 208.45147637 721.12996487 209 731 C207.70707031 731.23074219 206.41414063 731.46148438 205.08203125 731.69921875 C194.91786538 733.57788023 185.42422767 735.63267498 176 740 C175.04867188 740.44085937 174.09734375 740.88171875 173.1171875 741.3359375 C159.22379413 748.34068458 148.01159265 760.16715435 143 775 C137.85537536 794.43413328 139.82960177 811.69414224 149.88964844 829.19140625 C152.77391542 833.88943831 156.28860226 837.94538523 160 842 C160.99741494 843.10545151 161.99480978 844.21092116 162.9921875 845.31640625 C167.1203716 849.8579901 171.28071747 854.35113666 175.6875 858.625 C190.73129676 873.44971234 202.66846937 892.22343448 210 912 C210.23928223 912.6388916 210.47856445 913.2777832 210.72509766 913.93603516 C214.64383272 924.75634499 216.78077127 935.85992733 218.70349312 947.17098618 C222.29665499 968.19027829 226.7753016 988.974012 231.47503662 1009.76922607 C232.26514878 1013.27387631 233.04755742 1016.78022675 233.82976723 1020.2866478 C239.34914192 1045.04144305 239.34914192 1045.04144305 245.3217926 1069.69003296 C245.54616501 1070.59621368 245.77053741 1071.50239441 246.00170898 1072.43603516 C246.29343239 1073.58949936 246.29343239 1073.58949936 246.59104919 1074.76626587 C247.04005138 1077.218765 247.07008911 1079.51206793 247 1082 C227.87517137 1084.54947667 208.70586939 1086.50446577 189.5 1088.3125 C188.71025284 1088.38707176 187.92050568 1088.46164352 187.10682678 1088.53847504 C100.472922 1096.71147979 13.60075587 1101.93679766 -162.9375 1108.6875 C-163.98832134 1108.71824867 -165.03914268 1108.74899734 -166.1218071 1108.7806778 C-167.15297276 1108.8107769 -168.18413841 1108.84087601 -169.24655151 1108.87188721 C-170.14117033 1108.89800709 -171.03578915 1108.92412697 -171.95751762 1108.95103836 C-220.70372113 1110.34419569 -269.43065758 1111.16212403 -318.19737434 1111.16725707 C-322.11727658 1111.16798472 -326.03717561 1111.17014998 -329.95707703 1111.17275429 C-343.11789736 1111.18149619 -356.2787098 1111.18618517 -369.43953305 1111.18542381 C-370.13785629 1111.18538386 -370.83617952 1111.1853439 -371.55566406 1111.18530273 C-372.25493253 1111.18526185 -372.95420101 1111.18522097 -373.67465943 1111.18517885 C-384.19295018 1111.18480139 -394.71121022 1111.19261084 -405.22949219 1111.20581055 C-481.41976046 1111.29959886 -557.53750344 1110.60714367 -633.69702148 1108.29418945 C-634.6103657 1108.26645805 -635.52370991 1108.23872664 -636.46473122 1108.21015489 C-723.99668297 1105.53883586 -811.50057928 1101.22226016 -906.67868042 1094.00884247 C-909.23105502 1093.81394661 -911.78359716 1093.62138571 -914.33618164 1093.42926025 C-918.30726574 1093.12945873 -922.27759712 1092.82112867 -926.24747467 1092.5057621 C-927.69828334 1092.39148731 -929.14928652 1092.27965138 -930.60048676 1092.17046165 C-932.58480836 1092.02042544 -934.56831342 1091.85970498 -936.55175781 1091.69848633 C-937.65900208 1091.61141922 -938.76624634 1091.52435211 -939.90704346 1091.43464661 C-947.99520123 1090.29803499 -947.99520123 1090.29803499 -950.37986755 1087.21743774 C-950.67659866 1086.49551239 -950.97332977 1085.77358704 -951.27905273 1085.02978516 C-951.63119843 1084.20371262 -951.98334412 1083.37764008 -952.34616089 1082.52653503 C-952.70501373 1081.6231691 -953.06386658 1080.71980316 -953.43359375 1079.7890625 C-953.82805695 1078.84706497 -954.22252014 1077.90506744 -954.62893677 1076.93452454 C-955.9192491 1073.83951583 -957.17824354 1070.73275851 -958.4375 1067.625 C-959.33187312 1065.46343309 -960.22829539 1063.30271296 -961.12670898 1061.14282227 C-962.93169395 1056.79439122 -964.72473634 1052.44135545 -966.50683594 1048.08349609 C-968.6379822 1042.87424148 -970.79648852 1037.67722449 -972.9765625 1032.48828125 C-975.71048926 1025.97639639 -978.4256283 1019.45703364 -981.12741089 1012.93174744 C-983.12562184 1008.10639825 -985.13069984 1003.28396704 -987.13989258 998.46318054 C-1020.22662512 919.04035373 -1051.68275786 838.89026176 -1081 758 C-1081.35878235 757.01064453 -1081.7175647 756.02128906 -1082.08721924 755.00195312 C-1104.23033598 693.88206577 -1126.06240908 631.82599479 -1139 568 C-1139.26173004 566.71690948 -1139.26173004 566.71690948 -1139.52874756 565.40789795 C-1148.11089477 523.25443793 -1155.32429392 480.8848004 -1159 438 C-1159.103125 436.81559326 -1159.20625 435.63118652 -1159.3125 434.41088867 C-1160.19412715 422.97256361 -1160.24338393 411.52960463 -1160.25 400.0625 C-1160.25067474 399.00575073 -1160.25134949 397.94900146 -1160.25204468 396.86022949 C-1160.21138501 356.56384249 -1154.62990984 317.78864621 -1141.5625 279.5625 C-1141.32289551 278.85544922 -1141.08329102 278.14839844 -1140.83642578 277.41992188 C-1137.7503728 268.73905248 -1133.78596421 260.39169919 -1130 252 C-1128.84854492 252.08040527 -1127.69708984 252.16081055 -1126.51074219 252.24365234 C-1072.61578463 255.97447288 -1018.8235607 257.32803801 -964.81640625 257.8515625 C-964.00185219 257.85950333 -963.18729813 257.86744415 -962.34806061 257.87562561 C-960.77295432 257.89070157 -959.19784387 257.90535054 -957.6227293 257.91953468 C-956.13760328 257.9329378 -954.65248538 257.94728074 -953.16737843 257.96265221 C-949.84994574 257.99345896 -946.5404038 257.99290401 -943.22276306 257.94168091 C-942.08319656 257.92451019 -940.94363007 257.90733948 -939.76953125 257.88964844 C-938.79483887 257.86610291 -937.82014648 257.84255737 -936.81591797 257.81829834 C-931.30595029 258.17383791 -926.45232718 260.45568342 -921.4375 262.625 C-919.60793706 263.37802171 -917.77833819 264.13096054 -915.94755554 264.88101196 C-913.98939019 265.68586934 -912.03513515 266.49973433 -910.08105469 267.31445312 C-902.95061143 270.27396766 -895.75648319 273.07434461 -888.5625 275.875 C-887.43402145 276.31462067 -887.43402145 276.31462067 -886.28274536 276.76312256 C-847.39405903 291.88113103 -808.04123591 305.14433878 -767 313 C-766.01209473 313.19207031 -765.02418945 313.38414062 -764.00634766 313.58203125 C-735.80475463 318.85504989 -702.98487417 319.86599689 -678 304 C-667.5308763 296.61245805 -661.06856622 286.46012297 -658.4296875 273.93359375 C-657.41073315 266.97691452 -657.82161328 260.5669481 -659.01953125 253.65625 C-659.20233643 252.59212891 -659.3851416 251.52800781 -659.57348633 250.43164062 C-659.7846106 249.22797852 -659.7846106 249.22797852 -660 248 C-658.87319824 247.90501221 -657.74639648 247.81002441 -656.58544922 247.7121582 C-628.41778089 245.46922845 -628.41778089 245.46922845 -600.76171875 239.953125 C-597 239 -597 239 -593 239 C-591.39453125 240.46875 -591.39453125 240.46875 -589.8125 242.5 C-576.69643644 258.21713945 -558.58654673 267.15335261 -538.359375 269.71875 C-499.95612478 272.93390583 -466.1907451 256.81631866 -437.375 232.5 C-432.60023968 228.43350168 -427.91357231 224.27435702 -423.2734375 220.0546875 C-421.14454691 218.13063862 -418.98580858 216.24854188 -416.8125 214.375 C-413.68668726 211.65635725 -410.76733 208.79254767 -407.86816406 205.83569336 C-406.09622459 204.0945521 -404.27018191 202.48069532 -402.37890625 200.87109375 C-397.51937176 196.64429368 -392.97914001 192.12588768 -388.4375 187.5625 C-387.62603516 186.75490234 -386.81457031 185.94730469 -385.97851562 185.11523438 C-381.68987365 180.81966965 -377.577074 176.44335039 -373.61938477 171.84204102 C-371.1193433 168.99825798 -368.44886764 166.34115465 -365.75 163.6875 C-365.234375 163.17638672 -364.71875 162.66527344 -364.1875 162.13867188 C-362.79350773 160.75725428 -361.39687874 159.37849875 -360 158 C-359.53881775 157.49027145 -359.0776355 156.98054291 -358.60247803 156.45536804 C-356.72436004 154.74966422 -355.04732891 154.00486641 -352.68847656 153.07739258 C-351.81203491 152.72822281 -350.93559326 152.37905304 -350.03259277 152.01930237 C-349.07824341 151.6481279 -348.12389404 151.27695343 -347.140625 150.89453125 C-346.14115845 150.49842148 -345.14169189 150.10231171 -344.11193848 149.69419861 C-341.95464419 148.84004301 -339.79597795 147.98934616 -337.6361084 147.14172363 C-333.06509134 145.34736173 -328.50110334 143.53545871 -323.93682861 141.72402954 C-321.61808795 140.80379299 -319.2990348 139.88434344 -316.97967529 138.96566772 C-306.87529263 134.96100105 -296.8022906 130.88352654 -286.75 126.75 C-285.97042938 126.42959747 -285.19085876 126.10919495 -284.38766479 125.77908325 C-205.35293857 93.26713363 -126.90231872 59.02826524 -23.484375 8.66796875 C-22.67235626 8.2697139 -21.86033752 7.87145905 -21.02371216 7.46113586 C-20.24470551 7.07846054 -19.46569885 6.69578522 -18.66308594 6.30151367 C-17.90443237 5.93182465 -17.14577881 5.56213562 -16.36413574 5.1812439 C-14.67170502 4.3356184 -12.99450036 3.4592459 -11.32824707 2.56314087 C-10.00609192 1.86153336 -10.00609192 1.86153336 -8.65722656 1.14575195 C-7.46302094 0.49543755 -7.46302094 0.49543755 -6.24468994 -0.16801453 C-3.64095095 -1.13308012 -2.5519095 -1.00176843 0 0 Z M-441.21826172 268.015625 C-475.07177864 305.71929526 -486.90626784 352.37539076 -485 402 C-482.26351141 443.92644229 -459.14863204 486.78854332 -428.1875 514.5625 C-426.80356938 515.72268135 -425.4063204 516.86706238 -424 518 C-423.06800781 518.75796875 -422.13601563 519.5159375 -421.17578125 520.296875 C-383.70681959 550.24256442 -337.97863187 562.85526968 -290.390625 558.68359375 C-283.50981586 557.84387415 -276.74964082 556.56950262 -270 555 C-269.23381348 554.82339844 -268.46762695 554.64679688 -267.67822266 554.46484375 C-224.54140859 544.07738351 -185.91005871 514.71896164 -162.34960938 477.43164062 C-138.32468742 437.95907792 -129.75193557 390.58817774 -140.25 345.4375 C-149.65627517 307.0721876 -171.00794726 270.85023019 -203 247 C-203.51997559 246.60506348 -204.03995117 246.21012695 -204.57568359 245.80322266 C-274.46151965 192.90939867 -371.0458008 200.47812488 -441.21826172 268.015625 Z M-938 358 C-939.06863281 358.57621094 -940.13726563 359.15242188 -941.23828125 359.74609375 C-981.0503414 382.10487721 -1009.43505054 420.83679692 -1022.25683594 464.2578125 C-1034.46861209 509.31782226 -1028.12722184 556.75036157 -1005.5625 597.4375 C-998.56578713 609.59809117 -990.31989947 620.33709136 -980.55322266 630.39111328 C-979.0084275 631.99127048 -977.49381433 633.61622399 -975.98046875 635.24609375 C-944.74179134 668.32000625 -899.69258 684.47647215 -855 686 C-806.12625755 686.78871497 -761.71110983 665.34882137 -727 632 C-724.51748731 629.44070857 -722.23813424 626.77450628 -720 624 C-719.25363281 623.09121094 -718.50726562 622.18242188 -717.73828125 621.24609375 C-688.0418903 583.99740243 -674.62572907 537.66041288 -679.49609375 490.2578125 C-683.52875074 458.72783599 -695.77082852 427.634358 -716 403 C-716.50595703 402.3827002 -717.01191406 401.76540039 -717.53320312 401.12939453 C-748.19981725 364.0311516 -790.99501117 341.08683813 -839 336.3125 C-873.89955235 334.03334556 -907.25715499 341.34235421 -938 358 Z M-471 607 C-470.85997559 607.5873291 -470.71995117 608.1746582 -470.57568359 608.77978516 C-467.87438876 620.44240469 -468.38066848 629.78637594 -474.35546875 640.41015625 C-475.81439874 642.69046774 -477.35697038 644.84898054 -479 647 C-479.51304687 647.67804687 -480.02609375 648.35609375 -480.5546875 649.0546875 C-498.88759867 671.59802803 -533.23105521 681.80236393 -561 685 C-588.23414898 687.59514892 -618.31506157 686.02458911 -641 669 C-641.81984375 668.40832031 -642.6396875 667.81664062 -643.484375 667.20703125 C-646.38984476 664.65797781 -648.22894609 661.99893152 -650.3125 658.75 C-651.00988281 657.67234375 -651.70726562 656.5946875 -652.42578125 655.484375 C-652.94527344 654.66453125 -653.46476562 653.8446875 -654 653 C-685.56872648 660.44880063 -716.12326805 676.29655991 -741 697 C-741.5057959 697.42071777 -742.0115918 697.84143555 -742.53271484 698.27490234 C-760.0843898 713.06901291 -773.23898221 732.1552233 -776.75 755.1875 C-778.16594882 776.78071956 -772.58631627 794.32306679 -758.68359375 810.734375 C-742.7182355 827.67290995 -719.10208218 837.07107012 -696 838 C-695.24203125 838.03996094 -694.4840625 838.07992187 -693.703125 838.12109375 C-667.88208348 838.8383449 -647.87633722 827.50788704 -626.93359375 814.13671875 C-593.22243433 792.64543864 -555.17324381 770.39796726 -513.94287109 770.8046875 C-512.80270035 770.80760803 -511.6625296 770.81052856 -510.48780823 770.8135376 C-508.03093075 770.8210998 -505.5740639 770.83327944 -503.11722946 770.84967041 C-499.20253064 770.87546726 -495.28796947 770.88829974 -491.37319946 770.89794922 C-482.33970791 770.92187968 -473.30633498 770.96568584 -464.27292633 771.01040649 C-456.01904429 771.051144 -447.76520726 771.08723857 -439.51124442 771.10683632 C-435.03613631 771.11812923 -430.56128755 771.14513843 -426.08627319 771.17529297 C-406.02845596 771.25958816 -385.49854655 771.02460522 -365.8125 766.75 C-364.78334473 766.53311523 -363.75418945 766.31623047 -362.69384766 766.09277344 C-339.47655625 760.95772362 -318.24793372 748.69603825 -304.70703125 728.76953125 C-297.61243469 717.25907597 -292.59643865 704.64029266 -292 691 C-291.96003906 690.32195312 -291.92007812 689.64390625 -291.87890625 688.9453125 C-291.39513416 673.40769138 -295.44342228 660.09364463 -305.625 648.1875 C-334.4999993 618.48501203 -381.73188008 611.21324415 -421 608 C-421.67498535 607.94215332 -422.3499707 607.88430664 -423.04541016 607.82470703 C-438.98208875 606.51702242 -455.02363234 606.90439478 -471 607 Z M-529 792 C-530.09821914 795.29465743 -529.90078985 796.47795849 -529.21484375 799.8046875 C-529.01721436 800.77011475 -528.81958496 801.73554199 -528.6159668 802.73022461 C-528.39207275 803.76800049 -528.16817871 804.80577637 -527.9375 805.875 C-527.70780518 806.94693604 -527.47811035 808.01887207 -527.24145508 809.12329102 C-524.21759625 822.91424353 -520.93406643 836.51194235 -515 849.375 C-514.69215576 850.046521 -514.38431152 850.71804199 -514.06713867 851.40991211 C-510.65881388 858.37759138 -506.39072372 864.10797767 -499 867 C-490.46147676 869.65768604 -480.61258263 868.75358267 -472.46875 865.31640625 C-464.58057433 861.11021131 -460.00345658 855.38061272 -457 847 C-453.99066142 836.8284356 -455.14775431 826.40984167 -456 816 C-456.07798828 815.0291748 -456.15597656 814.05834961 -456.23632812 813.05810547 C-456.63270685 808.21495045 -457.04946162 803.37358514 -457.5 798.53515625 C-457.60828125 797.36545288 -457.60828125 797.36545288 -457.71875 796.17211914 C-457.99333036 794.0515102 -458.46493755 792.06766368 -459 790 C-466.50263439 789.95337976 -474.00525351 789.9179815 -481.50800037 789.89637566 C-484.99293497 789.88599882 -488.47776947 789.87195319 -491.96264648 789.84912109 C-495.98161709 789.82295862 -500.0004848 789.81347688 -504.01953125 789.8046875 C-505.25331009 789.79436493 -506.48708893 789.78404236 -507.758255 789.77340698 C-515.06128293 789.77247237 -521.87039176 790.39652704 -529 792 Z M-563.5234375 803.2890625 C-564.61688477 803.81242187 -565.71033203 804.33578125 -566.83691406 804.875 C-568.00448242 805.4525 -569.17205078 806.03 -570.375 806.625 C-570.97115112 806.91600586 -571.56730225 807.20701172 -572.18151855 807.50683594 C-586.70352613 814.60031172 -600.96065033 822.41431592 -614 832 C-612.55404629 845.66278712 -606.82668087 859.46748867 -598 870 C-597.45730469 870.65355469 -596.91460938 871.30710937 -596.35546875 871.98046875 C-590.78835196 878.0951708 -583.08986097 882.44443374 -574.7734375 883.203125 C-565.3558382 883.38718232 -557.65185032 881.6682795 -550.69140625 875.03125 C-542.78050763 865.53086367 -543.17883182 852.68430589 -544 841 C-545.25967014 830.56624444 -548.0005726 820.36430008 -551 810.3125 C-551.2367041 809.49209229 -551.4734082 808.67168457 -551.71728516 807.82641602 C-552.47236346 805.29847598 -552.47236346 805.29847598 -554 802 C-557.65309185 800.19686481 -560.03864235 801.61119817 -563.5234375 803.2890625 Z " fill="#5FCFE3" transform="translate(1310,583)"/>
<path d="M0 0 C0.85436646 0.00248749 1.70873291 0.00497498 2.58898926 0.00753784 C18.70917494 0.07953301 34.52105527 1.05725199 50.5 3.3125 C51.26127197 3.41949219 52.02254395 3.52648437 52.80688477 3.63671875 C125.43749658 13.94661909 196.36846865 33.86560492 266.02191162 56.50708008 C267.71274601 57.05662936 269.40388073 57.60525524 271.09527588 58.15307617 C309.7891029 70.68673652 348.5245482 83.79616466 385.79394531 100.16821289 C388.45975482 101.33646469 388.45975482 101.33646469 391.12011719 102.18920898 C394.49986251 103.3894764 396.8117386 104.22608393 398.77368164 107.32299805 C399.76436463 109.77724191 400.47550208 112.1850666 401.125 114.75 C401.37894531 115.59626953 401.63289062 116.44253906 401.89453125 117.31445312 C404.14924973 125.26825284 404.14924973 125.26825284 402.5 129.3125 C400.75 131.64453125 400.75 131.64453125 398.5 134.125 C375.75544172 161.12965014 370.58261056 197.25867674 369.5 231.3125 C290.57739882 267.48355501 207.55335639 296.80954594 -321.5 338.3125 C-322.39202857 319.41620331 -322.61018749 300.54007281 -322.625 281.625 C-322.62749756 280.5053183 -322.62999512 279.3856366 -322.63256836 278.23202515 C-322.63851289 274.98407986 -322.63694567 271.73622781 -322.6328125 268.48828125 C-322.63479645 267.52455597 -322.6367804 266.56083069 -322.63882446 265.56790161 C-322.53957843 236.0879762 -302.31225614 215.40231384 -283.90917969 193.95996094 C-282.47597461 192.2844121 -281.05350262 190.60023026 -279.6328125 188.9140625 C-272.81320053 180.84748778 -265.71134448 173.09070109 -258.45776367 165.41381836 C-257.03842887 163.89040963 -255.63423161 162.35285198 -254.23950195 160.80688477 C-246.47789328 152.2157574 -238.35310977 144.01287277 -230.15600586 135.83813477 C-227.802707 133.49022944 -225.4548461 131.13698032 -223.10742188 128.78320312 C-221.58886242 127.26530403 -220.06999304 125.74771494 -218.55078125 124.23046875 C-217.86099686 123.53866013 -217.17121246 122.8468515 -216.46052551 122.13407898 C-212.533258 118.22543779 -208.50780996 114.48977515 -204.30456543 110.87895203 C-201.35290769 108.31676716 -198.53026997 105.61903334 -195.6875 102.9375 C-190.74385388 98.31103326 -185.6909794 93.91605546 -180.40234375 89.68359375 C-176.90477763 86.82622816 -173.51980288 83.85291988 -170.125 80.875 C-164.03789048 75.56529325 -157.81898218 70.51424631 -151.34179688 65.68603516 C-150.03314764 64.71009924 -148.7274593 63.73018746 -147.42382812 62.74755859 C-103.73336793 29.8260091 -56.3737977 -0.26396357 0 0 Z " fill="#628A18" transform="translate(592.5,195.6875)"/>
<path d="M0 0 C1.31047487 2.46381134 2.4822871 4.89807444 3.625 7.4375 C9.05793467 18.79784587 15.94794047 27.34212495 28 32 C32.63268047 33.2483555 37.26835448 34.21254367 42 35 C40.47755721 42.94578287 37.8882633 50.34456805 35.125 57.9375 C34.69058594 59.14857422 34.25617187 60.35964844 33.80859375 61.60742188 C32.95172671 63.98374833 32.07863227 66.35429542 31.18823242 68.71826172 C29.98250826 71.90888813 29.98250826 71.90888813 29.2121582 74.89501953 C28.03818492 78.82887919 27.0397395 81.24377642 23.6640625 83.69897461 C20.48131157 85.34014785 17.2691146 86.68661205 13.9375 88 C12.65680832 88.53437935 11.37746885 89.07200872 10.09936523 89.61254883 C7.27920831 90.79827121 4.45113535 91.96186332 1.61621094 93.11181641 C-3.2355046 95.08557837 -8.05140687 97.13965345 -12.8671875 99.19921875 C-104.89684258 138.43837993 -199.72115216 171.32770414 -463.8125 220.75 C-464.54338837 220.80925659 -465.27427673 220.86851318 -466.02731323 220.92956543 C-471.01572181 221.32705497 -476.00625731 221.67688247 -481 222 C-481.72381866 222.0483902 -482.44763733 222.0967804 -483.19338989 222.14663696 C-498.02727882 223.11064274 -512.86199794 223.18758893 -527.72241211 223.18530273 C-530.4295122 223.18522207 -533.13644089 223.19208787 -535.84350586 223.20581055 C-561.22516675 223.33212628 -586.48919456 222.36609232 -611.70019531 219.19506836 C-613.85374373 218.92446407 -616.00867563 218.66762778 -618.1640625 218.41210938 C-628.52332378 217.15889207 -628.52332378 217.15889207 -632 216 C-633.08398438 214.06420898 -633.08398438 214.06420898 -634.09375 211.49609375 C-634.47837402 210.54025391 -634.86299805 209.58441406 -635.25927734 208.59960938 C-635.66871582 207.55611328 -636.0781543 206.51261719 -636.5 205.4375 C-637.39504368 203.22648769 -638.29358192 201.01688734 -639.1953125 198.80859375 C-639.6584082 197.67405762 -640.12150391 196.53952148 -640.59863281 195.37060547 C-644.44501882 186.11917598 -648.7074946 177.05110498 -653 168 C-653.46100098 167.02595215 -653.92200195 166.0519043 -654.39697266 165.04833984 C-661.86387512 149.3951151 -670.38653194 134.53906789 -679.36328125 119.72216797 C-681.29496726 116.50941454 -683.16243422 113.26730446 -685 110 C-678.94348257 111.03486492 -672.93420211 112.21073157 -666.9375 113.55078125 C-647.45431578 117.89764679 -627.98884598 121.3912484 -608.16149902 123.74285889 C-606.75788236 123.90983909 -605.35461512 124.07979325 -603.95178223 124.25323486 C-555.55790424 130.23126742 -503.81813293 129.46006967 -455.37438965 124.25323486 C-452.87446058 123.98661089 -450.37347218 123.73239455 -447.87207031 123.47998047 C-350.38588006 113.55712756 -255.0463544 89.85339921 -10.85791016 2.19824219 C-9.44324463 1.6051123 -9.44324463 1.6051123 -8 1 C-7.11231934 0.5968457 -6.22463867 0.19369141 -5.31005859 -0.22167969 C-3 -1 -3 -1 0 0 Z " fill="#E0CAA1" transform="translate(968,454)"/>
<path d="M0 0 C-0.92619141 0.89138672 -0.92619141 0.89138672 -1.87109375 1.80078125 C-7.15979611 6.97678676 -11.97236693 12.2477643 -16.59765625 18.02734375 C-19.27680187 21.34251419 -22.03185103 24.58249386 -24.8125 27.8125 C-25.31676514 28.39837891 -25.82103027 28.98425781 -26.34057617 29.58789062 C-27.37297337 30.78682458 -28.4056088 31.98555343 -29.43847656 33.18408203 C-31.0025853 35.00300648 -32.56081076 36.82680079 -34.1171875 38.65234375 C-39.33124768 44.7648393 -44.58954357 50.82222576 -49.98828125 56.7734375 C-51.84734669 58.83104391 -53.67928358 60.90846763 -55.5 63 C-59.61083811 67.71704465 -63.80817189 72.35500129 -68 77 C-68.721875 77.804375 -69.44375 78.60875 -70.1875 79.4375 C-75.59389626 85.46177012 -81.04775683 91.44126459 -86.52783203 97.3984375 C-88.06072359 99.06606082 -89.59093295 100.736121 -91.12109375 102.40625 C-95.76014792 107.46074185 -100.40767244 112.48127873 -105.31309509 117.28065491 C-107.03638152 119.03708116 -108.63628667 120.85942899 -110.23657227 122.72827148 C-113.80462213 126.82767694 -117.55445236 130.6994593 -121.40234375 134.53515625 C-122.08373917 135.21750839 -122.76513458 135.89986053 -123.46717834 136.60289001 C-124.89705741 138.03344437 -126.32817911 139.46275767 -127.76049805 140.89086914 C-129.93197711 143.05699074 -132.09806325 145.22840174 -134.26367188 147.40039062 C-135.66374202 148.79979987 -137.06412238 150.19889884 -138.46484375 151.59765625 C-139.10155502 152.23639175 -139.7382663 152.87512726 -140.39427185 153.53321838 C-144.20132903 157.32084056 -148.11937859 160.92741098 -152.18760681 164.43334961 C-153.9317206 165.94097862 -155.64556765 167.47683497 -157.3515625 169.02734375 C-166.1834858 176.93863664 -176.89908449 186.27958704 -189 188.21484375 C-192.37040996 187.85278799 -194.33389377 185.91029021 -196.82421875 183.734375 C-206.66658098 175.88875771 -218.90682801 174.94816434 -231 176 C-242.82575805 178.30407962 -253.15182566 184.56985464 -260.28125 194.28515625 C-266.45454595 204.03615781 -268.04280393 213.74223127 -269 225 C-271.30911836 225.64021317 -273.62120562 226.26167135 -275.9375 226.875 C-276.55818359 227.04902344 -277.17886719 227.22304688 -277.81835938 227.40234375 C-291.24825944 230.90579594 -305.60365043 231.393112 -319.39575195 232.43261719 C-321.96024888 232.62672184 -324.52404883 232.82869408 -327.08789062 233.03125 C-349.94217055 234.80405347 -349.94217055 234.80405347 -357.2109375 231.734375 C-366.67823725 227.84823449 -377.63272619 230.00576878 -387 233 C-387.94383545 233.51530273 -387.94383545 233.51530273 -388.90673828 234.04101562 C-416.99896647 246.91088644 -477.18183791 217.21204662 -504.76806641 206.97900391 C-517.83438235 202.07324479 -530.77151517 196.82259503 -543.734375 191.65161133 C-560.06032607 185.141395 -576.39476901 178.76938936 -593 173 C-593.68416992 172.76212769 -594.36833984 172.52425537 -595.07324219 172.2791748 C-615.0915421 165.33260958 -635.17080912 158.98946503 -655.68212891 153.6574707 C-658 153 -658 153 -660 152 C-660 151.34 -660 150.68 -660 150 C-655.64256259 148.2845513 -651.28260221 146.57574351 -646.92016602 144.87304688 C-645.43637963 144.29283691 -643.95329996 143.71081624 -642.47094727 143.12695312 C-640.34053675 142.28819759 -638.20767237 141.45597944 -636.07421875 140.625 C-635.0803138 140.23127197 -635.0803138 140.23127197 -634.06632996 139.82958984 C-631.21427766 138.72516638 -629.08890086 138 -626 138 C-626.2165625 137.31292969 -626.433125 136.62585938 -626.65625 135.91796875 C-626.9346875 135.01691406 -627.213125 134.11585938 -627.5 133.1875 C-627.7784375 132.29417969 -628.056875 131.40085937 -628.34375 130.48046875 C-629 128 -629 128 -629 125 C-618.48612043 125.54283617 -608.00367835 126.28591839 -597.51953125 127.25146484 C-578.87280659 128.89695424 -560.2090948 129.20573021 -541.5 129.1875 C-540.34325775 129.18689575 -539.1865155 129.1862915 -537.99472046 129.18566895 C-517.60176332 129.1569551 -497.32974885 128.60968372 -477 127 C-476.19743774 126.93683594 -475.39487549 126.87367188 -474.56799316 126.80859375 C-377.94024499 119.1104495 -282.90834484 98.01237202 -22.58984375 7.36328125 C-21.59714729 6.9321125 -21.59714729 6.9321125 -20.58439636 6.49223328 C-17.49373706 5.14802477 -14.41000758 3.79185138 -11.33374023 2.41479492 C-10.27227783 1.9479126 -9.21081543 1.48103027 -8.1171875 1 C-7.19534668 0.5875 -6.27350586 0.175 -5.32373047 -0.25 C-3 -1 -3 -1 0 0 Z " fill="#628A18" transform="translate(976,573)"/>
<path d="M0 0 C5.81652894 4.13619836 8.01996249 9.63919869 9.41992188 16.45214844 C17.43482524 68.46927002 -5.94042055 142.49643761 -34.1875 186 C-21.10162344 180.58387804 -21.10162344 180.58387804 -9.1875 173 C-8.135625 172.2575 -7.08375 171.515 -6 170.75 C-0.91071377 165.77380902 2.30662505 159.61929231 4.8125 153 C9.47260103 157.66010103 7.93143397 167.36614922 7.9453125 173.53515625 C7.80928049 177.0839913 7.37499625 180.49555905 6.8125 184 C15.71258383 176.3678396 24.50032103 168.64727049 33.06005859 160.63476562 C34.98717504 158.83705432 36.92493524 157.05121968 38.86328125 155.265625 C46.21984586 148.4657919 53.29153364 141.61935608 59.8125 134 C60.77458874 132.92187876 61.73823764 131.84514853 62.703125 130.76953125 C71.65123606 120.70361378 79.95972842 110.33393092 84.05859375 97.3046875 C84.79100538 95.06570894 85.70730548 93.07642607 86.8125 91 C92.21071429 105.85042349 95.09640166 120.19645047 95.8125 136 C103.95648518 129.00195809 112.04440822 121.96621003 119.921875 114.66796875 C121.8550828 112.8836702 123.80322566 111.11542352 125.765625 109.36328125 C150.70805682 87.3949494 150.70805682 87.3949494 163.8125 58 C164.4725 58.33 165.1325 58.66 165.8125 59 C167.42558062 111.51473564 149.08026355 162.13658908 113.20996094 200.45776367 C95.27173891 219.27559305 73.47800449 232.59280988 49.8125 243 C59.79495597 242.32581856 69.57886777 240.88604024 79.44921875 239.28515625 C80.60035156 239.10597656 81.75148438 238.92679688 82.9375 238.7421875 C83.97132813 238.5757373 85.00515625 238.40928711 86.0703125 238.23779297 C88.65906649 238.01330522 90.37080375 238.18293717 92.8125 239 C84.97990121 249.65864634 76.82030199 259.96821161 68.35888672 270.13330078 C64.05641186 275.32697346 59.83790085 280.58820731 55.8125 286 C52.12746753 285.40224964 49.20952995 284.34705805 45.875 282.6875 C21.50322222 271.29418925 -7.01933373 272.28937504 -31.9375 281.3125 C-67.40590144 295.97217849 -92.79426059 322.73886566 -115.1875 353 C-115.8475 352.67 -116.5075 352.34 -117.1875 352 C-117.79546369 349.82999097 -118.32169039 347.63696924 -118.8125 345.4375 C-122.40761292 330.85575026 -129.27157653 316.74236068 -142.3125 308.5625 C-151.55034705 303.24695194 -162.07691214 302.31978801 -172.39453125 304.7578125 C-175.077206 305.71081863 -177.61987364 306.77218513 -180.1875 308 C-180.99574219 308.3815625 -181.80398438 308.763125 -182.63671875 309.15625 C-184.50458131 310.06899261 -186.34931116 311.02888137 -188.1875 312 C-187.43575479 299.09916201 -186.19468584 286.26048927 -184.91699219 273.40283203 C-183.26533343 256.72708463 -182.00022145 240.15226487 -182.00219727 223.38745117 C-181.99998858 221.30171918 -181.98164508 219.21650049 -181.96289062 217.13085938 C-181.92735327 208.25081536 -182.67070741 199.76130337 -184.1875 191 C-173.72240635 192.53697227 -163.2748343 198.57252392 -156.66015625 206.9296875 C-155.45785851 208.58825889 -154.31590385 210.2902972 -153.1875 212 C-115.87244062 173.75838158 -98.869382 124.45967728 -97.1875 72 C-90.55944822 73.64720814 -87.73194794 75.27763826 -84.1875 81 C-83.40357545 83.06460655 -82.68037542 85.15304739 -82.01171875 87.2578125 C-81.66584717 88.33434082 -81.31997559 89.41086914 -80.96362305 90.52001953 C-80.70750244 91.33841309 -80.45138184 92.15680664 -80.1875 93 C-79.90140869 92.3922876 -79.61531738 91.7845752 -79.32055664 91.15844727 C-67.16919365 65.4026036 -54.64864136 39.91534863 -36.1875 18 C-35.49140625 17.14019531 -34.7953125 16.28039062 -34.078125 15.39453125 C-25.67515894 5.36138978 -13.68464769 -4.2932228 0 0 Z " fill="#E0CAA1" transform="translate(1194.1875,2)"/>
<path d="M0 0 C19.26365148 18.08903859 25.52683257 45.87850592 26.53491211 71.44116211 C26.67739212 76.49205917 26.69950384 81.54111896 26.6875 86.59375 C26.68662384 87.5037677 26.68574768 88.4137854 26.68484497 89.35137939 C26.55908104 129.38260423 22.93535995 206.08116981 -3.6875 237.78125 C-6.015625 238.3046875 -6.015625 238.3046875 -8.9375 238.15625 C-10.77022696 238.06790531 -12.60295615 237.97960638 -14.43569946 237.89160156 C-15.96313706 237.81674807 -17.49045989 237.73952196 -19.01766968 237.66015625 C-35.30660027 236.81706601 -51.56572081 236.57931062 -67.875 236.59375 C-69.1447467 236.59435425 -70.41449341 236.5949585 -71.72271729 236.59558105 C-118.07877958 236.65520674 -165.63582663 238.72691744 -210.51367188 251.34545898 C-218.12418269 253.41828718 -222.61637738 251.53778933 -229.6875 248.78125 C-228.22770882 239.567375 -225.32776257 230.80835052 -222.4375 221.96875 C-222.17661591 221.16734589 -221.91573181 220.36594177 -221.64694214 219.54025269 C-201.62008321 158.21965544 -175.9010255 94.73319392 -135.6875 43.78125 C-134.92050781 42.8015625 -134.15351562 41.821875 -133.36328125 40.8125 C-111.93250579 14.03364951 -84.97030404 -9.92657312 -49.64453125 -13.96484375 C-31.55050101 -15.12586247 -14.30869879 -11.81299551 0 0 Z " fill="#5FCFE3" transform="translate(1242.6875,315.21875)"/>
<path d="M0 0 C0.85722656 0.73347656 1.71445313 1.46695312 2.59765625 2.22265625 C3.40332031 2.90457031 4.20898438 3.58648438 5.0390625 4.2890625 C10.02695968 8.60177902 14.37552008 13.16848487 18.59765625 18.22265625 C19.34660156 19.07214844 20.09554688 19.92164063 20.8671875 20.796875 C52.83716951 57.70080699 69.04184226 106.68362894 66.59765625 155.22265625 C63.89424718 188.25641796 48.51630397 214.38107602 23.66650391 235.89453125 C19.74812273 239.15008634 15.70219381 242.20655864 11.59765625 245.22265625 C10.77394531 245.85300781 9.95023438 246.48335937 9.1015625 247.1328125 C-3.11153467 256.17421159 -18.05909966 265.04049444 -33.71484375 264.16015625 C-42.61105113 262.78045365 -48.84515293 258.18536225 -54.40234375 251.22265625 C-70.72100542 226.46755439 -76.24044399 197.18082515 -80.8359375 168.3671875 C-87.56133037 126.22673857 -99.8562384 90.94463758 -129.40234375 59.22265625 C-130.59474497 57.85190442 -131.78248258 56.47707762 -132.96484375 55.09765625 C-135.25213296 52.45968426 -137.6309728 50.011626 -140.15234375 47.59765625 C-150.66739104 37.18529497 -160.37638966 25.505093 -160.65234375 10.09765625 C-160.52064113 0.31215151 -158.10644208 -7.56367025 -151.40234375 -14.77734375 C-150.91121094 -15.30972656 -150.42007812 -15.84210938 -149.9140625 -16.390625 C-112.97182882 -51.8661695 -33.89695472 -28.43442389 0 0 Z " fill="#E0CAA1" transform="translate(1635.40234375,1368.77734375)"/>
<path d="M0 0 C2.23876682 -0.00450121 4.4775035 -0.01220429 6.716259 -0.02053452 C74.2720939 -0.23791786 74.2720939 -0.23791786 89.14988327 13.49542618 C91.86857466 18.28032303 92.24254622 22.53526484 91.18894577 27.92120743 C87.04153552 41.37175353 76.12105561 48.7291507 64.66160202 55.72198868 C63.59244553 56.37844376 63.59244553 56.37844376 62.50168991 57.04816055 C61.08906784 57.91119057 59.67047653 58.76454635 58.24534225 59.6067543 C53.71563786 62.35330703 49.83768454 65.05399797 47.99753952 70.27276993 C47.42941438 75.14668558 47.81098553 78.07466693 50.71238327 82.24542618 C54.61793177 86.50177244 59.41056909 89.31946095 64.33738327 92.24542618 C71.0317511 96.2804929 75.16314281 99.67462153 77.71238327 107.24542618 C78.42144344 114.00451919 78.40127913 120.3662484 74.71238327 126.24542618 C40.30140037 167.22409668 -75.50055137 163.21931174 -123.50279903 167.4145956 C-132.93260958 168.23433108 -142.36417614 169.03303733 -151.79651642 169.82308197 C-153.65527266 169.9787811 -155.51400457 170.13477097 -157.37271118 170.2910614 C-183.43598877 172.48215185 -209.36510878 174.46646913 -235.53761673 174.43292618 C-236.86558777 174.43201981 -236.86558777 174.43201981 -238.22038651 174.43109512 C-305.47065027 174.30729987 -305.47065027 174.30729987 -322.89699173 157.79620743 C-325.91652806 154.42891551 -325.6211803 151.12200214 -325.56496048 146.78058243 C-325.01713378 141.77298347 -322.15117035 139.10897979 -318.72511673 135.68292618 C-284.65458442 109.30573987 -211.34452933 117.98378452 -171.4131813 117.40277481 C-120.0373046 119.6937097 -120.0373046 119.6937097 -74.28761673 102.24542618 C-70.69577009 96.98244847 -68.28761673 90.48860857 -68.28761673 84.12042618 C-69.61496892 80.30428862 -72.06440703 78.48413526 -75.28761673 76.24542618 C-87.50039906 70.39793171 -101.55781051 69.16115009 -114.78761673 67.18292618 C-158.25640592 60.61145655 -158.25640592 60.61145655 -167.91261673 50.49542618 C-171.10995048 45.26342549 -170.82992172 40.28050603 -170.28761673 34.24542618 C-168.23764827 27.49040964 -162.54394022 23.19424879 -156.72902298 19.71417618 C-111.74288841 -4.21332009 -49.63691399 0.08251209 0 0 Z " fill="#231F20" transform="translate(1042.2876167297363,1761.7545738220215)"/>
<path d="M0 0 C0.33 0 0.66 0 1 0 C1 4.29 1 8.58 1 13 C2.051875 12.938125 3.10375 12.87625 4.1875 12.8125 C30.05415897 13.03900314 51.41113253 32.23074468 68.52734375 49.55859375 C104.33107198 87.9521034 127.18023553 139.66742307 146 188 C146.33708984 188.83805176 146.67417969 189.67610352 147.02148438 190.53955078 C148.37868427 193.97446868 149 196.24089358 149 200 C148.48542236 200.20455811 147.97084473 200.40911621 147.44067383 200.61987305 C108.43397966 216.19441166 69.79124156 233.9228541 34 256 C33.0399707 256.58958496 32.07994141 257.17916992 31.09082031 257.78662109 C26.52721032 260.59273651 21.97372585 263.4138829 17.43359375 266.2578125 C13.67374889 268.60398153 9.86485169 270.83153288 6 273 C-5.55815311 257.241254 -16.08998704 240.83844193 -26 224 C-26.86238281 222.62134766 -26.86238281 222.62134766 -27.7421875 221.21484375 C-29 219 -29 219 -29 217 C-29.99 217 -30.98 217 -32 217 C-32.3609375 215.77925781 -32.721875 214.55851563 -33.09375 213.30078125 C-35.2204984 206.92674735 -38.40442145 201.13320739 -41.5 195.1875 C-55.01934911 168.75503479 -65.9288819 140.54003293 -70 111 C-70.13019531 110.10925781 -70.26039062 109.21851563 -70.39453125 108.30078125 C-73.15701956 86.01670892 -70.17557685 61.73015156 -56.9296875 43.0859375 C-44.89433388 27.86352159 -27.62476266 15.73833898 -8 13 C-5.30628723 12.86508951 -2.69960322 12.90183261 0 13 C0 8.71 0 4.42 0 0 Z " fill="#5FCFE3" transform="translate(169,496)"/>
<path d="M0 0 C1.94971207 0.00273422 1.94971207 0.00273422 3.93881226 0.00552368 C101.34476455 0.2350484 101.34476455 0.2350484 123.625 19.3125 C125.58028641 21.81771071 125.97840681 23.07953403 126.625 26.3125 C124.9914872 30.9952367 121.73281401 32.7965244 117.625 35.3125 C47.22699158 66.20480252 -42.60599471 66.60737077 -118.21381855 75.6057291 C-124.01228135 76.29613775 -129.80943897 76.99708417 -135.60623169 77.7013855 C-138.98183331 78.10776457 -142.35880685 78.50065944 -145.73608398 78.89282227 C-178.03335052 82.58398448 -178.03335052 82.58398448 -206.375 97.3125 C-208.70958635 100.81437953 -209.04760727 102.19278047 -208.375 106.3125 C-200.5653394 113.34119454 -190.1172016 112.6314333 -180.25 112.8125 C-177.55702558 112.88098077 -174.8644447 112.96017816 -172.171875 113.04296875 C-171.50475494 113.06340744 -170.83763489 113.08384613 -170.15029907 113.10490417 C-126.73215609 114.51409946 -126.73215609 114.51409946 -114.875 126.5625 C-112.82656324 129.16909391 -111.9585501 131.05394772 -111.8125 134.375 C-112.69804729 140.57383105 -115.26682253 144.67987434 -119.375 149.3125 C-149.87733922 168.32493779 -202.44125195 162.5267735 -237 162.5 C-237.77189415 162.49973312 -238.5437883 162.49946625 -239.33907318 162.49919128 C-394.72256852 162.43184063 -394.72256852 162.43184063 -428.375 134.3125 C-431.46005127 130.62438038 -432.70686316 127.60669935 -432.4375 122.75 C-431.9868629 118.28459599 -429.49083155 115.36290999 -426.375 112.3125 C-423.38671875 110.15234375 -423.38671875 110.15234375 -420.0625 108.25 C-418.99386719 107.61964844 -417.92523438 106.98929688 -416.82421875 106.33984375 C-405.80761987 100.84861478 -393.03226343 98.34386473 -381.05078125 96.03515625 C-380.32726282 95.89290178 -379.60374439 95.75064732 -378.85830116 95.60408211 C-356.18477111 91.15081795 -333.35811466 87.51286859 -310.5625 83.75 C-237.05433974 71.60852964 -171.06498487 52.64627213 -102.59155273 23.34619141 C-92.67127172 19.10600955 -82.7236214 14.95878351 -72.6875 11 C-71.0782666 10.36130981 -71.0782666 10.36130981 -69.43652344 9.7097168 C-66.42906629 8.53736279 -63.40969761 7.41227322 -60.375 6.3125 C-59.39063965 5.94721191 -58.4062793 5.58192383 -57.39208984 5.20556641 C-39.04778716 -1.07490779 -19.12779882 -0.05548608 0 0 Z " fill="#231F20" transform="translate(497.375,1851.6875)"/>
<path d="M0 0 C42.4283906 -1.27710875 95.71487659 3.27867075 128.87109375 32.65625 C135.33953889 39.77747401 135.37212634 47.93622035 135.2109375 57.08203125 C134.46012548 71.02766925 128.80138502 82.1864926 118.69921875 91.71484375 C93.96940422 112.65108326 59.8583597 112.35829218 29.21091843 112.11976433 C25.17140185 112.08906839 21.13203958 112.07227877 17.09243774 112.05970764 C7.07014575 112.02605985 -2.95203069 111.97321601 -12.97418213 111.9105835 C-20.79520341 111.86176754 -28.61612351 111.81984255 -36.43727624 111.79907519 C-39.78620497 111.78957461 -43.13465761 111.77229998 -46.48350906 111.74394035 C-65.71142239 111.58123609 -83.62271628 112.72214191 -102.1875 118.0625 C-103.23083496 118.36067627 -104.27416992 118.65885254 -105.34912109 118.96606445 C-133.99573861 127.46359935 -159.81139269 142.24790931 -185 158 C-187.86215877 159.7893936 -190.72453641 161.57839336 -193.58935547 163.36352539 C-195.33751471 164.45420498 -197.08289054 165.54936586 -198.82470703 166.65014648 C-217.61041229 178.40308873 -235.85062559 181.90339301 -257.5 176.97265625 C-271.03023685 173.21257927 -284.93780394 165.81057683 -292.53515625 153.515625 C-298.56217699 141.91844223 -300.00333151 129.91892417 -296.375 117.25 C-285.45934722 86.38505077 -255.31002584 69.65670305 -227.33959961 56.27612305 C-211.86688697 49 -211.86688697 49 -207 49 C-205.6328125 50.43359375 -205.6328125 50.43359375 -204.125 52.4375 C-190.88542085 68.08679335 -170.5600195 73.52038282 -151 76 C-116.34559895 77.51459537 -79.46259917 75.9862049 -48 60 C-46.989375 59.50628906 -45.97875 59.01257812 -44.9375 58.50390625 C-38.28781504 55.09594271 -32.69698824 50.80258053 -27 46 C-26.15824219 45.3503125 -25.31648438 44.700625 -24.44921875 44.03125 C-11.02648687 32.89915976 -4.83422647 16.15071115 0 0 Z " fill="#E0CAA1" transform="translate(857,1216)"/>
<path d="M0 0 C2.5689628 2.5689628 3.42108952 5.4015446 4.640625 8.74609375 C5.20668604 10.26339381 5.77311592 11.78055629 6.33984375 13.29760742 C6.64776855 14.12714935 6.95569336 14.95669128 7.27294922 15.81137085 C15.49469153 37.90987133 24.23034074 59.80245455 33 81.6875 C33.32985523 82.51071369 33.65971046 83.33392738 33.99956131 84.18208694 C46.94233779 116.47582053 60.04059223 148.69386887 73.5625 180.75 C74.15998047 182.16644806 74.15998047 182.16644806 74.76953125 183.61151123 C78.97788294 193.57991537 83.21851384 203.53279532 87.5390625 213.453125 C88.24804701 215.08622763 88.95695208 216.71936476 89.66577148 218.35253906 C90.97780167 221.37481106 92.30171386 224.3914673 93.63305664 227.40527344 C94.21802983 228.74916659 94.80260836 230.09323162 95.38671875 231.4375 C95.89420654 232.59121094 96.40169434 233.74492188 96.92456055 234.93359375 C97.97487111 237.92834985 98.40954014 239.86946445 98 243 C96.38003704 245.28786812 94.80945101 247.25505125 92.9375 249.3125 C92.17759766 250.17343262 92.17759766 250.17343262 91.40234375 251.05175781 C90.39365825 252.19360524 89.38056788 253.33157888 88.36279297 254.46533203 C86.68862427 256.35064633 85.10201153 258.30330139 83.5 260.25 C68.30197682 277.38819636 46.41807602 288.42112452 24 292 C23.22785156 292.13019531 22.45570313 292.26039063 21.66015625 292.39453125 C1.57050182 295.20034891 -19.89320329 292.31255911 -37 281 C-40.54720377 278.19656476 -43.79893692 275.19006286 -47 272 C-47.93972656 271.09507812 -47.93972656 271.09507812 -48.8984375 270.171875 C-66.41835945 251.93847206 -72.06012798 221.59074258 -72.203125 197.25 C-72.21018463 196.44274979 -72.21724426 195.63549957 -72.22451782 194.80378723 C-72.5930887 140.17248288 -62.33450056 79.55939912 -30 34 C-29.54222168 33.35434082 -29.08444336 32.70868164 -28.61279297 32.04345703 C-20.22605395 20.33118392 -11.30839161 9.04671329 0 0 Z " fill="#E0CAA1" transform="translate(232,1428)"/>
<path d="M0 0 C1.34441603 4.83572898 0.19569691 9.36743345 -2.125 13.6875 C-10.22581733 25.93380602 -22.33407541 35.33951241 -34 44 C-34.60457031 44.4547168 -35.20914062 44.90943359 -35.83203125 45.37792969 C-75.49046203 75.20524421 -119.76118053 98.77719124 -163.82666016 121.36474609 C-168.17362049 123.60477843 -172.49370064 125.89380814 -176.8125 128.1875 C-194.14020496 137.35217513 -211.76312164 145.93315658 -229.47460938 154.32714844 C-232.79255735 155.9015653 -236.10799317 157.48113829 -239.42286682 159.06201172 C-260.07973166 168.91052285 -280.80031386 178.59615515 -301.68145752 187.96020508 C-303.27552734 188.67509632 -304.86938788 189.39045436 -306.46307373 190.10620117 C-336.83086405 203.74459078 -367.36095658 216.98333911 -398 230 C-398.88254456 230.3753186 -399.76508911 230.75063721 -400.67437744 231.1373291 C-424.68101147 241.34651867 -448.79561666 251.26916943 -473 261 C-473 257.04217714 -471.75270073 256.33275838 -469.0625 253.5 C-465.74117857 249.92399195 -462.5614436 246.30115749 -459.5 242.5 C-456.5918662 238.9052235 -453.61458668 235.41739372 -450.5 232 C-446.6385639 227.75776484 -442.98916513 223.38374736 -439.39453125 218.9140625 C-437.69444351 216.84511396 -435.97984527 214.83223185 -434.19921875 212.8359375 C-424.62257709 202.03206095 -417.57809449 190.75831826 -417.6875 175.8125 C-417.68878906 175.07652588 -417.69007812 174.34055176 -417.69140625 173.58227539 C-417.80390395 167.11295474 -419.00583258 161.16055292 -421 155 C-414.28884678 152.01291334 -406.94671874 151.25508747 -399.75 150.0625 C-398.95699493 149.92993805 -398.16398987 149.7973761 -397.34695435 149.66079712 C-380.62964826 146.89087637 -363.90637472 145.13990821 -347 144 C-346.02092178 143.92901596 -346.02092178 143.92901596 -345.02206421 143.8565979 C-329.68495095 142.76486282 -314.32166522 142.81255023 -298.9543457 142.81469727 C-295.96990802 142.81477776 -292.98562637 142.80794361 -290.0012207 142.79418945 C-271.28925665 142.70922745 -252.71159572 143.16664695 -234.03978539 144.43664932 C-222.94180727 146.01569394 -222.94180727 146.01569394 -213.21484375 142.60546875 C-212.41830039 141.49199206 -211.66089029 140.34983306 -210.9375 139.1875 C-210.52322754 138.56004883 -210.10895508 137.93259766 -209.68212891 137.28613281 C-187.03424327 101.51899212 -180.71393006 52.1588783 -175 11 C-139.03440265 3.01077438 -102.76218169 -3.98259307 -66 -7 C-65.15920898 -7.06912598 -64.31841797 -7.13825195 -63.45214844 -7.20947266 C-16.34097389 -10.89398259 -16.34097389 -10.89398259 0 0 Z " fill="#628B18" transform="translate(1467,434)"/>
<path d="M0 0 C7.67918976 7.4004073 12.5703356 15.13157128 12.875 25.875 C12.71765563 38.88213497 5.31762269 49.31175934 -3.19921875 58.56640625 C-28.29924233 83.05316573 -67.95213233 91.96788335 -101.84741211 91.80810547 C-122.5673943 91.34327789 -143.50494614 87.31395496 -160.4375 74.75 C-161.46875 74.028125 -162.5 73.30625 -163.5625 72.5625 C-168.48366402 68.34435941 -173.46479906 61.23862703 -174.4375 54.75 C-175.48436627 39.20146166 -172.15122677 29.19349036 -161.85253906 17.29882812 C-126.74023948 -21.1332679 -41.41733496 -34.98296769 0 0 Z " fill="#231F20" transform="translate(829.4375,1178.25)"/>
<path d="M0 0 C1.62446045 0.39421143 1.62446045 0.39421143 3.28173828 0.79638672 C42.40459401 10.52669202 80.11572989 25.51340466 117.51171875 40.37890625 C147.26662273 52.20469437 177.12335991 63.4261233 208 72 C209.05574219 72.29487305 210.11148437 72.58974609 211.19921875 72.89355469 C230.07107187 78.08989194 249.48465264 82.22196564 269.125 82.5 C269.91165039 82.51853027 270.69830078 82.53706055 271.50878906 82.55615234 C276.51705734 82.50069822 279.76519489 81.32007804 284.12451172 78.91259766 C288.73966852 76.66689912 294.05755715 77.29658117 299 78 C303.98554865 79.77999051 308.00353307 82.93324938 310.37109375 87.78515625 C312.18948835 94.18906766 312.34252885 101.51522568 309.0625 107.4375 C303.27408209 115.12296244 295.14502052 118.14429511 286 120 C285.12988281 120.18304687 284.25976562 120.36609375 283.36328125 120.5546875 C216.90838104 129.35359415 144.13691706 93.52685775 83.78466797 69.55224609 C25.36003466 45.33709138 25.36003466 45.33709138 -36.25708008 33.80664062 C-43.18189309 33.34707097 -49.18051143 31.39354383 -53.875 26.0625 C-57.76432338 20.45729866 -58.91360677 15.76745753 -58 9 C-56.26363699 3.66889628 -53.75361484 0.08984965 -49 -3 C-48.46761719 -3.35449219 -47.93523437 -3.70898438 -47.38671875 -4.07421875 C-33.4456081 -9.48181813 -13.78605958 -3.35084867 0 0 Z " fill="#000000" transform="translate(314,752)"/>
<path d="M0 0 C5.27939433 2.45764908 8.38616735 6.17579287 11.25 11.1875 C12.97997599 17.67490995 12.9300288 23.07650751 9.5625 29 C6.55421651 33.52654862 3.04221114 37.48586277 -0.66015625 41.453125 C-2.96302955 43.95975837 -5.11391224 46.53796729 -7.25 49.1875 C-12.4489487 55.6049523 -17.87011479 61.81901702 -23.29736328 68.04296875 C-24.99384818 69.99292902 -26.68358247 71.94852113 -28.37109375 73.90625 C-34.10022419 80.54938909 -39.88230134 87.12524464 -45.80859375 93.59375 C-47.71371809 95.68565123 -49.58439061 97.79963385 -51.4375 99.9375 C-54.82811072 103.8386968 -58.32097599 107.64342064 -61.82104492 111.44604492 C-64.65487892 114.52642488 -67.46327957 117.62676994 -70.25 120.75 C-79.23350423 130.74595641 -88.43182041 140.53579859 -97.99658203 149.97729492 C-101.26282746 153.21620075 -104.30997955 156.57593481 -107.296875 160.0703125 C-111.78816137 165.15906357 -116.65476622 169.9038147 -121.8125 174.3125 C-125.3890543 177.37505847 -128.69334297 180.65328096 -132 184 C-136.50579647 188.54897412 -141.10219632 192.87134599 -146 197 C-146.94101562 197.81855469 -147.88203125 198.63710938 -148.8515625 199.48046875 C-175.25769662 222.34911549 -201.5304246 236.84837512 -237.29394531 235.21582031 C-242.91237401 234.76772477 -247.85869119 233.3397573 -253 231 C-253.79921875 230.649375 -254.5984375 230.29875 -255.421875 229.9375 C-263.70125046 225.82636184 -271.53546569 219.15262788 -276 211 C-277.78611527 205.64165419 -277.51496366 200.68793645 -275.875 195.3125 C-273.11416998 190.43503363 -270.21957271 187.06153477 -265.125 184.625 C-258.47545204 183.29509041 -252.86961624 183.34267921 -247 187 C-243.43404765 189.78023403 -240.01179285 192.63770155 -237.30859375 196.27734375 C-234.94776321 198.40376564 -234.94776321 198.40376564 -231.015625 197.9453125 C-229.42234283 197.70100811 -227.83362617 197.42560081 -226.25 197.125 C-225.40816162 196.97571045 -224.56632324 196.8264209 -223.69897461 196.67260742 C-201.65751034 192.45022393 -185.89932481 180.26773085 -169.57104492 165.3359375 C-168.05518885 163.95869784 -166.53072345 162.5906638 -164.98730469 161.24438477 C-156.56578846 153.86154797 -148.72753363 145.87806987 -140.82202148 137.95239258 C-138.31150926 135.43650714 -135.79567936 132.92602814 -133.27929688 130.41601562 C-131.66113751 128.79719563 -130.04328828 127.17806555 -128.42578125 125.55859375 C-127.68395096 124.81878769 -126.94212067 124.07898163 -126.17781067 123.3167572 C-122.14785995 119.26886336 -118.28498996 115.136381 -114.576828 110.79090881 C-112.95354843 108.94724186 -111.25365627 107.21941832 -109.5 105.5 C-107.20673964 103.24202057 -105.03571972 100.94003496 -102.9375 98.5 C-99.40165716 94.39489448 -95.70664762 90.45004759 -92 86.5 C-87.80023102 82.02064765 -83.63304829 77.53144588 -79.62890625 72.875 C-77.66334911 70.61248819 -75.64326691 68.40309317 -73.625 66.1875 C-70.51471149 62.74621795 -67.53521688 59.23678702 -64.625 55.625 C-60.94492991 51.07299693 -57.07477116 46.76747752 -53.09082031 42.48535156 C-49.26705324 38.35118772 -45.71157972 34.0350225 -42.1796875 29.6484375 C-39.32105446 26.17504466 -36.29574398 22.87073556 -33.26171875 19.55078125 C-30.85076145 16.83168778 -28.58110328 14.02610411 -26.3125 11.1875 C-18.33222139 1.32376402 -12.83340824 -1.05239794 0 0 Z " fill="#000000" transform="translate(1011,591)"/>
<path d="M0 0 C10.83531855 9.23371792 19.04432576 21.77140078 20.43774414 36.203125 C21.25136692 53.41045595 18.28055994 68.1223273 6.890625 81.65625 C-3.51440123 92.5839777 -16.35860848 98.96611101 -31.50390625 100.09765625 C-48.1091683 100.37752022 -62.49182848 95.68338256 -74.61962891 84.27539062 C-85.56754012 73.41132955 -90.96505975 59.74767105 -91.09765625 44.45703125 C-91.12755667 28.08489082 -85.44759825 15.16577799 -74.26953125 3.21875 C-53.48649925 -16.22449535 -22.37037807 -16.91112732 0 0 Z " fill="#221F20" transform="translate(1010.78515625,982.10546875)"/>
<path d="M0 0 C12.34947595 8.98143705 21.11849223 20.62597234 24.40625 35.75 C25.90344818 54.92859235 23.24380138 70.22343338 10.78125 85.375 C2.0337161 94.78901268 -10.46140458 102.02022085 -23.49682617 102.87475586 C-40.23472536 103.48886783 -54.82765008 100.79210265 -67.90625 89.4375 C-80.08556681 77.72661846 -86.49298958 64.3811774 -86.90625 47.4375 C-86.62249497 30.71264492 -80.43944119 17.44893041 -68.59375 5.75 C-68.04074219 5.17507813 -67.48773438 4.60015625 -66.91796875 4.0078125 C-49.6049556 -12.57487503 -19.28605315 -12.52341114 0 0 Z " fill="#221F20" transform="translate(471.59375,1108.25)"/>
<path d="M0 0 C0.27972656 0.53028809 0.55945313 1.06057617 0.84765625 1.60693359 C16.42464599 30.9890931 34.39063366 58.3427719 54.6015625 84.71875 C55.16182129 85.45029297 55.72208008 86.18183594 56.29931641 86.93554688 C58.08105058 89.09838698 59.98873391 91.05081342 62 93 C62.66136963 92.51241211 63.32273926 92.02482422 64.00415039 91.52246094 C70.71349706 86.60545401 77.51494402 81.86140884 84.4375 77.25 C85.46576904 76.56478271 86.49403809 75.87956543 87.5534668 75.17358398 C94.38518993 70.65361882 101.29004726 66.27999448 108.3125 62.0625 C109.5653479 61.30984863 109.5653479 61.30984863 110.84350586 60.54199219 C113.90181745 58.72999139 116.61630183 57.12789939 120 56 C120.12955078 57.09054687 120.12955078 57.09054687 120.26171875 58.203125 C122.20166905 72.08533813 126.98531012 83.61902635 138.25 92.25 C145.70605478 97.42753326 153.62966713 100.72284493 162.6953125 101.46484375 C163.57574219 101.54283203 164.45617187 101.62082031 165.36328125 101.70117188 C167.21185653 101.85935972 169.06082896 102.01297008 170.91015625 102.16210938 C171.78800781 102.24138672 172.66585937 102.32066406 173.5703125 102.40234375 C174.37227051 102.46929443 175.17422852 102.53624512 176.00048828 102.60522461 C178 103 178 103 180 105 C164.12667736 105.26379818 148.28906477 104.48788831 132.4375 103.75 C131.72430225 103.71705589 131.01110451 103.68411179 130.27629471 103.65016937 C-43.8916878 95.5862526 -43.8916878 95.5862526 -74.25 65.0625 C-76.0855548 61.85027911 -76.5790169 59.92068543 -75.83203125 56.26953125 C-65.8618107 29.07376534 -29.80910507 14.05243518 -6 2 C-5.28247559 1.61980713 -4.56495117 1.23961426 -3.82568359 0.84790039 C-2 0 -2 0 0 0 Z " fill="#628A18" transform="translate(109,710)"/>
<path d="M0 0 C7.66655406 1.24628251 15.05551416 2.9800913 22.5 5.1875 C23.53809814 5.49429687 24.57619629 5.80109375 25.64575195 6.1171875 C64.6412513 17.82988058 64.6412513 17.82988058 75.9375 31.3125 C77.79252598 36.00462454 78.12818315 40.36757265 76.109375 45.078125 C59.85377245 69.95115541 11.20911297 75.40905561 -15.47265625 81.0546875 C-37.77224916 85.70857214 -60.24264836 89.5050852 -82.75 93 C-83.46062592 93.11217865 -84.17125183 93.2243573 -84.90341187 93.3399353 C-86.88751833 93.65113521 -88.87341264 93.95087232 -90.859375 94.25 C-91.97795898 94.42015625 -93.09654297 94.5903125 -94.24902344 94.765625 C-97 95 -97 95 -100 94 C-99.195625 93.70609375 -99.195625 93.70609375 -98.375 93.40625 C-73.96703751 84.09268537 -53.29550861 69.44416879 -34.52734375 51.45996094 C-33.06060383 50.05793013 -31.57749058 48.67308933 -30.09375 47.2890625 C-16.38032694 34.15345221 -6.37336549 17.86140674 0 0 Z " fill="#221F20" transform="translate(1716,1562)"/>
<path d="M0 0 C9.1557065 8.70665278 11.92475825 23.34302187 12.23828125 35.4140625 C12.236975 37.88026608 12.21994724 40.34650953 12.1875 42.8125 C12.19072266 44.04484375 12.19394531 45.2771875 12.19726562 46.546875 C12.13145824 57.81788567 11.10088278 67.10420565 5.4375 76.9375 C4.53377663 78.57854159 3.63421781 80.22188172 2.73828125 81.8671875 C2.26986816 82.72538086 1.80145508 83.58357422 1.31884766 84.46777344 C-1.22610308 89.2616103 -3.54733509 94.16044809 -5.875 99.0625 C-6.34333252 100.03920654 -6.81166504 101.01591309 -7.29418945 102.0222168 C-9.23369646 106.08892503 -11.14504662 110.14715394 -12.8359375 114.32421875 C-15.86298218 121.65769439 -18.80809462 125.78688112 -26.125 129.1875 C-29.74430698 130.39393566 -32.31731005 130.51018559 -36.125 130.1875 C-42.53143145 126.79585982 -46.01473256 122.10875907 -48.75 115.5 C-49.15476562 114.54738281 -49.55953125 113.59476562 -49.9765625 112.61328125 C-56.52765302 93.0714228 -54.58015516 69.79378485 -49.125 50.1875 C-48.94308105 49.5162207 -48.76116211 48.84494141 -48.57373047 48.15332031 C-43.47876243 29.89521321 -33.85274161 9.44416169 -17.125 -0.8125 C-11.08378101 -3.7714644 -5.73486933 -3.32622421 0 0 Z " fill="#000000" transform="translate(1041.125,332.8125)"/>
<path d="M0 0 C-0.09087891 0.6177832 -0.18175781 1.23556641 -0.27539062 1.87207031 C-2.5896321 18.31505266 -3.28998078 34.47805838 -3.25 51.0625 C-3.24895264 52.01829956 -3.24790527 52.97409912 -3.24682617 53.9588623 C-3.21891874 68.50928036 -3.21891874 68.50928036 -2 83 C-75.35149012 69.04030667 -75.35149012 69.04030667 -90 49 C-92.19224067 45.18415447 -92.45771668 42.4245946 -92 38 C-84.59828257 23.19656514 -66.07786786 17.44414917 -51.5 12.5 C-40.98649351 9.03562094 -30.35703944 6.13304586 -19.625 3.4375 C-18.92737549 3.26138184 -18.22975098 3.08526367 -17.51098633 2.90380859 C-15.52225805 2.405509 -13.53139876 1.91724486 -11.5390625 1.43359375 C-10.39646973 1.15572021 -9.25387695 0.87784668 -8.07666016 0.59155273 C-5.28568456 0.05492888 -2.8303643 -0.12126356 0 0 Z " fill="#221F20" transform="translate(139,1559)"/>
<path d="M0 0 C5.57900563 4.7239057 9.45760238 11.4484936 10.32568359 18.75439453 C11.89191555 43.76321736 0.95460876 68.02549222 -13.91015625 87.76953125 C-14.32716797 88.33414063 -14.74417969 88.89875 -15.17382812 89.48046875 C-16.51361177 91.29277406 -17.86448425 93.09597106 -19.22265625 94.89453125 C-19.64361572 95.45221191 -20.0645752 96.00989258 -20.49829102 96.58447266 C-22.50914709 99.18437556 -24.14441633 100.92570464 -26.91015625 102.76953125 C-26.36430085 95.29049763 -24.61302825 88.37824962 -22.64306641 81.15524292 C-13.9675293 51.32310197 -13.9675293 51.32310197 -14.91015625 20.76953125 C-25.20213849 18.4064765 -34.8634979 18.56713766 -44.13671875 23.875 C-48.84470607 27.09101951 -52.90715038 30.71990135 -56.91015625 34.76953125 C-57.96396484 35.79046875 -57.96396484 35.79046875 -59.0390625 36.83203125 C-73.59985627 51.84868781 -83.70661364 71.64843796 -93.70703125 89.8515625 C-94.16110352 90.6763208 -94.61517578 91.5010791 -95.08300781 92.35083008 C-95.94495128 93.92170461 -96.80140048 95.49561098 -97.65136719 97.07299805 C-98.03583008 97.777229 -98.42029297 98.48145996 -98.81640625 99.20703125 C-99.31624023 100.13322266 -99.31624023 100.13322266 -99.82617188 101.078125 C-100.99799312 102.90658843 -102.32607435 104.29165741 -103.91015625 105.76953125 C-105.9813001 75.27769124 -93.63011975 40.57941183 -74.91015625 16.76953125 C-74.265625 15.94324219 -73.62109375 15.11695313 -72.95703125 14.265625 C-55.03875815 -7.25815428 -24.45922963 -16.07553362 0 0 Z " fill="#010202" transform="translate(1216.91015625,369.23046875)"/>
<path d="M0 0 C5.93908382 3.43503767 10.81684041 7.70014215 15.625 12.5625 C16.84123047 13.74585938 16.84123047 13.74585938 18.08203125 14.953125 C25.78921575 22.86664358 31.24450143 31.97326517 36.625 41.5625 C36.99367188 42.21847168 37.36234375 42.87444336 37.7421875 43.55029297 C46.56211512 59.53641178 52.72083272 76.96519663 57.1875 94.625 C57.43902832 95.61757813 57.69055664 96.61015625 57.94970703 97.6328125 C59.17076651 102.73826319 59.90889115 107.31415335 59.625 112.5625 C55.53625569 108.66881505 52.09417414 104.4966632 48.6875 100 C48.12611328 99.26257568 47.56472656 98.52515137 46.98632812 97.76538086 C41.49647034 90.49496705 36.29567476 83.03094449 31.09765625 75.55078125 C12.45386991 45.88250686 12.45386991 45.88250686 -13.375 23.5625 C-16.17061167 23.68495809 -16.17061167 23.68495809 -18.375 24.5625 C-25.85094454 41.6948729 -19.79970563 61.90121864 -16.18359375 79.3359375 C-15.99571289 80.24819092 -15.80783203 81.16044434 -15.61425781 82.1003418 C-15.25506494 83.82526227 -14.88640141 85.54824654 -14.50683594 87.26879883 C-14.34344727 88.0398999 -14.18005859 88.81100098 -14.01171875 89.60546875 C-13.86436279 90.27602295 -13.71700684 90.94657715 -13.56518555 91.63745117 C-13.34798855 93.83590854 -13.72859614 95.46366086 -14.375 97.5625 C-31.03833297 76.17788936 -47.43733153 50.92096598 -44.375 22.5625 C-42.48176909 13.27383585 -37.66799111 6.61287134 -30.1953125 0.89453125 C-21.14229709 -4.54642246 -9.4337479 -4.3521672 0 0 Z " fill="#232122" transform="translate(193.375,577.4375)"/>
<path d="M0 0 C2 2 2 2 2.5 5.3125 C2 9 2 9 -0.375 11.6875 C-17.6364879 23.73499155 -44.17331028 22.52395315 -64.19921875 19.69140625 C-72.80860262 18.12525934 -81.59097235 16.26336793 -88 10 C-89.1875 6.5 -89.1875 6.5 -89 3 C-86.26242485 -2.35071507 -81.45590542 -4.19939665 -76 -6 C-53.97011595 -11.72369967 -18.92558877 -15.34507198 0 0 Z " fill="#231F20" transform="translate(810,1949)"/>
<path d="M0 0 C2.01206476 -0.00966526 4.02308726 -0.04076549 6.03491211 -0.07226562 C16.53776498 -0.11351394 27.89364277 0.13578771 36.84545898 6.24023438 C38.84545898 8.24023438 38.84545898 8.24023438 38.90795898 11.05273438 C37.73858591 14.5608536 36.47585785 16.04868651 33.36108398 18.01757812 C27.44584579 20.89253085 21.19279577 22.61127184 14.84545898 24.24023438 C12.97567383 24.72556641 12.97567383 24.72556641 11.06811523 25.22070312 C0.35713577 27.6158719 -10.54678184 27.55597823 -21.46704102 27.61523438 C-22.24213013 27.62318024 -23.01721924 27.6311261 -23.8157959 27.63931274 C-48.30365719 27.83192918 -48.30365719 27.83192918 -55.96704102 21.55273438 C-56.68891602 20.78960938 -57.41079102 20.02648438 -58.15454102 19.24023438 C-57.9581017 15.80254633 -57.2550028 14.35504784 -54.96704102 11.74023438 C-40.50919227 0.79357747 -17.31636837 0.05004128 0 0 Z " fill="#221F20" transform="translate(202.154541015625,2018.759765625)"/>
<path d="M0 0 C0.85625977 -0.01393799 1.71251953 -0.02787598 2.59472656 -0.04223633 C9.0131499 0.00597071 16.20642885 0.64392885 20.9375 5.375 C21.375 8.1875 21.375 8.1875 20.9375 11.375 C9.84866256 26.16011658 -14.30300585 29.90156712 -31.34375 32.96484375 C-36.56681318 33.54091689 -41.74881045 33.59921147 -47 33.625 C-48.04607422 33.645625 -49.09214844 33.66625 -50.16992188 33.6875 C-56.53421178 33.71950146 -61.29547581 33.12820274 -67.0625 30.375 C-69.0625 28.375 -69.0625 28.375 -69.125 25.125 C-67.7068325 20.11970294 -65.32542248 18.0427206 -61.0625 15.375 C-42.33898133 5.12273185 -21.2759025 0.21997884 0 0 Z " fill="#221F20" transform="translate(322.0625,2021.625)"/>
<path d="M0 0 C2.48742381 2.33195982 2.91582047 3.51596771 3.5 6.875 C2.83592212 11.02548672 1.23785255 13.4456941 -2 16 C-14.8478479 22.63454441 -31.72835389 23.3253111 -45.5 19.1875 C-50.65985294 17.3773903 -54.91071735 15.63392398 -58 11 C-58.39857934 7.91101012 -58.63202465 5.95717953 -58 3 C-52.919348 -3.04185643 -45.07385358 -5.11115922 -37.5625 -6.75 C-24.56694546 -7.66196874 -11.35235956 -7.0684503 0 0 Z " fill="#231F20" transform="translate(911,1944)"/>
<path d="M0 0 C1 1 1 1 1.4375 3.25 C0.90673055 6.58626513 -0.36015797 7.86206911 -3.02734375 9.8671875 C-17.37410135 18.10591959 -39.40814543 16.58425503 -54.9375 12.90625 C-59.00788661 11.70174784 -61.75710651 10.77962299 -65 8 C-66.25 4.5 -66.25 4.5 -66 1 C-53.13699213 -13.93768656 -14.47846371 -11.22819634 0 0 Z " fill="#221F20" transform="translate(1010,1938)"/>
<path d="M0 0 C0.91507324 -0.01393799 1.83014648 -0.02787598 2.77294922 -0.04223633 C8.67533134 -0.00095718 14.31742404 0.60035503 19.625 3.375 C21.625 6.375 21.625 6.375 21.515625 8.87109375 C19.7984946 13.69864018 15.02597499 15.27571758 10.625 17.375 C-4.18216856 23.67985541 -25.28045752 26.23618467 -40.7109375 20.5078125 C-42.375 19.375 -42.375 19.375 -43.4375 16 C-43.416875 14.80375 -43.39625 13.6075 -43.375 12.375 C-32.17032586 1.69522951 -14.73260732 0.14424394 0 0 Z " fill="#221F20" transform="translate(119.375,2010.625)"/>
<path d="M0 0 C2.26965758 2.68232259 3 4.00016128 3 7.5 C1.39461978 11.51345054 -0.93453502 14.05385653 -4.91015625 15.875 C-10.70857399 17.89550128 -15.88209263 18.45970949 -22 18.375 C-23.25683594 18.39240234 -23.25683594 18.39240234 -24.5390625 18.41015625 C-31.78422973 18.37650996 -38.23386509 17.18985681 -44 12.625 C-46.11233542 9.85255977 -47 8.47619094 -47 5 C-45.65335275 1.3191642 -43.78242614 -0.3593015 -40.4375 -2.1875 C-27.97876601 -7.83393541 -11.53861732 -8.00526082 0 0 Z " fill="#221F20" transform="translate(1072,1923)"/>
<path d="M0 0 C0.88558594 -0.01160156 1.77117187 -0.02320313 2.68359375 -0.03515625 C10.08506459 -0.00255065 16.52124597 1.18652765 22.5625 5.625 C24.5 8.375 24.5 8.375 25.1875 11.875 C24.46037782 15.57671294 23.5995768 17.12997844 20.5078125 19.30859375 C10.24643778 24.75870133 -2.45992648 24.83096989 -13.5625 22.1875 C-18.24274001 20.68563194 -21.31471934 19.16290133 -24.5 15.375 C-25.1875 11.875 -25.1875 11.875 -24.5 8.375 C-18.8435822 0.34653602 -9.04766405 -0.11852835 0 0 Z " fill="#221F20" transform="translate(1112.5,1904.625)"/>
<path d="M0 0 C2 2 2 2 2.125 4.3125 C0.30179151 8.66794251 -2.78283534 10.11887407 -7 12 C-22.56581654 17.3358 -41.96355387 20.99596975 -58 16 C-60 14 -60 14 -60.5 11.625 C-60 9 -60 9 -57.75 6.9375 C-42.02367992 -2.06972259 -17.33005423 -5.19901627 0 0 Z " fill="#221F20" transform="translate(61,1987)"/>
<path d="M0 0 C0.94351318 -0.01772461 1.88702637 -0.03544922 2.85913086 -0.05371094 C8.5865523 -0.04761848 12.59829 0.6520716 17.6875 3.3125 C18.1875 5.5 18.1875 5.5 17.6875 8.3125 C7.10779079 18.73616631 -12.73226578 19.46514278 -26.625 19.625 C-27.56851318 19.64272461 -28.51202637 19.66044922 -29.48413086 19.67871094 C-35.2115523 19.67261848 -39.22329 18.9729284 -44.3125 16.3125 C-44.8125 14.125 -44.8125 14.125 -44.3125 11.3125 C-33.73279079 0.88883369 -13.89273422 0.15985722 0 0 Z " fill="#221F20" transform="translate(59.3125,2002.6875)"/>
<path d="M0 0 C0.375 2.25 0.375 2.25 0 5 C-10.15066869 14.57063048 -29.78514677 15.36445458 -43 15 C-45.6796875 14.59765625 -45.6796875 14.59765625 -47.875 14.0625 C-48.98488281 13.80146484 -48.98488281 13.80146484 -50.1171875 13.53515625 C-52 13 -52 13 -54 12 C-54 9.8125 -54 9.8125 -53 7 C-41.58431038 -2.75090155 -13.44195117 -7.18052947 0 0 Z " fill="#221F20" transform="translate(55,1969)"/>
</svg>
