<?xml version="1.0" encoding="UTF-8"?>
<svg version="1.1" xmlns="http://www.w3.org/2000/svg" width="320" height="320">
<path d="M0 0 C1.93734009 0.01027222 1.93734009 0.01027222 3.91381836 0.02075195 C13.19090893 0.17695951 21.17402324 1.04334515 29.875 4.4375 C30.92042969 4.82292969 31.96585937 5.20835938 33.04296875 5.60546875 C61.48649952 16.74495038 83.77000078 38.52470069 96.625 66.0859375 C108.07913842 92.9458921 109.52464452 124.21324284 98.68310547 151.52685547 C91.44916167 168.63043376 91.44916167 168.63043376 86.875 172.4375 C85.70815785 170.1038157 85.81135055 168.91075961 85.91796875 166.32421875 C86.34030722 151.92135805 85.13102776 140.09403964 75.875 128.4375 C75.32328125 127.71175781 74.7715625 126.98601562 74.203125 126.23828125 C56.10016578 104.07376067 25.96035262 96.93191042 -0.1875 89.3125 C-36.46944764 78.71373936 -36.46944764 78.71373936 -46.0546875 62.52734375 C-51.11103462 52.65454918 -49.81636721 40.94152809 -47.16796875 30.546875 C-45.52798406 25.65763224 -43.12278181 21.60928996 -40.125 17.4375 C-39.68414062 16.80199219 -39.24328125 16.16648437 -38.7890625 15.51171875 C-29.07178563 2.84555729 -15.04389263 -0.12136086 0 0 Z " fill="#003A5C" transform="translate(145.125,15.5625)"/>
<path d="M0 0 C2 2 2 2 2.16357422 3.85668945 C2.1276416 4.60136475 2.09170898 5.34604004 2.0546875 6.11328125 C2.01335693 7.35791138 2.01335693 7.35791138 1.97119141 8.62768555 C1.93944824 9.51367432 1.90770508 10.39966309 1.875 11.3125 C1.6663875 23.88869359 4.07161493 34.01060616 12 44 C12.54011719 44.71414062 13.08023438 45.42828125 13.63671875 46.1640625 C31.60568175 68.22573942 60.44726976 75.28376716 86.54638672 82.74414062 C124.22697757 93.52539136 124.22697757 93.52539136 133.9296875 109.91015625 C138.98603462 119.78295082 137.69136721 131.49597191 135.04296875 141.890625 C133.40298406 146.77986776 130.99778181 150.82821004 128 155 C127.55914062 155.63550781 127.11828125 156.27101562 126.6640625 156.92578125 C119.83813741 165.82315759 109.49580838 170.38325702 98.8125 172.6875 C73.19343681 174.78742321 47.1699181 167.77090221 27 151.4375 C25.32421866 149.96866756 23.65688241 148.49011827 22 147 C20.87078125 146.08347656 20.87078125 146.08347656 19.71875 145.1484375 C4.32247797 132.40856451 -6.69639745 113.7747237 -13 95 C-13.41378906 93.83597656 -13.82757812 92.67195313 -14.25390625 91.47265625 C-19.94804453 72.24749949 -19.8287206 45.86409033 -13 27 C-12.7426709 26.28618164 -12.4853418 25.57236328 -12.22021484 24.83691406 C-8.99205101 16.0582752 -5.22763401 7.79357891 0 0 Z " fill="#005DB7" transform="translate(33,78)"/>
<path d="M0 0 C5.53846154 3.07692308 5.53846154 3.07692308 7 6 C10.12181618 41.88507944 -1.31686981 81.15933168 -23 110 C-23.75667969 111.03769531 -24.51335937 112.07539063 -25.29296875 113.14453125 C-41.54996397 135.11945895 -61.7115353 152.46850762 -86 165 C-86.9276416 165.47928955 -86.9276416 165.47928955 -87.87402344 165.96826172 C-109.68390087 177.05871773 -133.76320155 183.32579333 -158.25 183.625 C-159.35085937 183.64804199 -160.45171875 183.67108398 -161.5859375 183.69482422 C-169.18559874 183.61982756 -169.18559874 183.61982756 -173.171875 180.5859375 C-176.08313748 176.46786964 -176.50971009 174.0971009 -176 169 C-174.22719439 166.02327416 -172.14391985 163.57195993 -169 162 C-166.98614731 161.76594269 -164.96639322 161.58193179 -162.9453125 161.421875 C-121.01604291 157.85313782 -85.8266771 144.63280351 -56 114 C-55.48832275 113.50951172 -54.97664551 113.01902344 -54.44946289 112.51367188 C-50.15509237 108.36076725 -46.53775149 104.02203118 -43.125 99.125 C-42.61106689 98.38813965 -42.09713379 97.6512793 -41.56762695 96.89208984 C-24.98730601 72.64366023 -17.20668544 46.42019693 -15.30175781 17.33081055 C-14.37849533 5.61370156 -14.37849533 5.61370156 -9 1 C-5.89046621 -0.5547669 -3.43733239 -0.28644437 0 0 Z " fill="#005DB7" transform="translate(297,121)"/>
</svg>
