<?xml version="1.0" encoding="UTF-8"?>
<svg version="1.1" xmlns="http://www.w3.org/2000/svg" width="320" height="320">
<path d="M0 0 C2.99189758 2.24345398 2.99189758 2.24345398 5.81762695 5.07299805 C6.60219017 5.84660927 6.60219017 5.84660927 7.40260315 6.635849 C9.11291886 8.33006585 10.80071133 10.04486786 12.48828125 11.76171875 C13.67933096 12.95380705 14.8714212 14.14485654 16.0644989 15.33491516 C18.55591406 17.82650926 21.03671618 20.32806587 23.51000977 22.83764648 C26.67159468 26.04460472 29.85484961 29.22894368 33.04592609 32.40652752 C35.50806979 34.86196957 37.96009385 37.32731716 40.40904808 39.79590797 C41.57891529 40.97344146 42.75145264 42.1483287 43.92675209 43.32044029 C45.57105089 44.96399245 47.20168591 46.62001807 48.8293457 48.2800293 C49.75785843 49.21775681 50.68637115 50.15548431 51.64302063 51.12162781 C54.34794978 54.42492055 55.63064801 56.9704389 57 61 C56.21152612 66.52604026 54.21298462 69.38976449 50.24609375 73.20703125 C49.30958984 74.12291016 48.37308594 75.03878906 47.40820312 75.98242188 C46.41847965 76.92631724 45.42823933 77.86967095 44.4375 78.8125 C42.49449057 80.68971975 40.55801014 82.57351021 38.62109375 84.45703125 C37.7592749 85.28178955 36.89745605 86.10654785 36.00952148 86.95629883 C33.95233955 88.83847353 33.95233955 88.83847353 33 91 C32.01 91 31.02 91 30 91 C30 90.34 30 89.68 30 89 C29.41605469 88.72027344 28.83210938 88.44054687 28.23046875 88.15234375 C26.14121992 87.0729595 24.26126866 85.87393551 22.3125 84.5625 C12.06083556 78.07870476 -0.6843169 76.20477982 -12.4921875 78.75390625 C-18.51222738 80.52655079 -23.65882931 82.74885262 -29 86 C-32 86 -32 86 -33.45947266 84.61474609 C-34.24136963 83.64142334 -34.24136963 83.64142334 -35.0390625 82.6484375 C-39.50496252 77.31801817 -44.42541305 72.50295762 -49.375 67.625 C-51.17675401 65.8486586 -52.97635183 64.07012661 -54.7734375 62.2890625 C-55.56153809 61.51256348 -56.34963867 60.73606445 -57.16162109 59.93603516 C-60.04232215 56.90230881 -60.53251447 54.39310975 -60.46479797 50.19007874 C-59.89156235 47.4890533 -58.93010976 46.35458059 -57.06323242 44.33374023 C-56.424935 43.63908661 -55.78663757 42.94443298 -55.1289978 42.22872925 C-51.28776982 38.20756157 -47.41071672 34.22724617 -43.48828125 30.28515625 C-42.59763474 29.38880966 -41.70698822 28.49246307 -40.78935242 27.56895447 C-38.91913171 25.68934262 -37.04771952 23.81100117 -35.17456055 21.93432617 C-32.77710049 19.53133304 -30.38909794 17.11915911 -28.0030489 14.70484257 C-25.71301708 12.39174418 -23.41244564 10.08917178 -21.11328125 7.78515625 C-20.25906082 6.91858902 -19.40484039 6.05202179 -18.5247345 5.15919495 C-17.72677963 4.36424118 -16.92882477 3.56928741 -16.10668945 2.75024414 C-15.40832474 2.0482338 -14.70996002 1.34622345 -13.99043274 0.62294006 C-9.57263187 -2.97920428 -5.05413563 -1.99857196 0 0 Z " fill="#415BC6" transform="translate(193,72)"/>
<path d="M0 0 C0.81726563 -0.0721875 1.63453125 -0.144375 2.4765625 -0.21875 C9.6606208 1.56274155 15.65881588 9.63804365 20.78491211 14.78051758 C21.47697754 15.47083069 22.16904297 16.1611438 22.88208008 16.87237549 C25.14133596 19.12727263 27.39696499 21.38575667 29.65234375 23.64453125 C31.23020576 25.22171896 32.80821613 26.79875826 34.3863678 28.37565613 C37.67855761 31.66637748 40.96894621 34.9588864 44.25805664 38.25268555 C48.48045682 42.48081074 52.7073685 46.70439287 56.93561459 50.92667103 C60.18780405 54.17525585 63.43761907 57.42620756 66.68670845 60.67789268 C68.24535219 62.23720451 69.80474186 63.79577108 71.36488152 65.3535862 C73.53596099 67.52213773 75.70382902 69.69384856 77.87084961 71.86645508 C78.51858841 72.51216965 79.16632721 73.15788422 79.83369446 73.82316589 C83.58926034 77.59676601 85.54669801 79.69468783 86 85 C85.91394992 91.00629548 83.27868151 93.7265434 79.15234375 97.83984375 C78.23582031 98.71769531 77.31929688 99.59554687 76.375 100.5 C75.35083029 101.55933718 74.3314522 102.62332359 73.31640625 103.69140625 C72.27446012 104.77442227 71.23150401 105.8564676 70.1875 106.9375 C69.45805176 107.70006104 69.45805176 107.70006104 68.71386719 108.47802734 C64.63528508 112.58832257 60.89266821 115.40675303 55 115.625 C47.38868641 113.2628682 41.64320887 105.91934413 36.08862305 100.37475586 C35.40952377 99.70062149 34.7304245 99.02648712 34.03074646 98.33192444 C31.81333031 96.12896575 29.59969346 93.9222635 27.38671875 91.71484375 C26.62552042 90.9564728 25.86432209 90.19810184 25.08005714 89.41674995 C21.06035305 85.41196323 17.04347677 81.40436637 13.02905273 77.39428711 C8.88874014 73.25948174 4.73921412 69.13405245 0.58749676 65.01070309 C-2.61313386 61.82869499 -5.80703799 58.63999989 -8.99913597 55.44943428 C-10.52644801 53.92514466 -12.05625581 52.40335143 -13.58861732 50.88413811 C-15.72809337 48.76173125 -17.85788857 46.63004575 -19.9855957 44.49584961 C-20.61679321 43.87386688 -21.24799072 43.25188416 -21.89831543 42.61105347 C-26.12340654 38.34550145 -29.39646471 34.47095873 -29.875 28.25 C-27.93527806 22.43083419 -23.88117055 18.77308809 -19.625 14.5 C-18.48534883 13.33495643 -17.34604228 12.16957566 -16.20703125 11.00390625 C-5.72283692 0.35435523 -5.72283692 0.35435523 0 0 Z " fill="#F4A700" transform="translate(218.625,15.5)"/>
<path d="M0 0 C3.0502846 1.93699507 5.45338934 4.45338934 8 7 C8.99351537 7.91556624 9.98977215 8.82816372 10.98828125 9.73828125 C12.01429912 10.69915771 13.03904546 11.66139374 14.0625 12.625 C15.02285156 13.52476562 15.98320312 14.42453125 16.97265625 15.3515625 C19 18 19 18 18.9296875 20.59765625 C18.08699513 22.77520165 17.19909634 24.77520467 16.0625 26.8125 C11.25632103 36.26756481 10.32233483 47.72704496 12.7109375 58.08203125 C13.23977285 59.70007337 13.80968272 61.30600609 14.44140625 62.88671875 C15.16874725 65.63840741 14.77666819 67.26771063 14 70 C12.56015015 71.96124268 12.56015015 71.96124268 10.69287109 73.85644531 C9.64575455 74.9321579 9.64575455 74.9321579 8.57748413 76.02960205 C7.81714874 76.78811462 7.05681335 77.5466272 6.2734375 78.328125 C5.49239655 79.11773621 4.71135559 79.90734741 3.90664673 80.72088623 C2.252286 82.38672685 0.59266626 84.04735875 -1.07177734 85.703125 C-3.61223813 88.23726985 -6.12491954 90.79685724 -8.63671875 93.359375 C-10.2483763 94.97557909 -11.86160717 96.59021614 -13.4765625 98.203125 C-14.2247525 98.9697345 -14.9729425 99.73634399 -15.74380493 100.52618408 C-19.01364951 103.73921572 -21.24227154 105.75662866 -25.65771484 107.17480469 C-33.22364006 106.77909961 -37.46799645 101.97669398 -42.515625 96.8828125 C-43.21266541 96.18864227 -43.90970581 95.49447205 -44.62786865 94.77926636 C-46.09381826 93.31535137 -47.55601371 91.84766845 -49.01464844 90.37646484 C-51.24609949 88.12892863 -53.49312778 85.89786872 -55.7421875 83.66796875 C-57.16762975 82.24054443 -58.59214131 80.81218998 -60.015625 79.3828125 C-60.68644104 78.71806915 -61.35725708 78.05332581 -62.04840088 77.36843872 C-66.05984917 73.29591922 -68.92989656 70.15465476 -69.0625 64.1875 C-66.00606261 55.01818784 -55.77999782 47.63314654 -49.01171875 40.87890625 C-47.860516 39.72702865 -46.70946163 38.57500275 -45.55854797 37.4228363 C-43.16231445 35.02513787 -40.76430495 32.62923418 -38.36499023 30.23461914 C-35.28700684 27.16237118 -32.21358714 24.0856028 -29.14145184 21.00750828 C-26.77300658 18.63545767 -24.40219507 16.2657837 -22.03064919 13.89683342 C-20.89558292 12.7624345 -19.76125975 11.62729155 -18.62769127 10.49139595 C-17.05066471 8.91183915 -15.47048488 7.33550718 -13.8894043 5.76000977 C-12.99118454 4.8625856 -12.09296478 3.96516144 -11.16752625 3.0405426 C-7.50405479 -0.40830587 -5.00362793 -0.64562941 0 0 Z " fill="#415BC6" transform="translate(133,149)"/>
<path d="M0 0 C5.10649331 4.37375684 8.822792 8.65220418 11.078125 15.01171875 C11.490625 16.14609375 11.903125 17.28046875 12.328125 18.44921875 C14.1495272 27.10087922 13.32341021 35.47506549 8.7890625 43.2109375 C3.23285664 51.01042434 -3.07600108 56.0300184 -12.296875 58.69921875 C-21.72567536 59.82169498 -30.33447106 58.85685672 -38.234375 53.19921875 C-45.40924686 47.3091831 -50.92703309 39.46271692 -51.921875 30.01171875 C-52.69077911 20.20819135 -49.23361858 11.43228215 -42.921875 4.01171875 C-30.78647451 -7.2850565 -14.06076113 -9.56808478 0 0 Z M-31.234375 17.57421875 C-34.33345724 22.05067088 -34.56402242 25.64843117 -33.921875 31.01171875 C-31.5587886 35.82877948 -28.73893573 38.64863235 -23.921875 41.01171875 C-19.60912273 41.68987238 -16.11327964 41.54123192 -12.109375 39.76171875 C-8.09466922 36.54995413 -5.30388019 34.29946834 -4.68359375 28.9609375 C-4.50235975 23.43806974 -5.12250664 20.311004 -8.921875 16.01171875 C-12.88485659 12.58914374 -15.84524218 11.39807565 -20.96875 11.69140625 C-25.46803559 12.42928909 -28.220462 14.23447732 -31.234375 17.57421875 Z " fill="#F4A700" transform="translate(209.921875,168.98828125)"/>
<path d="M0 0 C2.47963169 1.6333861 4.38425948 3.62268543 6.375 5.8125 C6.89449219 6.34681641 7.41398437 6.88113281 7.94921875 7.43164062 C11.61604036 11.28322456 13.9593605 13.88674624 14.0625 19.25 C12.57648405 24.49476216 9.79633308 27.18502699 6 31 C5.47100098 31.53592773 4.94200195 32.07185547 4.39697266 32.62402344 C0.62480418 36.44348854 -3.1783555 40.23007701 -7 44 C-5.80957905 46.5417096 -4.77525973 48.2511803 -2.875 50.375 C-1 53 -1 53 -0.5 56 C-1.15176337 59.91058019 -1.93137644 61.45528778 -5 64 C-8.21733002 64.89756555 -10.75854755 64.73286981 -14 64 C-21.64342672 59.06660496 -28.1008847 51.05085777 -34.51147461 44.61889648 C-36.45377265 42.67118197 -38.4014314 40.7289407 -40.34960938 38.78710938 C-41.58625875 37.54980017 -42.82259842 36.31218132 -44.05859375 35.07421875 C-44.64080185 34.49403488 -45.22300995 33.91385101 -45.82286072 33.31608582 C-49.45462798 29.66290794 -51.15304036 27.76421944 -51.375 22.625 C-51.3290942 19.0615623 -51.24140019 18.29110023 -48.875 15.4375 C-45.39471545 13.69735772 -43.83568011 13.23286398 -40 14 C-37.44276681 15.78387638 -35.20877184 17.80429782 -33 20 C-29.55202939 18.52257538 -27.37695879 16.58643234 -24.77734375 13.90234375 C-23.99166016 13.10119141 -23.20597656 12.30003906 -22.39648438 11.47460938 C-21.58501953 10.63736328 -20.77355469 9.80011719 -19.9375 8.9375 C-18.32632009 7.27537369 -16.71063555 5.61759858 -15.08984375 3.96484375 C-14.37691162 3.2287085 -13.66397949 2.49257324 -12.92944336 1.73413086 C-9.06684393 -1.73746774 -4.7461212 -1.41580343 0 0 Z " fill="#F4A700" transform="translate(67,240)"/>
</svg>
