<?xml version="1.0" encoding="UTF-8"?>
<svg version="1.1" xmlns="http://www.w3.org/2000/svg" width="1033" height="1022">
<path d="M0 0 C1.28949051 -0.00705963 2.57898102 -0.01411926 3.907547 -0.02139282 C8.04644341 -0.04091118 12.18528062 -0.04608498 16.32421875 -0.046875 C17.03022972 -0.04716957 17.73624069 -0.04746414 18.46364594 -0.04776764 C39.78638679 -0.04920474 60.8573864 0.18837066 82.01171875 3.203125 C82.72579895 3.30258423 83.43987915 3.40204346 84.17559814 3.5045166 C137.76498919 10.98210605 189.0609139 26.12621045 238.01171875 49.203125 C238.94161621 49.63979492 239.87151367 50.07646484 240.82958984 50.52636719 C267.57891556 63.19524972 293.09478837 78.98738317 316.85498047 96.60498047 C318.96486706 98.16840786 321.08328809 99.71963404 323.203125 101.26953125 C334.88870562 109.86461818 345.81442035 119.20704046 356.53515625 128.97265625 C357.88267813 130.18627612 359.23646414 131.39361437 360.61987305 132.56616211 C366.83541683 137.86691327 372.57744102 143.61726057 378.33911133 149.40014648 C380.07066575 151.137061 381.80750234 152.86856389 383.54492188 154.59960938 C389.24747122 160.29837939 394.81046609 166.03665571 400.01171875 172.203125 C400.99591077 173.33332618 401.98155978 174.46226045 402.96875 175.58984375 C462.35803306 244.04267493 502.26439492 329.03268523 525.57421875 487.703125 C525.61740234 488.82332031 525.66058594 489.94351562 525.70507812 491.09765625 C529.19404727 587.12737855 504.71126604 683.9849903 452.01171875 772.203125 C451.49077637 773.06309082 450.96983398 773.92305664 450.43310547 774.80908203 C443.65569428 785.92612778 436.36365988 796.58913234 428.60986328 807.04638672 C427.04643589 809.15627331 425.49520971 811.27469434 423.9453125 813.39453125 C415.36024797 825.06648577 406.02861763 835.98583235 396.28027344 846.69946289 C394.8543887 848.27312281 393.43591474 849.85356239 392.02832031 851.44360352 C386.53498025 857.63563508 380.80877045 863.56142286 374.94555664 869.3996582 C373.4436495 870.89617425 371.94720813 872.398008 370.45117188 873.90039062 C365.14386756 879.21174164 359.74067598 884.34448802 354.01171875 889.203125 C352.89357662 890.17598723 351.77635889 891.14991313 350.66015625 892.125 C276.25744799 956.58112264 184.38785126 997.8142699 -21.9296875 1014.67578125 C-81.4450895 1010.21518177 -139.75710957 995.05146024 -193.98828125 970.203125 C-194.98537109 969.74711914 -195.98246094 969.29111328 -197.00976562 968.82128906 C-227.79628575 954.63534351 -256.86526487 937.54204207 -283.98828125 917.203125 C-284.60026367 916.74421875 -285.21224609 916.2853125 -285.84277344 915.8125 C-293.37928925 910.13401717 -300.74974844 904.25663197 -307.98828125 898.203125 C-308.51502441 897.76274902 -309.04176758 897.32237305 -309.58447266 896.86865234 C-322.6174424 885.93495289 -334.93649169 874.3309188 -346.98828125 862.328125 C-347.7774292 861.5436499 -348.56657715 860.7591748 -349.37963867 859.95092773 C-354.12187513 855.19558142 -358.61514094 850.29766232 -362.98828125 845.203125 C-364.00986158 844.04653405 -365.03325424 842.89154093 -366.05859375 841.73828125 C-374.16110104 832.55631513 -381.66990292 823.01762219 -388.98828125 813.203125 C-389.70346924 812.25203857 -389.70346924 812.25203857 -390.43310547 811.28173828 C-441.93405858 742.76401942 -474.2492098 661.99410568 -486.23828125 577.265625 C-486.38942383 576.20335693 -486.54056641 575.14108887 -486.69628906 574.04663086 C-487.17740286 570.43691984 -487.60112012 566.82387406 -487.98828125 563.203125 C-488.07548431 562.39219391 -488.16268738 561.58126282 -488.25253296 560.74575806 C-490.06723534 543.2575193 -490.34998444 525.83455264 -490.30078125 508.265625 C-490.29855822 506.86077888 -490.29638174 505.45593269 -490.29425049 504.05108643 C-490.2513373 483.62793026 -489.87470896 463.4569979 -486.98828125 443.203125 C-486.88882202 442.4890448 -486.78936279 441.7749646 -486.68688965 441.03924561 C-473.56275993 346.98298265 -436.0020448 258.46836328 -338.23828125 144.328125 C-337.35084229 143.43601318 -336.46340332 142.54390137 -335.54907227 141.62475586 C-330.52147411 136.60939603 -325.38351972 131.8180545 -319.98828125 127.203125 C-318.83152231 126.18173489 -317.67653418 125.15833532 -316.5234375 124.1328125 C-307.34147138 116.03030521 -297.80277844 108.52150333 -287.98828125 101.203125 C-287.35422363 100.72633301 -286.72016602 100.24954102 -286.06689453 99.75830078 C-211.75060075 43.89888185 -124.07216059 11.67109466 0 0 Z M-5.30078125 73.765625 C-11.61081951 80.28761939 -16.60623809 87.27774776 -20.98828125 95.203125 C-21.33584473 95.82413086 -21.6834082 96.44513672 -22.04150391 97.08496094 C-27.69940553 107.34788889 -31.82122884 117.93015644 -34.98828125 129.203125 C-35.189375 129.89631836 -35.39046875 130.58951172 -35.59765625 131.30371094 C-39.23282982 144.37682671 -39.53743177 157.68130537 -40.09790039 171.14987183 C-42.13370945 219.54899502 -50.21713474 275.63959373 -78.30078125 316.578125 C-80.16853378 318.96341417 -80.16853378 318.96341417 -79.98828125 321.203125 C-80.64828125 321.203125 -81.30828125 321.203125 -81.98828125 321.203125 C-81.95347656 320.14480469 -81.91867187 319.08648437 -81.8828125 317.99609375 C-80.91411585 274.20805483 -89.6965587 219.58820638 -120.69140625 186.40234375 C-125.71195163 181.59525693 -130.82194529 177.57062941 -137.98828125 177.203125 C-137.86710938 177.84636719 -137.7459375 178.48960937 -137.62109375 179.15234375 C-137.26227407 181.08720989 -136.91148384 183.02357331 -136.56640625 184.9609375 C-136.19538223 187.04168032 -135.81110566 189.12012839 -135.41015625 191.1953125 C-127.47224215 235.76103026 -148.24390315 281.39617688 -163.45532227 322.27294922 C-184.78228493 379.61697621 -199.57078377 439.27719549 -178.98828125 499.203125 C-178.76978516 499.8739209 -178.55128906 500.5447168 -178.32617188 501.23583984 C-170.41955671 525.49698439 -156.16785906 546.03231732 -140.98828125 566.203125 C-176.26808967 559.05638721 -211.44420642 551.52769603 -246.56445312 543.63671875 C-264.68100598 539.55709368 -264.68100598 539.55709368 -282.83984375 535.671875 C-283.6316806 535.5013562 -284.42351746 535.3308374 -285.23934937 535.15515137 C-288.8606397 534.42208466 -291.45765606 534.14533884 -294.98828125 535.203125 C-280.25298682 577.0719589 -258.00012274 614.30370936 -229.48074311 648.24161988 C-227.98828125 650.203125 -227.98828125 650.203125 -226.63205224 652.6852538 C-223.76533188 657.33693478 -221.57353465 659.81704687 -216.15509069 661.13667357 C-211.14545406 661.63408925 -206.13306814 661.54206343 -201.10539246 661.47969055 C-199.1511412 661.49193245 -197.19691319 661.50852944 -195.24273187 661.52910107 C-189.87712303 661.57279721 -184.51327016 661.55408606 -179.14762866 661.52503073 C-173.35936716 661.50447465 -167.57143211 661.54140854 -161.7832489 661.57090759 C-150.44522469 661.61925573 -139.10784828 661.61332757 -127.76977392 661.5878062 C-118.55422996 661.56796171 -109.33887057 661.56725166 -100.12331581 661.58022118 C-98.15642378 661.58295276 -98.15642378 661.58295276 -96.14979655 661.58573952 C-94.153826 661.58856403 -92.15785545 661.59138868 -90.16188501 661.594287 C-65.22060604 661.63008639 -40.27968322 661.60675718 -15.33844403 661.5575539 C6.81016225 661.51424555 28.95811863 661.52554673 51.10668945 661.58227539 C75.99805328 661.64586124 100.889046 661.67352617 125.78048724 661.6448018 C128.43542677 661.64186795 131.09036637 661.63898712 133.74530602 661.6361599 C135.70472681 661.63405683 135.70472681 661.63405683 137.70373187 661.63191128 C146.90603871 661.62456809 156.10808463 661.64311189 165.31034279 661.67180824 C176.52845776 661.70616431 187.74574245 661.70147817 198.96379022 661.64677212 C204.68707083 661.61986533 210.40893246 661.61051376 216.13217926 661.64896774 C221.37441966 661.68369525 226.6139641 661.66741945 231.85599192 661.61088564 C233.7495901 661.59931558 235.64341221 661.60619213 237.53684697 661.63362781 C249.20404213 661.94410944 249.20404213 661.94410944 259.03116662 656.42134039 C261.20010928 654.13914926 263.11643995 651.71510278 265.01171875 649.203125 C266.46627548 647.49157494 267.92404092 645.78274004 269.38671875 644.078125 C270.93926994 642.12840955 272.47969821 640.16901376 274.01171875 638.203125 C274.75059326 637.26291504 274.75059326 637.26291504 275.50439453 636.30371094 C287.75889402 620.68267265 298.30047578 604.51430783 308.01171875 587.203125 C308.38570801 586.543125 308.75969727 585.883125 309.14501953 585.203125 C323.43596616 560.84037971 323.43596616 560.84037971 330.01171875 534.203125 C323.30672356 534.76823944 316.77722551 535.69868191 310.1796875 537.00976562 C308.78639725 537.28090683 308.78639725 537.28090683 307.36495972 537.55752563 C304.30879622 538.15356053 301.25399616 538.75627961 298.19921875 539.359375 C296.02732067 539.78508759 293.85536303 540.21049641 291.68334961 540.63562012 C287.11676507 541.53049758 282.55083218 542.42860951 277.98535156 543.32910156 C272.27001381 544.45620169 266.55330004 545.57612053 260.83609009 546.69367981 C236.8812986 551.37920164 212.95689487 556.15912118 189.12719727 561.44934082 C181.43689736 563.14384241 173.88943797 564.68033816 166.01171875 565.203125 C166.62917969 564.42710937 167.24664063 563.65109375 167.8828125 562.8515625 C205.19974149 515.48291045 216.74641648 460.42836044 210.37109375 401.20996094 C205.54969575 360.87005759 190.77790134 324.40545234 170.65063477 289.35083008 C166.11314661 281.44477607 161.88818989 273.45277389 158.01171875 265.203125 C157.71604004 264.57986328 157.42036133 263.95660156 157.11572266 263.31445312 C141.23073037 229.52101282 131.11876172 188.14574382 141.01171875 151.203125 C141.29789063 150.08292969 141.5840625 148.96273437 141.87890625 147.80859375 C142.55212169 145.25999245 143.25728207 142.72861517 144.01171875 140.203125 C99.99317921 174.65241681 90.85910357 247.67417128 84.34350586 299.46142578 C81.41254933 323.96217212 79.68530064 348.59043892 78.01171875 373.203125 C75.49121105 359.20668056 73.57803714 345.22520781 72.23046875 331.07421875 C72.15931854 330.32888508 72.08816833 329.58355141 72.01486206 328.81563187 C71.42906729 322.64725297 70.86277942 316.47710916 70.29815674 310.3067627 C67.16459242 273.5640908 67.16459242 273.5640908 58.78515625 237.7421875 C58.49737305 236.83887695 58.20958984 235.93556641 57.91308594 235.00488281 C57.61563477 234.08030273 57.31818359 233.15572266 57.01171875 232.203125 C56.7168457 231.26823242 56.42197266 230.33333984 56.11816406 229.37011719 C49.41467868 208.34270759 41.1056529 187.8950977 32.94335938 167.40307617 C28.81777978 157.02941272 24.71371825 146.66024153 21.015625 136.125 C20.74732376 135.36186996 20.47902252 134.59873993 20.20259094 133.81248474 C12.66272929 111.91685748 7.52167103 88.95161623 17.69921875 66.890625 C18.13621094 66.02824219 18.57320313 65.16585937 19.0234375 64.27734375 C20.15509593 62.28514052 20.15509593 62.28514052 20.01171875 60.203125 C10.13428847 60.203125 1.43656401 67.06882175 -5.30078125 73.765625 Z M-219.98828125 705.203125 C-219.98828125 733.583125 -219.98828125 761.963125 -219.98828125 791.203125 C-62.90828125 791.203125 94.17171875 791.203125 256.01171875 791.203125 C256.01171875 762.823125 256.01171875 734.443125 256.01171875 705.203125 C98.93171875 705.203125 -58.14828125 705.203125 -219.98828125 705.203125 Z M-125.98828125 831.203125 C-125.98828125 861.26083739 -113.76914683 885.99248543 -93.11328125 907.453125 C-59.72556571 939.57894263 -16.45696402 950.03058395 28.6473999 949.38052368 C37.31413927 949.20506411 45.58955894 948.26830761 54.01171875 946.203125 C54.8423584 946.00444824 55.67299805 945.80577148 56.52880859 945.60107422 C69.31275332 942.45748125 81.20913177 938.00977798 93.01171875 932.203125 C94.02492188 931.71070313 95.038125 931.21828125 96.08203125 930.7109375 C123.73666434 916.44017932 146.69087321 891.84354417 156.67578125 862.23388672 C160.07334544 851.54929995 161.01171875 842.67083807 161.01171875 831.203125 C66.30171875 831.203125 -28.40828125 831.203125 -125.98828125 831.203125 Z " fill="#E6512B" transform="translate(489.98828125,5.796875)"/>
</svg>
