<?xml version="1.0" encoding="UTF-8"?>
<svg version="1.1" xmlns="http://www.w3.org/2000/svg" width="225" height="225">
<path d="M0 0 C74.25 0 148.5 0 225 0 C225 74.25 225 148.5 225 225 C150.75 225 76.5 225 0 225 C0 150.75 0 76.5 0 0 Z " fill="#FF6601" transform="translate(0,0)"/>
<path d="M0 0 C33 0 66 0 100 0 C100 74.25 100 148.5 100 225 C95.71 225 91.42 225 87 225 C87.804375 224.21625 88.60875 223.4325 89.4375 222.625 C92.79021822 219.19050816 93.1249603 217.80050325 93.14044189 213.15481567 C93.14615204 212.13132019 93.15186218 211.10782471 93.15774536 210.05331421 C93.15886322 208.92599884 93.15998108 207.79868347 93.16113281 206.63720703 C93.16609772 205.45340454 93.17106262 204.26960205 93.17617798 203.04992676 C93.18829872 199.79780839 93.1957479 196.545726 93.20018864 193.29358912 C93.2031185 191.2623215 93.20722313 189.23105954 93.21169281 187.19979477 C93.225369 180.84595551 93.2350351 174.49212917 93.2388947 168.13827622 C93.24337614 160.80080945 93.26092731 153.46352891 93.2898953 146.12611878 C93.31150309 140.4564199 93.32159849 134.78677346 93.32293582 129.11703384 C93.32398449 125.72984721 93.32990523 122.34283561 93.34775543 118.95569229 C93.36475316 115.17751083 93.36295084 111.3997859 93.35644531 107.62158203 C93.3656601 106.49831512 93.37487488 105.37504822 93.3843689 104.21774292 C93.37879974 103.18860779 93.37323059 102.15947266 93.36749268 101.09915161 C93.36895924 100.20576647 93.3704258 99.31238132 93.3719368 98.3919239 C92.91851811 95.47599034 92.02570676 94.12217861 90 92 C86.44118415 90.81372805 83.59575127 90.86810716 79.83813477 90.8581543 C79.11260406 90.85467987 78.38707336 90.85120544 77.63955688 90.84762573 C76.06483793 90.84027729 74.49010867 90.83492705 72.91537666 90.83133507 C70.42298614 90.82416576 67.93079204 90.80849676 65.4384613 90.78999329 C58.35247451 90.73753847 51.26659681 90.6895274 44.18041992 90.67407227 C39.84549711 90.66399771 35.51107071 90.63469007 31.17634392 90.59275246 C29.52457367 90.58043286 27.87273335 90.57532296 26.22091866 90.57755089 C23.91049205 90.57990081 21.60149349 90.55776477 19.29125977 90.5300293 C17.97682388 90.52416306 16.662388 90.51829681 15.30812073 90.51225281 C12 90 12 90 9.57444763 88.44354248 C7.4333761 85.12059979 7.45714525 82.20008772 7.51757812 78.37329102 C7.51366562 77.6102063 7.50975311 76.84712158 7.50572205 76.06091309 C7.49975233 74.40709317 7.50290762 72.75322069 7.5141449 71.09942818 C7.53140502 68.48038427 7.52390067 65.86244436 7.5098877 63.24339294 C7.48023429 56.73939181 7.49342703 50.23560143 7.50506592 43.73156738 C7.51327045 38.23453154 7.50532683 32.73797791 7.47593689 27.24101067 C7.46884453 24.66326239 7.48551843 22.08636352 7.50305176 19.50868225 C7.49734331 17.9244847 7.49052575 16.34029062 7.48242188 14.75610352 C7.49939369 13.68443184 7.49939369 13.68443184 7.51670837 12.59111023 C7.45792304 7.77813822 6.40411483 5.37712441 3 2 C2.01 1.34 1.02 0.68 0 0 Z " fill="#FFFEFE" transform="translate(125,0)"/>
<path d="M0 0 C17.49 0 34.98 0 53 0 C52.01 0.66 51.02 1.32 50 2 C47.05494792 4.71850961 46.03763897 6.07903716 45.86869812 10.21273804 C45.86021209 11.61364651 45.85713297 13.01459354 45.8581543 14.41552734 C45.85467987 15.1799263 45.85120544 15.94432526 45.84762573 16.73188782 C45.8402656 18.39447678 45.83492159 20.05707559 45.83133507 21.71967697 C45.82417886 24.35060382 45.80851905 26.98134315 45.78999329 29.61221313 C45.73748147 37.0933374 45.68953383 44.57435943 45.67407227 52.05566406 C45.66399913 56.62932471 45.63469207 61.2025147 45.59275246 65.77598953 C45.58042789 67.51986763 45.57532386 69.26381217 45.57755089 71.00773239 C45.57990001 73.4475616 45.55776909 75.88603715 45.5300293 78.32568359 C45.53993141 79.40746132 45.53993141 79.40746132 45.55003357 80.51109314 C45.48681359 83.89491975 45.21741744 85.71118932 43.15766907 88.44729614 C40.17272666 90.59532322 38.06100787 90.51713897 34.40625 90.53125 C33.12878906 90.53640625 31.85132812 90.5415625 30.53515625 90.546875 C29.87273926 90.53849609 29.21032227 90.53011719 28.52783203 90.52148438 C26.50561552 90.5000595 24.48695039 90.52129739 22.46484375 90.546875 C21.18738281 90.54171875 19.90992187 90.5365625 18.59375 90.53125 C17.42521484 90.52673828 16.25667969 90.52222656 15.05273438 90.51757812 C11.24733154 89.87238827 10.30324834 89.06921446 8 86 C7.61737159 83.2852462 7.47540952 80.97657657 7.51757812 78.265625 C7.51170937 77.10395813 7.51170937 77.10395813 7.50572205 75.91882324 C7.49975217 74.24044609 7.5029079 72.56201714 7.5141449 70.88366699 C7.53139875 68.22709713 7.52390446 65.57161622 7.5098877 62.91503906 C7.48022909 56.31878921 7.49343696 49.72274718 7.50506592 43.12646484 C7.51326346 37.55023389 7.50535812 31.97447859 7.47593689 26.39831543 C7.46883465 23.78119443 7.48552989 21.16490681 7.50305176 18.54785156 C7.49734467 16.94335479 7.49052777 15.33886145 7.48242188 13.734375 C7.49373642 13.0069812 7.50505096 12.2795874 7.51670837 11.53015137 C7.47586409 8.15072341 7.26609079 6.340568 5.15734863 3.64160156 C3.48259605 2.36722411 1.75103281 1.16735521 0 0 Z " fill="#FFFEFE" transform="translate(43,0)"/>
<path d="M0 0 C1.27617187 -0.02900391 2.55234375 -0.05800781 3.8671875 -0.08789062 C14.40391071 -0.15938196 14.40391071 -0.15938196 18.015625 2.08203125 C22.88176797 6.93966698 22.53258228 11.39767542 22.57226562 18.01757812 C22.56904297 19.24927734 22.56582031 20.48097656 22.5625 21.75 C22.57861328 22.97783203 22.59472656 24.20566406 22.61132812 25.47070312 C22.61197266 26.65470703 22.61261719 27.83871094 22.61328125 29.05859375 C22.61626221 30.13810303 22.61924316 31.2176123 22.62231445 32.32983398 C22.19005469 35.79273076 21.39036147 37.56602881 19.25 40.3125 C13.66597588 44.64522874 7.57571664 43.78934182 0.8125 43.75 C-0.40244141 43.76998047 -1.61738281 43.78996094 -2.86914062 43.81054688 C-14.14761266 43.80436689 -14.14761266 43.80436689 -18.75 39.3125 C-22.13339561 34.03738473 -21.16004178 27.4722065 -21.1875 21.4375 C-21.22037109 20.17035156 -21.25324219 18.90320313 -21.28710938 17.59765625 C-21.34732817 7.18527862 -21.34732817 7.18527862 -18.34765625 3.4921875 C-12.88971563 -1.08755817 -6.8712378 0.05143142 0 0 Z " fill="#FFFDFC" transform="translate(154.75,135.6875)"/>
<path d="M0 0 C4.29 0 8.58 0 13 0 C12.02529786 0.97311819 11.05059572 1.94623638 10.04635715 2.948843 C6.44450735 7.17918856 6.1534898 10.40449194 6.25828552 15.81851196 C6.25104228 16.68259466 6.24379903 17.54667735 6.23633629 18.43694437 C6.21948507 21.32015488 6.24536174 24.20135311 6.27124023 27.08447266 C6.26802005 29.15618936 6.26220143 31.22790342 6.25398254 33.29960632 C6.23945674 38.91738462 6.2623776 44.53444655 6.29284167 50.15213823 C6.31921227 56.0314606 6.31391031 61.91076116 6.3127594 67.79013062 C6.31556778 77.66099013 6.34160038 87.53157273 6.38256836 97.40234375 C6.42976953 108.81716933 6.44556168 120.23169187 6.4433617 131.646608 C6.44153121 142.62704146 6.45684263 153.60737619 6.48173714 164.58778 C6.49233278 169.26151678 6.49782646 173.93521862 6.49941826 178.60896683 C6.5024301 184.11002773 6.52073224 189.61083386 6.55091667 195.11181068 C6.55968432 197.13184741 6.56336925 199.15191345 6.56163406 201.17196846 C6.56016311 203.92673555 6.57711561 206.68078779 6.59886169 209.43545532 C6.59421589 210.23710637 6.58957008 211.03875741 6.58478349 211.86470091 C6.66077619 217.68304741 7.92222032 220.92222032 12 225 C8.04 225 4.08 225 0 225 C0 150.75 0 76.5 0 0 Z " fill="#FFFEFE" transform="translate(0,0)"/>
</svg>
