<?xml version="1.0" encoding="UTF-8"?>
<svg version="1.1" xmlns="http://www.w3.org/2000/svg" width="541" height="529">
<path d="M0 0 C2.35249492 -0.00435576 4.70498842 -0.00954176 7.05747986 -0.01548767 C13.40486359 -0.02879733 19.75218748 -0.02946524 26.09958243 -0.02692437 C32.09503351 -0.02571243 38.09047644 -0.03194983 44.08592425 -0.03735783 C56.68996802 -0.0481975 69.29398494 -0.04608814 81.8980302 -0.03997298 C93.3803441 -0.03480938 104.86257301 -0.04605097 116.34487011 -0.0650712 C128.18688599 -0.08453409 140.02886183 -0.09269074 151.87089378 -0.08894795 C158.49838788 -0.08704835 165.1258189 -0.08967263 171.75330162 -0.10366249 C177.99235317 -0.11634131 184.23123612 -0.11420267 190.47028542 -0.1012516 C192.74324732 -0.09890784 195.01622148 -0.10154015 197.28916931 -0.10987473 C228.92604972 -0.21740081 259.13119893 4.25150327 283.30200195 26.2746582 C284.00711914 26.89856445 284.71223633 27.5224707 285.4387207 28.1652832 C305.60398315 47.02317107 313.58260909 75.1588575 314.58045578 101.99108887 C314.72344258 108.17406597 314.70845383 114.35606639 314.69018555 120.5402832 C314.69426239 122.89351646 314.69961045 125.24674779 314.70611572 127.59997559 C314.71966284 133.9264353 314.71454331 140.25274643 314.70497847 146.57920837 C314.69809572 152.56190689 314.70338249 158.54459259 314.70776005 164.52729082 C314.71627185 177.09799137 314.70654646 189.66862581 314.69035895 202.23931551 C314.67695962 212.97638987 314.67928891 223.71336685 314.69311523 234.45043945 C314.70924608 246.98260977 314.71544827 259.51472245 314.70627844 272.0469017 C314.70157082 278.65754819 314.70089342 285.26814078 314.71088791 291.87878418 C314.71963512 298.09739262 314.71339585 304.31581948 314.69620514 310.53440857 C314.69228133 312.79930827 314.6933026 315.0642236 314.69999313 317.32911682 C314.78996117 350.91447015 309.41208266 379.8885847 286.30200195 405.2746582 C285.44008391 406.35205576 284.58068056 407.43147017 283.72387695 408.51293945 C281.47641207 411.07577441 280.32837917 411.99883251 277.30200195 413.2746582 C275.66146238 414.39813002 274.03733185 415.54579777 272.42700195 416.7121582 C263.1574707 423.2746582 263.1574707 423.2746582 259.30200195 423.2746582 C258.97200195 423.9346582 258.64200195 424.5946582 258.30200195 425.2746582 C256.37197732 426.03802615 254.40641955 426.71295337 252.42700195 427.3371582 C250.82211914 427.84956055 250.82211914 427.84956055 249.18481445 428.37231445 C248.23348633 428.67008789 247.2821582 428.96786133 246.30200195 429.2746582 C245.31200195 429.6046582 244.32200195 429.9346582 243.30200195 430.2746582 C240.51244888 430.79734432 237.72427866 431.29742012 234.92700195 431.7746582 C233.41909936 432.03455268 231.91128448 432.29495666 230.40356445 432.5559082 C229.73663574 432.66999023 229.06970703 432.78407227 228.38256836 432.90161133 C226.3035077 433.24804457 226.3035077 433.24804457 224.29600239 433.78919601 C219.96734783 434.49106569 215.69583162 434.41910514 211.31742859 434.4151001 C210.30355743 434.41807122 209.28968627 434.42104234 208.24509174 434.4241035 C204.84307365 434.43278437 201.44109079 434.43429827 198.0390625 434.43579102 C195.60126165 434.4404198 193.16346152 434.44544455 190.72566223 434.45083618 C184.09699706 434.46396063 177.46833921 434.47044289 170.83966422 434.47484684 C166.69481831 434.47761336 162.54997473 434.48185162 158.40513039 434.48635101 C146.91424932 434.49854508 135.42337011 434.50884202 123.93248272 434.5122261 C122.8296794 434.51255545 122.8296794 434.51255545 121.70459722 434.51289146 C120.96768808 434.51310973 120.23077893 434.51332801 119.4715392 434.5135529 C117.97842197 434.51399636 116.48530473 434.51444292 114.9921875 434.51489258 C114.25155828 434.51511401 113.51092906 434.51533544 112.74785654 434.51556358 C100.77001518 434.51950432 88.79223494 434.53693557 76.81441715 434.5602521 C64.49704401 434.58403449 52.17970143 434.59643119 39.86230499 434.59759402 C32.9547819 434.59850727 26.04733831 434.6041701 19.13983727 434.62241364 C12.63340028 434.63953782 6.12707337 434.641016 -0.37938118 434.63227463 C-2.75764113 434.63150785 -5.13590938 434.63579917 -7.51414871 434.64573288 C-20.33139097 434.69609586 -32.18845128 434.15660056 -44.69799805 431.2746582 C-46.69557524 430.92710034 -48.69492017 430.58896718 -50.69799805 430.2746582 C-50.69799805 429.6146582 -50.69799805 428.9546582 -50.69799805 428.2746582 C-51.48174805 428.3571582 -52.26549805 428.4396582 -53.07299805 428.5246582 C-58.07426711 428.1797431 -62.14955685 426.28819739 -66.69799805 424.2746582 C-66.69799805 423.6146582 -66.69799805 422.9546582 -66.69799805 422.2746582 C-67.72666992 422.03360352 -68.7553418 421.79254883 -69.81518555 421.54418945 C-73.76492386 420.41214317 -76.56801573 418.49050608 -79.82299805 415.9621582 C-80.81557617 415.20290039 -81.8081543 414.44364258 -82.83081055 413.66137695 C-85.62818605 411.33277146 -88.16198666 408.8826432 -90.69799805 406.2746582 C-91.58938477 405.41807617 -91.58938477 405.41807617 -92.4987793 404.54418945 C-93.93604389 403.15891893 -95.31892689 401.7178722 -96.69799805 400.2746582 C-96.69799805 399.6146582 -96.69799805 398.9546582 -96.69799805 398.2746582 C-97.35799805 398.2746582 -98.01799805 398.2746582 -98.69799805 398.2746582 C-98.69799805 397.6146582 -98.69799805 396.9546582 -98.69799805 396.2746582 C-99.35799805 395.9446582 -100.01799805 395.6146582 -100.69799805 395.2746582 C-107.95035391 385.59209338 -114.55750529 373.44021872 -116.36987305 361.3840332 C-116.67503439 359.04972932 -116.67503439 359.04972932 -117.76049805 356.0246582 C-121.07489198 342.76708247 -119.85295743 328.03475073 -119.85913086 314.46484375 C-119.86376727 312.07659836 -119.86879302 309.68835369 -119.87417603 307.30010986 C-119.88857521 300.17640266 -119.89467163 293.05270328 -119.89957154 285.92898414 C-119.9021618 282.56056858 -119.90595039 279.19215445 -119.90969086 275.82374001 C-119.92186605 264.60700348 -119.93217115 253.3902688 -119.93556595 242.17352581 C-119.9358953 241.10058105 -119.9358953 241.10058105 -119.9362313 240.00596063 C-119.93644958 239.28911458 -119.93666786 238.57226854 -119.93689275 237.83369988 C-119.93733619 236.38148351 -119.93778275 234.92926715 -119.93823242 233.47705078 C-119.93845385 232.75672646 -119.93867528 232.03640214 -119.93890342 231.29424981 C-119.94285083 219.62481557 -119.96031097 207.95544378 -119.98359194 196.28603365 C-120.00738161 184.26330396 -120.01977112 172.24060553 -120.02093387 160.21785194 C-120.02184597 153.48424845 -120.02780632 146.75073896 -120.04575348 140.0171566 C-120.06231483 133.68130272 -120.06435068 127.34560301 -120.05561447 121.00973511 C-120.05484853 118.69638974 -120.05912767 116.3830358 -120.06907272 114.06971169 C-120.11641214 102.3635694 -119.83238058 91.1677661 -117.40885544 79.68591022 C-116.78438589 76.68921492 -116.35048117 73.75133898 -116.01049805 70.7121582 C-114.10809904 60.22498385 -106.66626094 45.12675053 -99.0925293 37.70043945 C-97.43458536 36.21321382 -97.43458536 36.21321382 -96.69799805 33.2746582 C-94.22970964 30.72717337 -91.41733303 28.54885083 -88.69799805 26.2746582 C-87.52043945 25.21504883 -87.52043945 25.21504883 -86.3190918 24.1340332 C-75.64400532 14.81166761 -63.69005077 8.78963693 -50.13549805 4.8371582 C-49.33450684 4.60230713 -48.53351563 4.36745605 -47.70825195 4.12548828 C-32.02664473 -0.0923987 -16.10548033 -0.01985239 0 0 Z " fill="#F04543" transform="translate(176.697998046875,41.725341796875)"/>
<path d="M0 0 C2.35249492 -0.00435576 4.70498842 -0.00954176 7.05747986 -0.01548767 C13.40486359 -0.02879733 19.75218748 -0.02946524 26.09958243 -0.02692437 C32.09503351 -0.02571243 38.09047644 -0.03194983 44.08592425 -0.03735783 C56.68996802 -0.0481975 69.29398494 -0.04608814 81.8980302 -0.03997298 C93.3803441 -0.03480938 104.86257301 -0.04605097 116.34487011 -0.0650712 C128.18688599 -0.08453409 140.02886183 -0.09269074 151.87089378 -0.08894795 C158.49838788 -0.08704835 165.1258189 -0.08967263 171.75330162 -0.10366249 C177.99235317 -0.11634131 184.23123612 -0.11420267 190.47028542 -0.1012516 C192.74324732 -0.09890784 195.01622148 -0.10154015 197.28916931 -0.10987473 C228.92604972 -0.21740081 259.13119893 4.25150327 283.30200195 26.2746582 C284.00711914 26.89856445 284.71223633 27.5224707 285.4387207 28.1652832 C305.60398315 47.02317107 313.58260909 75.1588575 314.58045578 101.99108887 C314.72344258 108.17406597 314.70845383 114.35606639 314.69018555 120.5402832 C314.69426239 122.89351646 314.69961045 125.24674779 314.70611572 127.59997559 C314.71966284 133.9264353 314.71454331 140.25274643 314.70497847 146.57920837 C314.69809572 152.56190689 314.70338249 158.54459259 314.70776005 164.52729082 C314.71627185 177.09799137 314.70654646 189.66862581 314.69035895 202.23931551 C314.67695962 212.97638987 314.67928891 223.71336685 314.69311523 234.45043945 C314.70924608 246.98260977 314.71544827 259.51472245 314.70627844 272.0469017 C314.70157082 278.65754819 314.70089342 285.26814078 314.71088791 291.87878418 C314.71963512 298.09739262 314.71339585 304.31581948 314.69620514 310.53440857 C314.69228133 312.79930827 314.6933026 315.0642236 314.69999313 317.32911682 C314.78996117 350.91447015 309.41208266 379.8885847 286.30200195 405.2746582 C285.44008391 406.35205576 284.58068056 407.43147017 283.72387695 408.51293945 C281.47641207 411.07577441 280.32837917 411.99883251 277.30200195 413.2746582 C275.66146238 414.39813002 274.03733185 415.54579777 272.42700195 416.7121582 C263.1574707 423.2746582 263.1574707 423.2746582 259.30200195 423.2746582 C258.97200195 423.9346582 258.64200195 424.5946582 258.30200195 425.2746582 C256.37197732 426.03802615 254.40641955 426.71295337 252.42700195 427.3371582 C250.82211914 427.84956055 250.82211914 427.84956055 249.18481445 428.37231445 C248.23348633 428.67008789 247.2821582 428.96786133 246.30200195 429.2746582 C245.31200195 429.6046582 244.32200195 429.9346582 243.30200195 430.2746582 C240.51244888 430.79734432 237.72427866 431.29742012 234.92700195 431.7746582 C233.41909936 432.03455268 231.91128448 432.29495666 230.40356445 432.5559082 C229.73663574 432.66999023 229.06970703 432.78407227 228.38256836 432.90161133 C226.3035077 433.24804457 226.3035077 433.24804457 224.29600239 433.78919601 C219.96734783 434.49106569 215.69583162 434.41910514 211.31742859 434.4151001 C210.30355743 434.41807122 209.28968627 434.42104234 208.24509174 434.4241035 C204.84307365 434.43278437 201.44109079 434.43429827 198.0390625 434.43579102 C195.60126165 434.4404198 193.16346152 434.44544455 190.72566223 434.45083618 C184.09699706 434.46396063 177.46833921 434.47044289 170.83966422 434.47484684 C166.69481831 434.47761336 162.54997473 434.48185162 158.40513039 434.48635101 C146.91424932 434.49854508 135.42337011 434.50884202 123.93248272 434.5122261 C122.8296794 434.51255545 122.8296794 434.51255545 121.70459722 434.51289146 C120.96768808 434.51310973 120.23077893 434.51332801 119.4715392 434.5135529 C117.97842197 434.51399636 116.48530473 434.51444292 114.9921875 434.51489258 C114.25155828 434.51511401 113.51092906 434.51533544 112.74785654 434.51556358 C100.77001518 434.51950432 88.79223494 434.53693557 76.81441715 434.5602521 C64.49704401 434.58403449 52.17970143 434.59643119 39.86230499 434.59759402 C32.9547819 434.59850727 26.04733831 434.6041701 19.13983727 434.62241364 C12.63340028 434.63953782 6.12707337 434.641016 -0.37938118 434.63227463 C-2.75764113 434.63150785 -5.13590938 434.63579917 -7.51414871 434.64573288 C-20.33139097 434.69609586 -32.18845128 434.15660056 -44.69799805 431.2746582 C-46.69557524 430.92710034 -48.69492017 430.58896718 -50.69799805 430.2746582 C-50.69799805 429.6146582 -50.69799805 428.9546582 -50.69799805 428.2746582 C-51.48174805 428.3571582 -52.26549805 428.4396582 -53.07299805 428.5246582 C-58.07426711 428.1797431 -62.14955685 426.28819739 -66.69799805 424.2746582 C-66.69799805 423.6146582 -66.69799805 422.9546582 -66.69799805 422.2746582 C-67.72666992 422.03360352 -68.7553418 421.79254883 -69.81518555 421.54418945 C-73.76492386 420.41214317 -76.56801573 418.49050608 -79.82299805 415.9621582 C-80.81557617 415.20290039 -81.8081543 414.44364258 -82.83081055 413.66137695 C-85.62818605 411.33277146 -88.16198666 408.8826432 -90.69799805 406.2746582 C-91.58938477 405.41807617 -91.58938477 405.41807617 -92.4987793 404.54418945 C-93.93604389 403.15891893 -95.31892689 401.7178722 -96.69799805 400.2746582 C-96.69799805 399.6146582 -96.69799805 398.9546582 -96.69799805 398.2746582 C-97.35799805 398.2746582 -98.01799805 398.2746582 -98.69799805 398.2746582 C-98.69799805 397.6146582 -98.69799805 396.9546582 -98.69799805 396.2746582 C-99.35799805 395.9446582 -100.01799805 395.6146582 -100.69799805 395.2746582 C-107.95035391 385.59209338 -114.55750529 373.44021872 -116.36987305 361.3840332 C-116.67503439 359.04972932 -116.67503439 359.04972932 -117.76049805 356.0246582 C-121.07489198 342.76708247 -119.85295743 328.03475073 -119.85913086 314.46484375 C-119.86376727 312.07659836 -119.86879302 309.68835369 -119.87417603 307.30010986 C-119.88857521 300.17640266 -119.89467163 293.05270328 -119.89957154 285.92898414 C-119.9021618 282.56056858 -119.90595039 279.19215445 -119.90969086 275.82374001 C-119.92186605 264.60700348 -119.93217115 253.3902688 -119.93556595 242.17352581 C-119.9358953 241.10058105 -119.9358953 241.10058105 -119.9362313 240.00596063 C-119.93644958 239.28911458 -119.93666786 238.57226854 -119.93689275 237.83369988 C-119.93733619 236.38148351 -119.93778275 234.92926715 -119.93823242 233.47705078 C-119.93845385 232.75672646 -119.93867528 232.03640214 -119.93890342 231.29424981 C-119.94285083 219.62481557 -119.96031097 207.95544378 -119.98359194 196.28603365 C-120.00738161 184.26330396 -120.01977112 172.24060553 -120.02093387 160.21785194 C-120.02184597 153.48424845 -120.02780632 146.75073896 -120.04575348 140.0171566 C-120.06231483 133.68130272 -120.06435068 127.34560301 -120.05561447 121.00973511 C-120.05484853 118.69638974 -120.05912767 116.3830358 -120.06907272 114.06971169 C-120.11641214 102.3635694 -119.83238058 91.1677661 -117.40885544 79.68591022 C-116.78438589 76.68921492 -116.35048117 73.75133898 -116.01049805 70.7121582 C-114.10809904 60.22498385 -106.66626094 45.12675053 -99.0925293 37.70043945 C-97.43458536 36.21321382 -97.43458536 36.21321382 -96.69799805 33.2746582 C-94.22970964 30.72717337 -91.41733303 28.54885083 -88.69799805 26.2746582 C-87.52043945 25.21504883 -87.52043945 25.21504883 -86.3190918 24.1340332 C-75.64400532 14.81166761 -63.69005077 8.78963693 -50.13549805 4.8371582 C-49.33450684 4.60230713 -48.53351563 4.36745605 -47.70825195 4.12548828 C-32.02664473 -0.0923987 -16.10548033 -0.01985239 0 0 Z M-28.69799805 5.2746582 C-10.87799805 14.1846582 6.94200195 23.0946582 25.30200195 32.2746582 C22.00200195 35.9046582 18.70200195 39.5346582 15.30200195 43.2746582 C10.00957792 49.68262239 10.00957792 49.68262239 5.23950195 56.4621582 C3.53349079 58.93862602 1.88132133 60.75780856 -0.26049805 62.8371582 C-2.94568326 65.44743482 -5.07944964 67.84714393 -6.69799805 71.2746582 C-6.69799805 72.2646582 -6.69799805 73.2546582 -6.69799805 74.2746582 C-7.24456055 74.47575195 -7.79112305 74.6768457 -8.35424805 74.8840332 C-11.64425367 76.83610321 -13.8012732 79.60548652 -16.19799805 82.5246582 C-16.90762695 83.36577148 -16.90762695 83.36577148 -17.6315918 84.22387695 C-20.57997467 87.76030295 -23.17033688 91.42065441 -25.69799805 95.2746582 C-26.54362305 96.2852832 -27.38924805 97.2959082 -28.26049805 98.3371582 C-32.20621107 102.78246649 -32.20621107 102.78246649 -33.69799805 108.2746582 C-34.28323242 108.52344727 -34.8684668 108.77223633 -35.47143555 109.02856445 C-38.00965504 110.44907677 -39.44996931 111.99670351 -41.32299805 114.2121582 C-42.20858398 115.24663086 -42.20858398 115.24663086 -43.11206055 116.30200195 C-46.03945711 119.84455118 -46.03945711 119.84455118 -46.69799805 124.2746582 C-47.68799805 124.7696582 -47.68799805 124.7696582 -48.69799805 125.2746582 C-53.23850045 129.94810324 -57.28960927 134.96643187 -61.11987305 140.2277832 C-63.55169949 143.38193433 -66.25578166 146.27878163 -68.96362305 149.1965332 C-70.61554008 151.17585722 -71.56450817 152.98047468 -72.69799805 155.2746582 C-73.78558618 156.59797972 -74.91348705 157.88887987 -76.07299805 159.1496582 C-78.14471869 161.45960545 -79.92121023 163.61307667 -81.63549805 166.2121582 C-84.05457876 169.80412653 -86.85286517 172.85984142 -89.7956543 176.02856445 C-91.74158378 178.3261198 -93.15400623 180.69594935 -94.69799805 183.2746582 C-95.93382249 184.74236442 -97.20619737 186.17995412 -98.51049805 187.5871582 C-101.66565977 191.06592625 -104.54197065 194.6317394 -107.3190918 198.4152832 C-112.82320673 205.83726254 -112.82320673 205.83726254 -115.69799805 207.2746582 C-115.7211693 216.20205377 -115.73893756 225.12943898 -115.74981022 234.05685806 C-115.75502856 238.20222282 -115.76210722 242.347567 -115.7734375 246.49291992 C-115.78430359 250.49347893 -115.79028279 254.49401814 -115.79287529 258.49459076 C-115.79472282 260.02080344 -115.79833055 261.54701504 -115.8037281 263.0732193 C-115.81098789 265.21102743 -115.8119869 267.34875379 -115.81152344 269.48657227 C-115.81374405 270.70346741 -115.81596466 271.92036255 -115.81825256 273.1741333 C-115.71773876 275.76568287 -115.41378424 277.80916517 -114.69799805 280.2746582 C-114.60512034 281.96011544 -114.56802601 283.6491512 -114.57299805 285.3371582 C-114.57041992 286.19438477 -114.5678418 287.05161133 -114.56518555 287.93481445 C-114.67136428 290.60489727 -114.88699701 293.19084708 -115.1628418 295.8449707 C-115.92903978 303.97174986 -116.10158948 312.12331515 -116.31054688 320.27978516 C-116.38506229 323.07083638 -116.47599558 325.86106035 -116.56713867 328.65161133 C-116.9179363 340.93662884 -116.80933373 352.52901887 -112.69799805 364.2746582 C-112.25650626 365.85688312 -111.81883664 367.44018089 -111.38549805 369.0246582 C-109.75059445 374.46620303 -107.4630188 379.32034705 -104.69799805 384.2746582 C-104.21717773 385.13833008 -103.73635742 386.00200195 -103.2409668 386.8918457 C-91.62298212 406.39649151 -73.91600168 419.35198361 -52.63549805 426.6496582 C-51.95302002 426.88821533 -51.27054199 427.12677246 -50.56738281 427.37255859 C-35.7969229 432.14206059 -20.40040211 431.56718119 -5.07788086 431.54931641 C-2.60258837 431.55366992 -0.12729723 431.55885519 2.34799194 431.56480408 C8.3452736 431.57675614 14.34248944 431.57935372 20.33977696 431.57700381 C25.22106291 431.57521225 30.10233535 431.57698815 34.98361969 431.58122826 C35.68146757 431.58182345 36.37931546 431.58241863 37.09831025 431.58303186 C38.51654361 431.58424376 39.93477697 431.5854579 41.35301033 431.58667424 C54.61983521 431.59752248 67.8866346 431.59540034 81.15346089 431.58928939 C93.2522469 431.58412404 105.3509523 431.59537043 117.44972238 431.61438761 C129.91429689 431.63382744 142.37883338 431.64201119 154.84342313 431.63826436 C161.82464582 431.63636142 168.80579998 431.63875042 175.78701019 431.6529789 C182.35678307 431.66623485 188.92642239 431.6635498 195.49620438 431.65056801 C197.89459158 431.64821719 200.29299032 431.65088266 202.69136429 431.65919113 C232.97896822 431.75647251 261.31576545 426.63853501 283.83325195 404.78881836 C289.58478848 399.70604859 289.58478848 399.70604859 292.30200195 393.2746582 C293.04321289 392.5734082 293.78442383 391.8721582 294.5480957 391.1496582 C297.78496545 387.77045802 299.46081767 384.49943489 301.36450195 380.2746582 C301.70884277 379.5220874 302.05318359 378.7695166 302.40795898 377.99414062 C311.0113615 358.78422221 311.59889093 340.2760083 311.56079102 319.59106445 C311.56350496 317.10928241 311.56706814 314.62750117 311.57141113 312.14572144 C311.57954924 306.13373566 311.57840637 300.12181932 311.57258585 294.10983634 C311.56804885 289.2189822 311.56746522 284.32814203 311.56963348 279.43728638 C311.57009318 278.38878221 311.57009318 278.38878221 311.57056217 277.31909615 C311.57120169 275.89859986 311.57185012 274.47810357 311.57250735 273.05760729 C311.5781955 259.77182517 311.57167663 246.48607076 311.56090662 233.20029318 C311.55197249 221.82760673 311.55352496 210.45496111 311.56274414 199.08227539 C311.57347365 185.84047112 311.57764631 172.59869106 311.57151961 159.35688305 C311.57088259 157.94193205 311.57025385 156.52698104 311.56963348 155.11203003 C311.56932493 154.41604582 311.56901638 153.72006161 311.56869848 153.00298697 C311.56697957 148.12422859 311.56986921 143.24548571 311.57459259 138.36672974 C311.58082329 131.78713885 311.57631802 125.20761267 311.56480408 118.62802505 C311.56217244 116.22150932 311.56289681 113.81498706 311.56732941 111.40847397 C311.60334383 89.85969245 310.37441728 69.39684674 299.30200195 50.2746582 C298.8121582 49.40711914 298.32231445 48.53958008 297.81762695 47.64575195 C287.55278047 30.46435415 273.2566783 19.4462767 255.30200195 11.2746582 C254.34551758 10.83895508 253.3890332 10.40325195 252.40356445 9.9543457 C246.92094037 7.61947425 241.25722411 5.85872807 235.30200195 5.2746582 C234.64200195 5.6046582 233.98200195 5.9346582 233.30200195 6.2746582 C233.30200195 5.6146582 233.30200195 4.9546582 233.30200195 4.2746582 C226.74374584 3.43508613 220.35648856 3.1301114 213.74893188 3.14094543 C212.72247067 3.13867988 211.69600945 3.13641432 210.63844335 3.13408011 C207.21850464 3.12777854 203.79860596 3.12856697 200.37866211 3.12939453 C197.91917876 3.12640083 195.45969589 3.12299781 193.00021362 3.11921692 C187.02668069 3.11131337 181.05316334 3.10816348 175.07962663 3.10760454 C170.22622321 3.10712846 165.37282302 3.10506915 160.51942062 3.10190392 C146.75340721 3.09310893 132.98740156 3.08848328 119.22138532 3.08923439 C118.11007717 3.08929432 118.11007717 3.08929432 116.97631836 3.08935547 C116.23454111 3.08939635 115.49276386 3.08943723 114.72850852 3.08947935 C102.68395521 3.08988656 90.63943305 3.08029523 78.59488876 3.0662171 C66.22208135 3.05186935 53.84928916 3.04494588 41.47647321 3.04581088 C34.53199722 3.04614317 27.58755398 3.04338133 20.64308548 3.03263283 C14.12105545 3.02260232 7.59908301 3.02284653 1.07704544 3.03014946 C-1.32118836 3.03119971 -3.71942641 3.02880656 -6.11765289 3.022789 C-9.38079492 3.01512872 -12.64369346 3.01967395 -15.90682983 3.02742004 C-16.86468931 3.02227648 -17.82254878 3.01713292 -18.80943429 3.01183349 C-19.68070604 3.01643228 -20.55197779 3.02103108 -21.44965172 3.02576923 C-22.20307456 3.02555187 -22.95649741 3.0253345 -23.73275125 3.02511054 C-26.01941736 3.16721001 -26.01941736 3.16721001 -28.69799805 5.2746582 Z " fill="#ED287E" transform="translate(176.697998046875,41.725341796875)"/>
<path d="M0 0 C0.83502129 -0.0039821 1.67004259 -0.00796419 2.53036755 -0.01206696 C3.44767472 -0.00624128 4.36498189 -0.00041559 5.31008625 0.00558662 C6.77175935 0.00302335 6.77175935 0.00302335 8.26296121 0.00040829 C11.54276614 -0.00289768 14.82236851 0.00813536 18.10215473 0.01904488 C20.44739496 0.01960875 22.79263554 0.0192929 25.13787556 0.01815987 C31.51769045 0.01758443 37.89743063 0.02936967 44.27722812 0.04330778 C50.26511867 0.05452018 56.25300925 0.05655246 62.2409083 0.05861153 C74.10222333 0.06299031 85.96351088 0.07630436 97.82481098 0.09521675 C109.34792156 0.11357082 120.87102468 0.12772964 132.39414692 0.13623238 C133.1042637 0.13675782 133.81438047 0.13728327 134.54601594 0.13782464 C138.10841295 0.14043469 141.67081001 0.14296211 145.23320711 0.14544845 C174.79346325 0.16618664 204.3536923 0.20156566 233.91392231 0.24609566 C233.91392231 0.57609566 233.91392231 0.90609566 233.91392231 1.24609566 C218.07392231 1.24609566 202.23392231 1.24609566 185.91392231 1.24609566 C185.91392231 1.90609566 185.91392231 2.56609566 185.91392231 3.24609566 C184.92392231 3.24609566 183.93392231 3.24609566 182.91392231 3.24609566 C182.66900043 3.96410347 182.42407856 4.68211128 182.17173481 5.42187691 C180.75938216 8.59309109 179.03194944 10.78807411 176.78892231 13.43359566 C175.98068012 14.39910347 175.17243793 15.36461128 174.33970356 16.35937691 C173.13894184 17.78830269 173.13894184 17.78830269 171.91392231 19.24609566 C167.04744423 25.22329794 162.3177589 31.30140576 157.63169575 37.42041206 C154.40462686 41.62752612 151.1112245 45.77693479 147.78501606 49.90625191 C145.34612372 52.95614024 142.96667982 56.0501738 140.58970356 59.14843941 C138.51873246 61.74077386 136.28648198 64.15854049 133.98032856 66.54297066 C132.54336324 68.83790428 132.72896297 70.59350805 132.91392231 73.24609566 C121.58058898 67.57942899 110.24725564 61.91276232 98.91392231 56.24609566 C98.91392231 55.58609566 98.91392231 54.92609566 98.91392231 54.24609566 C96.96485981 53.90578316 96.96485981 53.90578316 94.97642231 53.55859566 C89.70653477 52.41260424 85.46729374 50.06638718 80.91392231 47.24609566 C80.91392231 46.58609566 80.91392231 45.92609566 80.91392231 45.24609566 C80.06829731 45.16359566 79.22267231 45.08109566 78.35142231 44.99609566 C74.83508308 44.22889437 72.66123585 43.07130173 69.64439106 41.22656441 C67.19082265 39.83639359 64.59857877 39.08132211 61.91392231 38.24609566 C58.92693725 36.83022748 56.04876996 35.2332164 53.16392231 33.62109566 C52.36470356 33.17508003 51.56548481 32.72906441 50.74204731 32.26953316 C50.13876606 31.93179878 49.53548481 31.59406441 48.91392231 31.24609566 C48.91392231 30.58609566 48.91392231 29.92609566 48.91392231 29.24609566 C48.0326366 28.96811134 47.1513509 28.69012703 46.24335957 28.40371895 C43.22563257 27.35447525 40.49342769 26.15660851 37.64292622 24.724123 C36.6423418 24.22375526 35.64175739 23.72338753 34.61085224 23.20785713 C33.54813099 22.67133522 32.48540974 22.13481331 31.39048481 21.58203316 C30.28917225 21.02996193 29.18785969 20.4778907 28.05317402 19.90909004 C24.54652334 18.15018072 21.04270022 16.38571951 17.53892231 14.62109566 C15.15782216 13.42496412 12.77608907 12.23009943 10.39439106 11.03515816 C4.56544682 8.10967826 -1.26118765 5.17963877 -7.08607769 2.24609566 C-4.0252526 0.2055456 -3.43935507 -0.00361847 0 0 Z " fill="#EF3545" transform="translate(155.0860776901245,44.75390434265137)"/>
<path d="M0 0 C2.35249492 -0.00435576 4.70498842 -0.00954176 7.05747986 -0.01548767 C13.40486359 -0.02879733 19.75218748 -0.02946524 26.09958243 -0.02692437 C32.09503351 -0.02571243 38.09047644 -0.03194983 44.08592425 -0.03735783 C56.68996802 -0.0481975 69.29398494 -0.04608814 81.8980302 -0.03997298 C93.3803441 -0.03480938 104.86257301 -0.04605097 116.34487011 -0.0650712 C128.18688599 -0.08453409 140.02886183 -0.09269074 151.87089378 -0.08894795 C158.49838788 -0.08704835 165.1258189 -0.08967263 171.75330162 -0.10366249 C177.99235317 -0.11634131 184.23123612 -0.11420267 190.47028542 -0.1012516 C192.74324732 -0.09890784 195.01622148 -0.10154015 197.28916931 -0.10987473 C228.92604972 -0.21740081 259.13119893 4.25150327 283.30200195 26.2746582 C284.00711914 26.89856445 284.71223633 27.5224707 285.4387207 28.1652832 C305.60398315 47.02317107 313.58260909 75.1588575 314.58045578 101.99108887 C314.72344258 108.17406597 314.70845383 114.35606639 314.69018555 120.5402832 C314.69426239 122.89351646 314.69961045 125.24674779 314.70611572 127.59997559 C314.71966284 133.9264353 314.71454331 140.25274643 314.70497847 146.57920837 C314.69809572 152.56190689 314.70338249 158.54459259 314.70776005 164.52729082 C314.71627185 177.09799137 314.70654646 189.66862581 314.69035895 202.23931551 C314.67695962 212.97638987 314.67928891 223.71336685 314.69311523 234.45043945 C314.70924608 246.98260977 314.71544827 259.51472245 314.70627844 272.0469017 C314.70157082 278.65754819 314.70089342 285.26814078 314.71088791 291.87878418 C314.71963512 298.09739262 314.71339585 304.31581948 314.69620514 310.53440857 C314.69228133 312.79930827 314.6933026 315.0642236 314.69999313 317.32911682 C314.78996117 350.91447015 309.41208266 379.8885847 286.30200195 405.2746582 C285.44008391 406.35205576 284.58068056 407.43147017 283.72387695 408.51293945 C281.47641207 411.07577441 280.32837917 411.99883251 277.30200195 413.2746582 C275.66146238 414.39813002 274.03733185 415.54579777 272.42700195 416.7121582 C263.1574707 423.2746582 263.1574707 423.2746582 259.30200195 423.2746582 C258.97200195 423.9346582 258.64200195 424.5946582 258.30200195 425.2746582 C256.37197732 426.03802615 254.40641955 426.71295337 252.42700195 427.3371582 C250.82211914 427.84956055 250.82211914 427.84956055 249.18481445 428.37231445 C248.23348633 428.67008789 247.2821582 428.96786133 246.30200195 429.2746582 C245.31200195 429.6046582 244.32200195 429.9346582 243.30200195 430.2746582 C240.51244888 430.79734432 237.72427866 431.29742012 234.92700195 431.7746582 C233.41909936 432.03455268 231.91128448 432.29495666 230.40356445 432.5559082 C229.73663574 432.66999023 229.06970703 432.78407227 228.38256836 432.90161133 C226.3035077 433.24804457 226.3035077 433.24804457 224.29600239 433.78919601 C219.96734783 434.49106569 215.69583162 434.41910514 211.31742859 434.4151001 C210.30355743 434.41807122 209.28968627 434.42104234 208.24509174 434.4241035 C204.84307365 434.43278437 201.44109079 434.43429827 198.0390625 434.43579102 C195.60126165 434.4404198 193.16346152 434.44544455 190.72566223 434.45083618 C184.09699706 434.46396063 177.46833921 434.47044289 170.83966422 434.47484684 C166.69481831 434.47761336 162.54997473 434.48185162 158.40513039 434.48635101 C146.91424932 434.49854508 135.42337011 434.50884202 123.93248272 434.5122261 C122.8296794 434.51255545 122.8296794 434.51255545 121.70459722 434.51289146 C120.96768808 434.51310973 120.23077893 434.51332801 119.4715392 434.5135529 C117.97842197 434.51399636 116.48530473 434.51444292 114.9921875 434.51489258 C114.25155828 434.51511401 113.51092906 434.51533544 112.74785654 434.51556358 C100.77001518 434.51950432 88.79223494 434.53693557 76.81441715 434.5602521 C64.49704401 434.58403449 52.17970143 434.59643119 39.86230499 434.59759402 C32.9547819 434.59850727 26.04733831 434.6041701 19.13983727 434.62241364 C12.63340028 434.63953782 6.12707337 434.641016 -0.37938118 434.63227463 C-2.75764113 434.63150785 -5.13590938 434.63579917 -7.51414871 434.64573288 C-20.33139097 434.69609586 -32.18845128 434.15660056 -44.69799805 431.2746582 C-46.69557524 430.92710034 -48.69492017 430.58896718 -50.69799805 430.2746582 C-50.69799805 429.6146582 -50.69799805 428.9546582 -50.69799805 428.2746582 C-51.48174805 428.3571582 -52.26549805 428.4396582 -53.07299805 428.5246582 C-58.07426711 428.1797431 -62.14955685 426.28819739 -66.69799805 424.2746582 C-66.69799805 423.6146582 -66.69799805 422.9546582 -66.69799805 422.2746582 C-67.72666992 422.03360352 -68.7553418 421.79254883 -69.81518555 421.54418945 C-73.76492386 420.41214317 -76.56801573 418.49050608 -79.82299805 415.9621582 C-80.81557617 415.20290039 -81.8081543 414.44364258 -82.83081055 413.66137695 C-85.62818605 411.33277146 -88.16198666 408.8826432 -90.69799805 406.2746582 C-91.58938477 405.41807617 -91.58938477 405.41807617 -92.4987793 404.54418945 C-93.93604389 403.15891893 -95.31892689 401.7178722 -96.69799805 400.2746582 C-96.69799805 399.6146582 -96.69799805 398.9546582 -96.69799805 398.2746582 C-97.35799805 398.2746582 -98.01799805 398.2746582 -98.69799805 398.2746582 C-98.69799805 397.6146582 -98.69799805 396.9546582 -98.69799805 396.2746582 C-99.35799805 395.9446582 -100.01799805 395.6146582 -100.69799805 395.2746582 C-107.95035391 385.59209338 -114.55750529 373.44021872 -116.36987305 361.3840332 C-116.67503439 359.04972932 -116.67503439 359.04972932 -117.76049805 356.0246582 C-121.07489198 342.76708247 -119.85295743 328.03475073 -119.85913086 314.46484375 C-119.86376727 312.07659836 -119.86879302 309.68835369 -119.87417603 307.30010986 C-119.88857521 300.17640266 -119.89467163 293.05270328 -119.89957154 285.92898414 C-119.9021618 282.56056858 -119.90595039 279.19215445 -119.90969086 275.82374001 C-119.92186605 264.60700348 -119.93217115 253.3902688 -119.93556595 242.17352581 C-119.9358953 241.10058105 -119.9358953 241.10058105 -119.9362313 240.00596063 C-119.93644958 239.28911458 -119.93666786 238.57226854 -119.93689275 237.83369988 C-119.93733619 236.38148351 -119.93778275 234.92926715 -119.93823242 233.47705078 C-119.93845385 232.75672646 -119.93867528 232.03640214 -119.93890342 231.29424981 C-119.94285083 219.62481557 -119.96031097 207.95544378 -119.98359194 196.28603365 C-120.00738161 184.26330396 -120.01977112 172.24060553 -120.02093387 160.21785194 C-120.02184597 153.48424845 -120.02780632 146.75073896 -120.04575348 140.0171566 C-120.06231483 133.68130272 -120.06435068 127.34560301 -120.05561447 121.00973511 C-120.05484853 118.69638974 -120.05912767 116.3830358 -120.06907272 114.06971169 C-120.11641214 102.3635694 -119.83238058 91.1677661 -117.40885544 79.68591022 C-116.78438589 76.68921492 -116.35048117 73.75133898 -116.01049805 70.7121582 C-114.10809904 60.22498385 -106.66626094 45.12675053 -99.0925293 37.70043945 C-97.43458536 36.21321382 -97.43458536 36.21321382 -96.69799805 33.2746582 C-94.22970964 30.72717337 -91.41733303 28.54885083 -88.69799805 26.2746582 C-87.52043945 25.21504883 -87.52043945 25.21504883 -86.3190918 24.1340332 C-75.64400532 14.81166761 -63.69005077 8.78963693 -50.13549805 4.8371582 C-49.33450684 4.60230713 -48.53351563 4.36745605 -47.70825195 4.12548828 C-32.02664473 -0.0923987 -16.10548033 -0.01985239 0 0 Z M-50.5378418 7.4934082 C-52.69799805 8.2746582 -52.69799805 8.2746582 -55.8972168 9.09106445 C-60.43119616 10.50298197 -64.3952282 12.48281378 -68.57299805 14.7121582 C-69.34385742 15.10725586 -70.1147168 15.50235352 -70.90893555 15.90942383 C-71.64112305 16.29678711 -72.37331055 16.68415039 -73.12768555 17.08325195 C-73.79010254 17.43186279 -74.45251953 17.78047363 -75.13500977 18.13964844 C-77.02265545 19.27892993 -77.02265545 19.27892993 -77.69799805 22.2746582 C-78.27807617 22.41645508 -78.8581543 22.55825195 -79.45581055 22.7043457 C-86.57086845 24.51409911 -93.36505897 33.57342258 -97.69799805 39.2746582 C-97.69799805 40.2646582 -97.69799805 41.2546582 -97.69799805 42.2746582 C-99.18299805 42.7696582 -99.18299805 42.7696582 -100.69799805 43.2746582 C-106.90019778 51.09255702 -111.58044534 62.52552939 -113.69799805 72.2746582 C-113.86299805 72.94883789 -114.02799805 73.62301758 -114.19799805 74.31762695 C-114.36299805 75.02532227 -114.52799805 75.73301758 -114.69799805 76.4621582 C-114.86299805 77.15696289 -115.02799805 77.85176758 -115.19799805 78.56762695 C-116.57089312 86.00056669 -116.8439747 93.36212143 -116.83171082 100.90556335 C-116.83397637 101.94059756 -116.83624193 102.97563176 -116.83857614 104.04203063 C-116.8448789 107.49157361 -116.84408917 110.94107692 -116.84326172 114.390625 C-116.84625555 116.87166901 -116.8496586 119.35271256 -116.85343933 121.83375549 C-116.86134572 127.86311719 -116.86449302 133.89246344 -116.86505171 139.92182889 C-116.86552813 144.82710194 -116.86758914 149.73237178 -116.87075233 154.63764381 C-116.87955231 168.56928504 -116.88417279 182.50091859 -116.88342186 196.43256261 C-116.8833819 197.18249273 -116.88334195 197.93242285 -116.88330078 198.70507812 C-116.8832599 199.45593242 -116.88321902 200.20678671 -116.8831769 200.98039416 C-116.88277072 213.14038019 -116.89233488 225.30033521 -116.90643915 237.46031227 C-116.9208335 249.96990428 -116.92770764 262.47948119 -116.92684537 274.98908168 C-116.92651443 282.00265457 -116.92921598 289.01619497 -116.94002342 296.02976036 C-116.95012909 302.62979808 -116.94976192 309.22977917 -116.94250679 315.82982445 C-116.94146485 318.24440105 -116.94380052 320.65898198 -116.94986725 323.07355118 C-117.17840136 343.98216285 -117.17840136 343.98216285 -112.69799805 364.2746582 C-112.25650626 365.85688312 -111.81883664 367.44018089 -111.38549805 369.0246582 C-109.75059445 374.46620303 -107.4630188 379.32034705 -104.69799805 384.2746582 C-104.21717773 385.13833008 -103.73635742 386.00200195 -103.2409668 386.8918457 C-91.62298212 406.39649151 -73.91600168 419.35198361 -52.63549805 426.6496582 C-51.95302002 426.88821533 -51.27054199 427.12677246 -50.56738281 427.37255859 C-35.7969229 432.14206059 -20.40040211 431.56718119 -5.07788086 431.54931641 C-2.60258837 431.55366992 -0.12729723 431.55885519 2.34799194 431.56480408 C8.3452736 431.57675614 14.34248944 431.57935372 20.33977696 431.57700381 C25.22106291 431.57521225 30.10233535 431.57698815 34.98361969 431.58122826 C35.68146757 431.58182345 36.37931546 431.58241863 37.09831025 431.58303186 C38.51654361 431.58424376 39.93477697 431.5854579 41.35301033 431.58667424 C54.61983521 431.59752248 67.8866346 431.59540034 81.15346089 431.58928939 C93.2522469 431.58412404 105.3509523 431.59537043 117.44972238 431.61438761 C129.91429689 431.63382744 142.37883338 431.64201119 154.84342313 431.63826436 C161.82464582 431.63636142 168.80579998 431.63875042 175.78701019 431.6529789 C182.35678307 431.66623485 188.92642239 431.6635498 195.49620438 431.65056801 C197.89459158 431.64821719 200.29299032 431.65088266 202.69136429 431.65919113 C232.97896822 431.75647251 261.31576545 426.63853501 283.83325195 404.78881836 C289.58478848 399.70604859 289.58478848 399.70604859 292.30200195 393.2746582 C293.04321289 392.5734082 293.78442383 391.8721582 294.5480957 391.1496582 C297.78496545 387.77045802 299.46081767 384.49943489 301.36450195 380.2746582 C301.70884277 379.5220874 302.05318359 378.7695166 302.40795898 377.99414062 C311.0113615 358.78422221 311.59889093 340.2760083 311.56079102 319.59106445 C311.56350496 317.10928241 311.56706814 314.62750117 311.57141113 312.14572144 C311.57954924 306.13373566 311.57840637 300.12181932 311.57258585 294.10983634 C311.56804885 289.2189822 311.56746522 284.32814203 311.56963348 279.43728638 C311.57009318 278.38878221 311.57009318 278.38878221 311.57056217 277.31909615 C311.57120169 275.89859986 311.57185012 274.47810357 311.57250735 273.05760729 C311.5781955 259.77182517 311.57167663 246.48607076 311.56090662 233.20029318 C311.55197249 221.82760673 311.55352496 210.45496111 311.56274414 199.08227539 C311.57347365 185.84047112 311.57764631 172.59869106 311.57151961 159.35688305 C311.57088259 157.94193205 311.57025385 156.52698104 311.56963348 155.11203003 C311.56932493 154.41604582 311.56901638 153.72006161 311.56869848 153.00298697 C311.56697957 148.12422859 311.56986921 143.24548571 311.57459259 138.36672974 C311.58082329 131.78713885 311.57631802 125.20761267 311.56480408 118.62802505 C311.56217244 116.22150932 311.56289681 113.81498706 311.56732941 111.40847397 C311.60334383 89.85969245 310.37441728 69.39684674 299.30200195 50.2746582 C298.8121582 49.40711914 298.32231445 48.53958008 297.81762695 47.64575195 C287.55278047 30.46435415 273.2566783 19.4462767 255.30200195 11.2746582 C254.34551758 10.83895508 253.3890332 10.40325195 252.40356445 9.9543457 C246.92094037 7.61947425 241.25722411 5.85872807 235.30200195 5.2746582 C234.64200195 5.6046582 233.98200195 5.9346582 233.30200195 6.2746582 C233.30200195 5.6146582 233.30200195 4.9546582 233.30200195 4.2746582 C226.71796333 3.43071649 220.30476983 3.13016062 213.6710968 3.14094543 C212.1185455 3.1375471 212.1185455 3.1375471 210.53462952 3.13408011 C207.08508655 3.12777735 203.63558324 3.12856708 200.18603516 3.12939453 C197.70499115 3.1264007 195.2239476 3.12299765 192.74290466 3.11921692 C186.71354297 3.11131053 180.68419671 3.10816323 174.65483127 3.10760454 C169.74955822 3.10712812 164.84428838 3.10506711 159.93901634 3.10190392 C146.00737512 3.09310394 132.07574157 3.08848346 118.14409754 3.08923439 C117.01920237 3.08929432 117.01920237 3.08929432 115.87158203 3.08935547 C114.74530059 3.08941679 114.74530059 3.08941679 113.59626599 3.08947935 C101.43627997 3.08988553 89.27632495 3.08032137 77.11634789 3.0662171 C64.60675588 3.05182275 52.09717897 3.04494861 39.58757848 3.04581088 C32.57400558 3.04614182 25.56046519 3.04344027 18.5468998 3.03263283 C11.94686207 3.02252716 5.34688098 3.02289433 -1.25316429 3.03014946 C-3.66774089 3.0311914 -6.08232182 3.02885573 -8.49689102 3.022789 C-29.86402836 2.70002879 -29.86402836 2.70002879 -50.5378418 7.4934082 Z " fill="#D6D7D7" transform="translate(176.697998046875,41.725341796875)"/>
<path d="M0 0 C5.85721154 3.47048917 10.05171902 8.66808771 12.15625 15.14453125 C14.13851357 24.84110388 12.52424769 34.13887491 7.8125 42.75 C2.88568509 48.80294404 -1.80076827 51.72932536 -9.375 53.4375 C-14.66601321 53.97556914 -17.85932275 53.24725473 -22.375 50.4375 C-23.695 49.1175 -25.015 47.7975 -26.375 46.4375 C-26.705 56.9975 -27.035 67.5575 -27.375 78.4375 C-31.995 78.4375 -36.615 78.4375 -41.375 78.4375 C-41.375 52.3675 -41.375 26.2975 -41.375 -0.5625 C-36.755 -0.5625 -32.135 -0.5625 -27.375 -0.5625 C-27.045 1.0875 -26.715 2.7375 -26.375 4.4375 C-25.90449219 4.08816406 -25.43398437 3.73882812 -24.94921875 3.37890625 C-24.32660156 2.92386719 -23.70398438 2.46882812 -23.0625 2 C-22.44761719 1.54753906 -21.83273438 1.09507812 -21.19921875 0.62890625 C-15.37459947 -3.17518129 -6.19618838 -2.80446437 0 0 Z " fill="#FEF6F9" transform="translate(187.375,232.5625)"/>
<path d="M0 0 C0.99 0.495 0.99 0.495 2 1 C1.34 2.65 0.68 4.3 0 6 C-0.66 6 -1.32 6 -2 6 C-2.22429687 6.52335937 -2.44859375 7.04671875 -2.6796875 7.5859375 C-4.47879029 10.87542131 -6.78916478 13.7084628 -9.125 16.625 C-9.61782471 17.24600586 -10.11064941 17.86701172 -10.6184082 18.50683594 C-12.07531661 20.3408126 -13.53700791 22.17087475 -15 24 C-16.10021484 25.38058594 -16.10021484 25.38058594 -17.22265625 26.7890625 C-18.50578013 28.39615603 -19.79085196 30.00169676 -21.078125 31.60546875 C-23.87152506 35.08586353 -26.65170996 38.57680252 -29.43359375 42.06640625 C-31 44 -31 44 -32 45 C-28.9113831 46.54430845 -25.65868863 46.13843282 -22.26953125 46.12939453 C-21.06818794 46.13202301 -21.06818794 46.13202301 -19.84257507 46.13470459 C-17.16586185 46.13913763 -14.48921404 46.13616913 -11.8125 46.1328125 C-9.92057279 46.13348773 -8.02864567 46.13445958 -6.13671875 46.13571167 C-2.13492013 46.13719265 1.8668563 46.13503086 5.86865234 46.13037109 C10.8611336 46.12482642 15.85355973 46.12794002 20.84603882 46.13382339 C47.57777336 46.16029785 74.27950279 45.77175182 101 45 C101 45.66 101 46.32 101 47 C101.99475342 46.83556396 102.98950684 46.67112793 104.0144043 46.50170898 C107.93904298 45.94340223 111.8121379 45.90573263 115.76953125 45.97265625 C117.25064868 45.98530618 118.73176859 45.99766687 120.21289062 46.00976562 C122.50992938 46.03447549 124.80683225 46.06241726 127.10375977 46.09594727 C138.66413642 46.29411449 138.66413642 46.29411449 150.03222656 44.36206055 C154.60902727 43.51995193 158.24262146 45.49508098 162 48 C78.18 48 -5.64 48 -92 48 C-88.80657477 45.60493108 -86.12207128 43.94956728 -82.58984375 42.21484375 C-80.9980127 41.42762939 -80.9980127 41.42762939 -79.37402344 40.62451172 C-78.2399707 40.06779785 -77.10591797 39.51108398 -75.9375 38.9375 C-68.32748592 35.16984781 -60.73615381 31.3845212 -53.25 27.375 C-41.62705112 21.16479776 -29.78837303 15.36915002 -17.98535156 9.51123047 C-17.16898224 9.10516068 -16.35261292 8.69909088 -15.51150513 8.28071594 C-13.96687833 7.51248482 -12.42141269 6.74593714 -10.87496948 5.98136902 C-7.85859537 4.48021425 -4.97056709 2.98143558 -2.11669922 1.18139648 C-1.41818848 0.79153564 -0.71967773 0.4016748 0 0 Z M150 43 C152 44 152 44 152 44 Z M101 44 C103 45 103 45 103 45 Z " fill="#F1572E" transform="translate(239,425)"/>
<path d="M0 0 C4.29 0 8.58 0 13 0 C13 15.18 13 30.36 13 46 C17.11968297 41.88031703 20.9522127 37.71195922 24.75 33.3125 C25.33910156 32.63638672 25.92820312 31.96027344 26.53515625 31.26367188 C27.37626953 30.29204102 27.37626953 30.29204102 28.234375 29.30078125 C28.99572754 28.42160034 28.99572754 28.42160034 29.77246094 27.5246582 C31.08781959 26.0015071 31.08781959 26.0015071 32 24 C33.46067199 24.45082469 34.91848032 24.91093537 36.375 25.375 C37.59316406 25.75785156 37.59316406 25.75785156 38.8359375 26.1484375 C41 27 41 27 43 29 C42.43152344 29.6290625 41.86304688 30.258125 41.27734375 30.90625 C36.4728318 36.23211968 31.70399152 41.58511587 27 47 C28.7255011 51.06295317 31.50029862 54.28711991 34.25 57.6875 C38.45534143 62.95364208 42.41615615 68.28399588 46 74 C44.42274653 74.70133599 42.83788667 75.385583 41.25 76.0625 C40.36828125 76.44535156 39.4865625 76.82820313 38.578125 77.22265625 C35.69586571 78.0917011 34.75473504 78.09729183 32 77 C30.32421875 75.14575195 30.32421875 75.14575195 28.6875 72.73828125 C28.08679688 71.86623047 27.48609375 70.99417969 26.8671875 70.09570312 C26.25101562 69.17724609 25.63484375 68.25878906 25 67.3125 C24.38382812 66.41337891 23.76765625 65.51425781 23.1328125 64.58789062 C20.05210167 60.08251631 17.02758571 55.54137856 14 51 C13.67 59.58 13.34 68.16 13 77 C8.71 77 4.42 77 0 77 C0 51.59 0 26.18 0 0 Z " fill="#FEFCFC" transform="translate(345,207)"/>
<path d="M0 0 C4.62 0 9.24 0 14 0 C14.01401855 1.6874231 14.01401855 1.6874231 14.02832031 3.40893555 C14.06827255 7.59325369 14.13404552 11.77684063 14.20751953 15.96069336 C14.23569889 17.76951689 14.25692855 19.57846286 14.27099609 21.38745117 C14.29246814 23.99200994 14.33913811 26.59510134 14.390625 29.19921875 C14.39185364 30.00461594 14.39308228 30.81001312 14.39434814 31.63981628 C14.49708382 35.60161992 14.73570141 37.58045146 16.89941406 41.01513672 C18.8100759 43.14430346 18.8100759 43.14430346 21.21875 43.55859375 C22.34796875 43.49865234 22.34796875 43.49865234 23.5 43.4375 C24.2528125 43.41558594 25.005625 43.39367187 25.78125 43.37109375 C28.25814898 42.95682367 29.85708904 42.30791737 32 41 C35.86565437 32.87062616 35.55220562 24.25499494 35.6875 15.4375 C35.72073316 13.93682025 35.75522819 12.43616789 35.79101562 10.93554688 C35.87522804 7.29056546 35.94235719 3.64550976 36 0 C40.29 0 44.58 0 49 0 C49 17.16 49 34.32 49 52 C44.71 52 40.42 52 36 52 C36 50.02 36 48.04 36 46 C35.34 46 34.68 46 34 46 C34 46.66 34 47.32 34 48 C27.89537293 52.76458698 21.72156929 54.68942583 14 54 C8.8196097 52.30297559 5.449572 50.23804559 2 46 C-0.24308954 40.84469261 -0.26272433 36.17571934 -0.1953125 30.6640625 C-0.1924826 29.78471039 -0.18965271 28.90535828 -0.18673706 27.99935913 C-0.17559712 25.20776406 -0.15050411 22.4164971 -0.125 19.625 C-0.1149622 17.72526507 -0.10583775 15.82552508 -0.09765625 13.92578125 C-0.07567806 9.28372893 -0.0411911 4.64191998 0 0 Z " fill="#FEFCFD" transform="translate(228,232)"/>
<path d="M0 0 C4.19545838 2.60935791 5.90874907 5.89723636 7.5 10.5 C7.98941099 13.7689944 7.9702444 16.95057212 7.890625 20.25 C7.88496521 21.14871826 7.87930542 22.04743652 7.87347412 22.97338867 C7.85125919 25.81615708 7.80109249 28.65761895 7.75 31.5 C7.72991569 33.43878375 7.71166832 35.37758746 7.6953125 37.31640625 C7.65144346 42.04476669 7.58252133 46.7721626 7.5 51.5 C3.21 51.5 -1.08 51.5 -5.5 51.5 C-5.529729 49.91131104 -5.529729 49.91131104 -5.56005859 48.29052734 C-5.63640694 44.343029 -5.72507825 40.39588527 -5.81738281 36.44873047 C-5.85555219 34.74372381 -5.89042566 33.03863994 -5.921875 31.33349609 C-5.96778836 28.87569674 -6.02573769 26.41842348 -6.0859375 23.9609375 C-6.09748871 23.20444916 -6.10903992 22.44796082 -6.12094116 21.66854858 C-6.24251699 17.2613169 -6.88256414 13.6031794 -8.5 9.5 C-15.621718 8.33900696 -15.621718 8.33900696 -22.5625 9.625 C-26.33875959 13.27944476 -26.73373865 17.28067327 -26.87905884 22.40278625 C-26.89638565 23.51245003 -26.89638565 23.51245003 -26.9140625 24.64453125 C-26.93342865 25.41431808 -26.9527948 26.18410492 -26.9727478 26.97721863 C-27.03225623 29.42220171 -27.07881295 31.86723262 -27.125 34.3125 C-27.16320631 35.97593134 -27.20225957 37.63934347 -27.2421875 39.30273438 C-27.33793383 43.36833241 -27.42207009 47.43402301 -27.5 51.5 C-32.12 51.5 -36.74 51.5 -41.5 51.5 C-41.5 34.34 -41.5 17.18 -41.5 -0.5 C-36.88 -0.5 -32.26 -0.5 -27.5 -0.5 C-27.17 1.15 -26.84 2.8 -26.5 4.5 C-26.02949219 4.15066406 -25.55898438 3.80132812 -25.07421875 3.44140625 C-24.45160156 2.98636719 -23.82898438 2.53132812 -23.1875 2.0625 C-22.57261719 1.61003906 -21.95773437 1.15757812 -21.32421875 0.69140625 C-15.4615287 -3.1375455 -6.27656749 -2.68320305 0 0 Z " fill="#FEFBFC" transform="translate(327.5,232.5)"/>
<path d="M0 0 C0.86625 0.495 1.7325 0.99 2.625 1.5 C0.75 6.25 0.75 6.25 -0.375 8.5 C-1.035 8.335 -1.695 8.17 -2.375 8 C-6.16328501 7.36861917 -9.53111987 7.31095672 -13.375 7.5 C-14.035 8.16 -14.695 8.82 -15.375 9.5 C-15.21852535 12.67643531 -14.69070438 14.14838933 -12.5546875 16.52734375 C-11.79414062 17.15769531 -11.03359375 17.78804687 -10.25 18.4375 C-9.44175781 19.12199219 -8.63351563 19.80648437 -7.80078125 20.51171875 C-7.00027344 21.16785156 -6.19976562 21.82398438 -5.375 22.5 C-4.0589475 23.57901491 -2.74601981 24.66186248 -1.4375 25.75 C-0.89222656 26.18828125 -0.34695312 26.6265625 0.21484375 27.078125 C3.25130015 30.13981511 3.93416051 33.14810461 4 37.375 C3.87958397 42.19164137 2.98382079 44.88280838 -0.375 48.5 C-6.38954611 52.8399625 -12.02383254 54.22348924 -19.375 53.5 C-24.70060015 52.31070342 -28.88178448 50.90448913 -32.375 46.5 C-31.055 44.19 -29.735 41.88 -28.375 39.5 C-27.405625 40.16 -26.43625 40.82 -25.4375 41.5 C-21.30644938 43.86903107 -17.05667035 44.55838169 -12.375 43.5 C-10.11658296 40.70708622 -10.11658296 40.70708622 -10.35546875 37.66015625 C-11.71266601 33.45336475 -14.29020299 31.52328198 -17.6875 28.9375 C-22.32670227 25.30525636 -26.67588627 21.89822746 -29.375 16.5 C-29.75856511 11.89721864 -29.82464438 9.4352603 -27.8125 5.25 C-20.73497788 -2.73489675 -9.89055768 -4.21862562 0 0 Z " fill="#FEFAFB" transform="translate(136.375,232.5)"/>
<path d="M0 0 C4.29 0 8.58 0 13 0 C13 25.08 13 50.16 13 76 C8.71 76 4.42 76 0 76 C0 50.92 0 25.84 0 0 Z " fill="#FFFFFF" transform="translate(206,208)"/>
<path d="M0 0 C3.68773373 1.67624261 5.85783496 3.57253594 8 7 C10.34473216 14.03419647 10.50941508 25.06218339 7.25 31.875 C3.67189953 36.84458399 3.67189953 36.84458399 1 38 C-3.50825046 38.66945824 -6.86267673 38.64283489 -10.875 36.375 C-15.62060054 31.07109351 -16.48312791 26.33608688 -16.375 19.5 C-16.38660156 18.76652344 -16.39820313 18.03304688 -16.41015625 17.27734375 C-16.37592849 10.89957147 -14.73555965 6.81444872 -10.25 2.125 C-6.38212988 -0.403992 -4.536838 -0.65990371 0 0 Z " fill="#ED2365" transform="translate(176,239)"/>
<path d="M0 0 C5.0782241 1.51578354 9.56624042 3.69237133 14.2421875 6.1328125 C15.01055939 6.52951141 15.77893127 6.92621033 16.57058716 7.33493042 C19.00750706 8.59424707 21.44127547 9.859521 23.875 11.125 C25.53364916 11.98346914 27.19250126 12.84154626 28.8515625 13.69921875 C32.90340476 15.79494932 36.95243271 17.89602571 41 20 C41 22.97 41 25.94 41 29 C27.54892457 36.50637675 14.01018528 43.59349495 0 50 C0 46.7 0 43.4 0 40 C9.9 35.05 19.8 30.1 30 25 C25.6378125 22.710625 25.6378125 22.710625 21.1875 20.375 C14.09031105 16.64487777 7.0171207 12.8791274 0 9 C0 6.03 0 3.06 0 0 Z " fill="#FEFAF9" transform="translate(403,233)"/>
<path d="M0 0 C0.33 0 0.66 0 1 0 C1 79.86 1 159.72 1 242 C0.67 242 0.34 242 0 242 C-1.12879993 235.74750663 -1.08009988 229.65240581 -1 223.3125 C-0.97444698 221.2669806 -0.95342953 219.22139823 -0.9375 217.17578125 C-0.92589844 216.27770752 -0.91429687 215.37963379 -0.90234375 214.4543457 C-0.99429938 212.14327088 -1.43014989 210.2276231 -2 208 C-1.835 207.2575 -1.67 206.515 -1.5 205.75 C-1.0194446 203.10694532 -1.12089315 201.43307612 -1.5 198.8125 C-2 195 -2 195 -1 193 C-0.90098555 190.52557294 -0.86017662 188.08004775 -0.8671875 185.60546875 C-0.86623077 184.86226883 -0.86527405 184.11906891 -0.86428833 183.35334778 C-0.86360657 181.77210404 -0.86546058 180.19085753 -0.86962891 178.60961914 C-0.8748944 176.23512112 -0.86972761 173.86081957 -0.86328125 171.48632812 C-0.8605108 163.52515775 -1.11200201 155.68850114 -1.80859375 147.75170898 C-2.06476655 144.0688983 -1.86583924 140.61876507 -1.5625 136.9375 C-0.45909473 120.92936638 -0.72085104 104.82388876 -1.38589478 88.80134583 C-2.09904367 71.35839476 -1.98093883 53.97032718 -1.66339111 36.51983643 C-1.61114656 33.51598229 -1.56815993 30.51202087 -1.52509499 27.50802326 C-1.48241516 24.59211407 -1.43499339 21.67629784 -1.38599777 18.76048851 C-1.36321795 17.38140059 -1.34169574 16.00229127 -1.32149124 14.62316322 C-1.29277164 12.72306362 -1.25715281 10.82307204 -1.22119141 8.9230957 C-1.20263092 7.84776077 -1.18407043 6.77242584 -1.16494751 5.664505 C-1 3 -1 3 0 0 Z " fill="#F05815" transform="translate(487,144)"/>
<path d="M0 0 C0.33 0 0.66 0 1 0 C1.00423194 0.89306225 1.00846388 1.7861245 1.01282406 2.70624924 C1.11606357 24.42189607 1.22469128 46.1375101 1.33933926 67.85309982 C1.39465144 78.35452916 1.44813018 88.8559619 1.49731445 99.35742188 C1.54018081 108.50893958 1.58646504 117.66043247 1.63687855 126.81191182 C1.66345969 131.65892966 1.68831232 136.50594264 1.70907402 141.3529892 C1.72866132 145.91326193 1.75281143 150.47348753 1.78049088 155.03371811 C1.78985021 156.70908883 1.7975295 158.3844699 1.80341911 160.05985641 C1.81169928 162.34437905 1.82598132 164.62878785 1.84178162 166.91326904 C1.84823417 168.1927177 1.85468672 169.47216637 1.8613348 170.7903862 C1.97497037 173.42065169 2.27033646 175.49994708 3 178 C3.09287771 179.68545724 3.12997204 181.374493 3.125 183.0625 C3.12757812 183.91972656 3.13015625 184.77695312 3.1328125 185.66015625 C3.02264055 188.43065667 2.80211173 191.1339491 2.52734375 193.890625 C1.83946021 201.14349707 1.65090488 208.40821586 1.4375 215.6875 C1.39417913 217.08269161 1.35056122 218.47787402 1.30664062 219.87304688 C1.20151898 223.2486196 1.09937123 226.62425393 1 230 C0.67 230 0.34 230 0 230 C0 154.1 0 78.2 0 0 Z " fill="#EA0965" transform="translate(60,144)"/>
<path d="M0 0 C2 1 2 1 2 1 Z M-49 1 C-47 2 -47 2 -47 2 Z M12 4 C12 4.33 12 4.66 12 5 C2.1141816 5.02344299 -7.7716299 5.04107448 -17.6574707 5.05181217 C-22.25066122 5.05697253 -26.84383235 5.06394123 -31.43701172 5.07543945 C-51.31723666 5.12394326 -71.1440832 5.12898706 -91 4 C-91 3.67 -91 3.34 -91 3 C-77.14 2.67 -63.28 2.34 -49 2 C-49 2.66 -49 3.32 -49 4 C-48.00742187 3.83556396 -47.01484375 3.67112793 -45.9921875 3.50170898 C-42.03085951 2.93815641 -38.11925235 2.90603649 -34.125 2.97265625 C-32.63021061 2.9852982 -31.13541883 2.99765948 -29.640625 3.00976562 C-27.3169787 3.03456363 -24.99346169 3.06259385 -22.66992188 3.09594727 C-20.40494011 3.12634167 -18.14012186 3.14397547 -15.875 3.16015625 C-14.84656982 3.18034569 -14.84656982 3.18034569 -13.79736328 3.20094299 C10.15226542 3.32399954 10.15226542 3.32399954 12 4 Z " fill="#F4760E" transform="translate(389,468)"/>
<path d="M0 0 C0.33 0 0.66 0 1 0 C1 27.72 1 55.44 1 84 C0.67 84 0.34 84 0 84 C-1.12879993 77.74750663 -1.08009988 71.65240581 -1 65.3125 C-0.97444698 63.2669806 -0.95342953 61.22139823 -0.9375 59.17578125 C-0.92589844 58.27770752 -0.91429687 57.37963379 -0.90234375 56.4543457 C-0.99429938 54.14327088 -1.43014989 52.2276231 -2 50 C-1.835 49.2575 -1.67 48.515 -1.5 47.75 C-1.0194446 45.10694532 -1.12089315 43.43307612 -1.5 40.8125 C-2 37 -2 37 -1 35 C-0.84339117 32.37619687 -0.7417092 29.77475148 -0.68359375 27.1484375 C-0.6524221 25.98738998 -0.6524221 25.98738998 -0.62062073 24.80288696 C-0.55516552 22.32701608 -0.49625913 19.85103798 -0.4375 17.375 C-0.39431093 15.69790552 -0.35069652 14.02082193 -0.30664062 12.34375 C-0.19948829 8.22927692 -0.09820955 4.11469586 0 0 Z " fill="#F7860C" transform="translate(487,302)"/>
<path d="M0 0 C5 5 5 5 7.296875 7.3203125 C10.16891596 10.16745137 13.09337465 12.94245958 16.0625 15.6875 C16.57876953 16.17283203 17.09503906 16.65816406 17.62695312 17.15820312 C20.27596866 19.60474614 22.69643662 21.54673175 26 23 C27.02104551 23.97850195 28.0206121 24.97980427 29 26 C30.31963709 27.01800576 31.65009646 28.02248365 33 29 C30 30 30 30 27.7578125 28.98828125 C16.51817473 21.83426849 6.62362802 12.97802434 -1 2 C-0.67 1.34 -0.34 0.68 0 0 Z " fill="#ED2358" transform="translate(77,431)"/>
<path d="M0 0 C5.10296421 0.58601783 9.70001452 1.77343064 14.5625 3.4375 C21.12397377 5.61207181 27.3082202 6.79433148 34.20703125 7.4453125 C37.18481187 8.0367039 38.1774998 8.63394711 40 11 C36.79826095 12.60086952 33.62856294 11.31524404 30.25 10.625 C28.83864507 10.34583089 27.42718809 10.06717716 26.015625 9.7890625 C24.99952148 9.58651855 24.99952148 9.58651855 23.96289062 9.37988281 C21.31690135 8.86779832 18.66092832 8.42675266 16 8 C16 7.34 16 6.68 16 6 C14.824375 6.12375 14.824375 6.12375 13.625 6.25 C8.62373094 5.90508489 4.5484412 4.01353919 0 2 C0 1.34 0 0.68 0 0 Z " fill="#E0E1E1" transform="translate(110,464)"/>
<path d="M0 0 C0.66 0 1.32 0 2 0 C1.67 2.64 1.34 5.28 1 8 C1.66 8 2.32 8 3 8 C2.979375 8.9075 2.95875 9.815 2.9375 10.75 C2.87603436 13.86087868 2.87603436 13.86087868 3.5625 16.25 C4 18 4 18 3 20 C3.66 20 4.32 20 5 20 C5.103125 21.155 5.20625 22.31 5.3125 23.5 C5.69330092 26.65280761 6.40058737 29.35839195 7.5625 32.3125 C9 36 9 36 9 39 C8.34 39 7.68 39 7 39 C6.35089846 37.41800369 5.70585306 35.83434276 5.0625 34.25 C4.70285156 33.36828125 4.34320313 32.4865625 3.97265625 31.578125 C3.14263566 29.37807041 2.51818095 27.28746544 2 25 C1.835 24.38382812 1.67 23.76765625 1.5 23.1328125 C-2.84415584 5.68831169 -2.84415584 5.68831169 0 0 Z " fill="#EC2368" transform="translate(61,379)"/>
<path d="M0 0 C3.47598164 0.57977557 6.29104698 1.46521105 9.42578125 3.06640625 C10.22177734 3.46923828 11.01777344 3.87207031 11.83789062 4.28710938 C12.65451172 4.70798828 13.47113281 5.12886719 14.3125 5.5625 C15.14845703 5.98724609 15.98441406 6.41199219 16.84570312 6.84960938 C18.89996426 7.8943479 20.95120292 8.94459762 23 10 C20.4423592 12.94976453 17.56154702 14.40574495 14.08984375 16.13671875 C12.35831055 17.00200195 12.35831055 17.00200195 10.59179688 17.88476562 C9.99230225 18.18036377 9.39280762 18.47596191 8.77514648 18.78051758 C6.93671086 19.68788949 5.10387492 20.60588247 3.27148438 21.52539062 C-5.73310075 26 -5.73310075 26 -8 26 C-8 28.97 -8 31.94 -8 35 C-8.33 35 -8.66 35 -9 35 C-9 31.7 -9 28.4 -9 25 C-5.33637915 23.1435021 -1.6701704 21.29223121 1.99853516 19.44580078 C3.24665722 18.81670569 4.49405805 18.18617759 5.74072266 17.55419922 C7.53098111 16.64696403 9.32404628 15.74527404 11.1171875 14.84375 C12.19597168 14.29912109 13.27475586 13.75449219 14.38623047 13.19335938 C17 12 17 12 19 12 C16.9086545 9.72753662 14.97741243 8.30897727 12.20703125 6.95703125 C11.49482422 6.60576172 10.78261719 6.25449219 10.04882812 5.89257812 C9.31083984 5.53615234 8.57285156 5.17972656 7.8125 4.8125 C7.06291016 4.44447266 6.31332031 4.07644531 5.54101562 3.69726562 C3.69667788 2.79271782 1.84868755 1.89562424 0 1 C0 0.67 0 0.34 0 0 Z " fill="#EF4613" transform="translate(411,247)"/>
<path d="M0 0 C0.66 0.33 1.32 0.66 2 1 C-0.39001217 4.92644856 -1.91993512 7.02899122 -6 9 C-9.74242643 12.11048162 -12.85361612 15.39692758 -15.0625 19.75 C-17.28071844 23.47088255 -19.02067717 24.46253436 -23 26 C-21.880462 23.48103951 -20.68018448 21.60265345 -18.9375 19.4375 C-16.83615651 17.07973981 -16.83615651 17.07973981 -16 14 C-14.43359375 12.421875 -14.43359375 12.421875 -12.4375 10.75 C-11.72464844 10.14542969 -11.01179688 9.54085937 -10.27734375 8.91796875 C-9.52582031 8.28503906 -8.77429688 7.65210937 -8 7 C-6.49732552 5.69056285 -4.99718607 4.37820897 -3.5 3.0625 C-2.33333333 2.04166667 -1.16666667 1.02083333 0 0 Z " fill="#D0D1D1" transform="translate(96,61)"/>
<path d="M0 0 C2.31 0.33 4.62 0.66 7 1 C7.75 3.25 7.75 3.25 8 6 C6.0625 8.3125 6.0625 8.3125 4 10 C1.5625 9.3125 1.5625 9.3125 -1 8 C-1.9375 5.5625 -1.9375 5.5625 -2 3 C-1.34 2.01 -0.68 1.02 0 0 Z " fill="#F79F9A" transform="translate(404,219)"/>
<path d="M0 0 C0.99 0.33 1.98 0.66 3 1 C3.9140625 4.01953125 3.9140625 4.01953125 4.625 7.8125 C4.86476563 9.05644531 5.10453125 10.30039062 5.3515625 11.58203125 C5.56554688 12.70996094 5.77953125 13.83789062 6 15 C6.29003906 16.11955078 6.29003906 16.11955078 6.5859375 17.26171875 C7 19 7 19 7 22 C7.66 22.33 8.32 22.66 9 23 C9.625 26.0625 9.625 26.0625 10 29 C9.01 29 8.02 29 7 29 C4.69036723 24.17076784 3.42298137 19.68850606 2.47265625 14.42578125 C1.98987089 11.74478507 1.98987089 11.74478507 0.875 8.1875 C0.07368164 5.2684117 -0.18188529 3.00110726 0 0 Z " fill="#D7D7D8" transform="translate(58,389)"/>
<path d="M0 0 C-0.66 1.65 -1.32 3.3 -2 5 C-1.16855469 4.97679687 -0.33710938 4.95359375 0.51953125 4.9296875 C1.60621094 4.91164063 2.69289062 4.89359375 3.8125 4.875 C4.89144531 4.85179687 5.97039062 4.82859375 7.08203125 4.8046875 C10 5 10 5 13 7 C3.76 7 -5.48 7 -15 7 C-12.2195345 4.91465088 -9.96731098 3.33616217 -6.9375 1.8125 C-6.26589844 1.46832031 -5.59429687 1.12414062 -4.90234375 0.76953125 C-3 0 -3 0 0 0 Z " fill="#EF4732" transform="translate(162,466)"/>
<path d="M0 0 C2.31 1.98 4.62 3.96 7 6 C5.33333333 6 3.66666667 6 2 6 C1.67 15.24 1.34 24.48 1 34 C-3.95 34 -8.9 34 -14 34 C-14 33.67 -14 33.34 -14 33 C-9.38 33 -4.76 33 0 33 C0 22.11 0 11.22 0 0 Z " fill="#EA0244" transform="translate(160,278)"/>
<path d="M0 0 C0.60328125 0.40992188 1.2065625 0.81984375 1.828125 1.2421875 C2.62734375 1.78101563 3.4265625 2.31984375 4.25 2.875 C5.03890625 3.40867187 5.8278125 3.94234375 6.640625 4.4921875 C8.71555692 5.81822015 10.77614972 6.94928175 13 8 C13 8.66 13 9.32 13 10 C13.928125 10.268125 14.85625 10.53625 15.8125 10.8125 C18.76240366 11.91148371 20.05615186 12.62418561 22 15 C15.40229759 14.07939036 10.98146058 12.27570974 5.75 8.125 C4.87859375 7.44695312 4.0071875 6.76890625 3.109375 6.0703125 C0.95750893 3.9582958 0.34293076 2.94129073 0 0 Z " fill="#E2E1E2" transform="translate(92,450)"/>
<path d="M0 0 C0 1.66666667 0 3.33333333 0 5 C-0.66 5 -1.32 5 -2 5 C-3.02587676 7.53505545 -4.02622813 10.07178226 -4.96484375 12.640625 C-5.28582031 13.50171875 -5.60679688 14.3628125 -5.9375 15.25 C-6.25589844 16.12140625 -6.57429688 16.9928125 -6.90234375 17.890625 C-8 20 -8 20 -11 21 C-5.93674699 3.95783133 -5.93674699 3.95783133 0 0 Z " fill="#DCDDDD" transform="translate(75,85)"/>
<path d="M0 0 C7.54673035 0.40277493 14.73973247 0.82191974 22 3 C20.75 4.5625 20.75 4.5625 19 6 C16.9375 5.6875 16.9375 5.6875 15 5 C14.34 5 13.68 5 13 5 C13 4.34 13 3.68 13 3 C12.09507812 3.03480469 12.09507812 3.03480469 11.171875 3.0703125 C9.97304688 3.09738281 9.97304688 3.09738281 8.75 3.125 C7.96109375 3.14820313 7.1721875 3.17140625 6.359375 3.1953125 C3.79268059 2.9828378 2.2083933 2.28654105 0 1 C0 0.67 0 0.34 0 0 Z " fill="#D3CBCD" transform="translate(397,43)"/>
<path d="M0 0 C7.02770098 3.07461918 12.12875806 9.54793009 16 16 C10.48588735 15.04929092 7.94268885 10.80694301 4.5 6.71875 C3.02204485 4.96959252 3.02204485 4.96959252 1.3125 3.40625 C0 2 0 2 0 0 Z " fill="#D6D7D6" transform="translate(456,66)"/>
<path d="M0 0 C1.17369141 0.10054687 1.17369141 0.10054687 2.37109375 0.203125 C4.92212232 0.83974532 5.89857581 1.75971125 7.5625 3.75 C7.2325 4.41 6.9025 5.07 6.5625 5.75 C6.2325 5.255 5.9025 4.76 5.5625 4.25 C2.96472034 2.30166526 0.75683326 2.26917526 -2.43359375 2.3984375 C-5.66384352 2.96514799 -7.28792349 4.33986876 -9.4375 6.75 C-10.31693404 9.38460948 -10.31693404 9.38460948 -10.4375 11.75 C-10.7675 11.75 -11.0975 11.75 -11.4375 11.75 C-11.75 9.0625 -11.75 9.0625 -11.4375 5.75 C-7.77496136 1.41278319 -5.63442812 -0.55511607 0 0 Z " fill="#EE2A40" transform="translate(312.4375,240.25)"/>
<path d="M0 0 C2 1 2 1 2 1 Z M12 4 C12 4.33 12 4.66 12 5 C5.2314676 5.10152799 -1.30324864 5.03026944 -8 4 C-8 3.67 -8 3.34 -8 3 C-0.66387541 0.45481392 4.68276626 1.32296327 12 4 Z " fill="#F7931A" transform="translate(389,468)"/>
<path d="M0 0 C1.66666667 1.66666667 3.33333333 3.33333333 5 5 C5.804375 5.7425 5.804375 5.7425 6.625 6.5 C8 8 8 8 9.375 10.3125 C11.31220332 13.51633626 13.55924441 16.16344621 16 19 C12.02884831 17.42443866 9.76046833 14.83406651 6.9375 11.6875 C6.08027344 10.74261719 5.22304687 9.79773438 4.33984375 8.82421875 C2.25489608 6.30766255 0.58346972 3.8502455 -1 1 C-0.67 0.67 -0.34 0.34 0 0 Z " fill="#ED377C" transform="translate(77,431)"/>
<path d="M0 0 C1.5778125 0.11408203 1.5778125 0.11408203 3.1875 0.23046875 C6.17204222 0.84810318 7.16360329 1.44686396 9 3.8125 C5.71645198 5.45427401 2.34371004 4.07892648 -1.125 3.375 C-2.25615234 3.15360352 -2.25615234 3.15360352 -3.41015625 2.92773438 C-5.27461157 2.56192352 -7.13746714 2.18797644 -9 1.8125 C-5.43046261 -0.56719159 -4.18091485 -0.35353324 0 0 Z " fill="#C6C6C6" transform="translate(141,471.1875)"/>
<path d="M0 0 C0.33 0 0.66 0 1 0 C0.85820962 2.22942748 0.71140302 4.45853628 0.5625 6.6875 C0.48128906 7.92886719 0.40007812 9.17023438 0.31640625 10.44921875 C0.05508683 13.38180337 -0.34798379 16.13441617 -1 19 C-3 17 -3 17 -3.046875 14.1015625 C-2.89992188 12.38066406 -2.89992188 12.38066406 -2.75 10.625 C-2.66234375 9.48289062 -2.5746875 8.34078125 -2.484375 7.1640625 C-2.04640594 4.30313559 -1.47474241 2.45387467 0 0 Z " fill="#CECFCF" transform="translate(489,382)"/>
<path d="M0 0 C-3.48216283 2.05137315 -6.77275657 2.56818592 -10.75 3.125 C-11.92046875 3.29257812 -13.0909375 3.46015625 -14.296875 3.6328125 C-15.18890625 3.75398438 -16.0809375 3.87515625 -17 4 C-17.33 3.34 -17.66 2.68 -18 2 C-11.69972758 -0.77953195 -6.78677918 -1.22162025 0 0 Z " fill="#C6C6C6" transform="translate(415,472)"/>
<path d="M0 0 C5.21779088 1.42303388 8.62805264 4.9300958 12 9 C12.33 9.99 12.66 10.98 13 12 C9.23416446 11.45254373 7.77278714 10.00868233 5.375 7.125 C4.78460938 6.42632812 4.19421875 5.72765625 3.5859375 5.0078125 C2 3 2 3 0 0 Z " fill="#CCCDCD" transform="translate(80,441)"/>
<path d="M0 0 C0.66 0.33 1.32 0.66 2 1 C-5.29840547 9.44646925 -5.29840547 9.44646925 -9 13 C-9 9 -9 9 -7.03125 6.640625 C-5.77828125 5.45726562 -5.77828125 5.45726562 -4.5 4.25 C-3.6646875 3.45078125 -2.829375 2.6515625 -1.96875 1.828125 C-0.99421875 0.92320312 -0.99421875 0.92320312 0 0 Z " fill="#D2D4D4" transform="translate(466,440)"/>
<path d="M0 0 C0.66 0.33 1.32 0.66 2 1 C0.92492371 2.29854721 -0.16043736 3.58858361 -1.25 4.875 C-1.85328125 5.59429687 -2.4565625 6.31359375 -3.078125 7.0546875 C-4.97087634 8.97052118 -6.53657727 9.96449045 -9 11 C-7.59155282 7.78475695 -5.89655214 5.67816132 -3.375 3.25 C-2.74335938 2.63640625 -2.11171875 2.0228125 -1.4609375 1.390625 C-0.73777344 0.70226562 -0.73777344 0.70226562 0 0 Z " fill="#F89E23" transform="translate(464,439)"/>
<path d="M0 0 C1.54443203 3.08886406 0.66455616 5.68878627 0.1875 9.0625 C0.01605469 10.33222656 -0.15539063 11.60195312 -0.33203125 12.91015625 C-0.55246094 13.92980469 -0.77289063 14.94945312 -1 16 C-1.66 16.33 -2.32 16.66 -3 17 C-4.26155806 13.21532582 -3.55614768 11.22773033 -2.625 7.375 C-2.34914062 6.20710938 -2.07328125 5.03921875 -1.7890625 3.8359375 C-1 1 -1 1 0 0 Z " fill="#DEDFDF" transform="translate(61,121)"/>
<path d="M0 0 C3 1 3 1 4.25 3.3125 C5.0275526 6.09873015 4.98726527 7.33438378 4 10 C3.34 10 2.68 10 2 10 C1.01 7.03 0.02 4.06 -1 1 C-0.67 0.67 -0.34 0.34 0 0 Z " fill="#EE452D" transform="translate(478,101)"/>
<path d="M0 0 C-0.33 0.66 -0.66 1.32 -1 2 C-5.94877422 3.05390562 -11.11052208 3.46684337 -16 2 C-16 1.67 -16 1.34 -16 1 C-10.61509359 0.08342019 -5.45769811 -0.11138159 0 0 Z " fill="#CDCDCD" transform="translate(153,43)"/>
<path d="M0 0 C0 0.66 0 1.32 0 2 C-4.64849515 4.3992233 -8.91086074 4.19957409 -14 4 C-9.54158164 1.66790424 -5.08043161 0 0 0 Z " fill="#E2E5E5" transform="translate(425,468)"/>
<path d="M0 0 C0.33 0 0.66 0 1 0 C0.88557539 1.60495567 0.75805306 3.20898119 0.625 4.8125 C0.55539062 5.70582031 0.48578125 6.59914063 0.4140625 7.51953125 C0 10 0 10 -2 13 C-2.66 13 -3.32 13 -4 13 C-3.52511102 11.01980257 -3.04497141 9.04086365 -2.5625 7.0625 C-2.29566406 5.96035156 -2.02882813 4.85820312 -1.75390625 3.72265625 C-1 1 -1 1 0 0 Z " fill="#E2E4E4" transform="translate(486,399)"/>
<path d="M0 0 C0.66 0 1.32 0 2 0 C1.690625 0.598125 1.38125 1.19625 1.0625 1.8125 C-0.10209704 4.08956772 -0.10209704 4.08956772 -1 7 C-4.0625 8.6875 -4.0625 8.6875 -7 10 C-5.32598022 6.04322598 -2.86850715 3.15535787 0 0 Z " fill="#D9D8D9" transform="translate(80,77)"/>
<path d="M0 0 C0.33 0.66 0.66 1.32 1 2 C1.66 2 2.32 2 3 2 C2 4 2 4 -0.28515625 4.8515625 C-1.65994141 5.23441406 -1.65994141 5.23441406 -3.0625 5.625 C-3.98160156 5.88539063 -4.90070313 6.14578125 -5.84765625 6.4140625 C-6.55792969 6.60742188 -7.26820313 6.80078125 -8 7 C-7.67 6.01 -7.34 5.02 -7 4 C-6.195625 3.87625 -5.39125 3.7525 -4.5625 3.625 C-3.716875 3.41875 -2.87125 3.2125 -2 3 C-1.67 2.34 -1.34 1.68 -1 1 C-0.67 0.67 -0.34 0.34 0 0 Z " fill="#DCD9D5" transform="translate(433,463)"/>
<path d="M0 0 C0.66 0 1.32 0 2 0 C1.54917531 1.46067199 1.08906463 2.91848032 0.625 4.375 C0.36976563 5.18710937 0.11453125 5.99921875 -0.1484375 6.8359375 C-1 9 -1 9 -3 11 C-4.04449911 7.86650268 -3.93423645 7.01031744 -3 4 C-2.34 4 -1.68 4 -1 4 C-0.67 2.68 -0.34 1.36 0 0 Z " fill="#D7D6D4" transform="translate(482,412)"/>
<path d="M0 0 C8.57142857 0.85714286 8.57142857 0.85714286 12 3 C12 3.66 12 4.32 12 5 C10.18504338 4.55149342 8.37306866 4.09090429 6.5625 3.625 C5.55316406 3.36976562 4.54382813 3.11453125 3.50390625 2.8515625 C1 2 1 2 0 0 Z " fill="#E7EAEA" transform="translate(418,47)"/>
<path d="M0 0 C4.05606165 0.46800711 7.46588679 0.87953208 11 3 C10.67 3.99 10.34 4.98 10 6 C5.05 4.02 5.05 4.02 0 2 C0 1.34 0 0.68 0 0 Z " fill="#C4C4C4" transform="translate(110,464)"/>
<path d="M0 0 C1.9375 0.625 1.9375 0.625 4 2 C4.75 5.125 4.75 5.125 5 8 C4.01 8 3.02 8 2 8 C1.01 5.69 0.02 3.38 -1 1 C-0.67 0.67 -0.34 0.34 0 0 Z " fill="#C8C7C8" transform="translate(63,410)"/>
<path d="M0 0 C1.60495567 0.11442461 3.20898119 0.24194694 4.8125 0.375 C5.70582031 0.44460937 6.59914063 0.51421875 7.51953125 0.5859375 C10 1 10 1 13 3 C11.58376784 3.05447047 10.16691809 3.09300508 8.75 3.125 C7.96109375 3.14820313 7.1721875 3.17140625 6.359375 3.1953125 C3.79268059 2.9828378 2.2083933 2.28654105 0 1 C0 0.67 0 0.34 0 0 Z " fill="#DBDCDC" transform="translate(397,43)"/>
<path d="M0 0 C3.93673644 1.31224548 6.22719294 2.91910327 9 6 C8.01 6.66 7.02 7.32 6 8 C1.125 3.375 1.125 3.375 0 0 Z " fill="#E1E1E2" transform="translate(448,60)"/>
<path d="M0 0 C0.33 0 0.66 0 1 0 C1.33 4.62 1.66 9.24 2 14 C1.34 13.67 0.68 13.34 0 13 C-1.19811544 8.42537741 -0.83154187 4.61967708 0 0 Z " fill="#C0BFBF" transform="translate(488,122)"/>
<path d="M0 0 C0 1.66666667 0 3.33333333 0 5 C-0.66 5 -1.32 5 -2 5 C-2.66 6.65 -3.32 8.3 -4 10 C-4.87491004 7.5502519 -5.12900603 6.36551707 -4.25 3.875 C-3 2 -3 2 0 0 Z " fill="#E6E6E7" transform="translate(75,85)"/>
<path d="M0 0 C4 1 4 1 5.8125 2.8125 C7 5 7 5 6 9 C4.02 6.03 2.04 3.06 0 0 Z " fill="#E1E4E4" transform="translate(469,82)"/>
<path d="M0 0 C0.66 0 1.32 0 2 0 C3.5625 2.8125 3.5625 2.8125 5 6 C4.67 6.99 4.34 7.98 4 9 C1.43135272 7.71567636 1.053461 6.63365249 0 4 C0 2.68 0 1.36 0 0 Z " fill="#D6D6D6" transform="translate(67,418)"/>
<path d="M0 0 C2.96404505 2.80804268 5.44499019 5.18315774 7 9 C2.79373966 7.49776416 1.26099979 4.71449966 -1 1 C-0.67 0.67 -0.34 0.34 0 0 Z " fill="#EC2265" transform="translate(77,431)"/>
<path d="M0 0 C2.31 1.98 4.62 3.96 7 6 C5 6 3 6 1 6 C0.67 4.02 0.34 2.04 0 0 Z " fill="#EC1E5E" transform="translate(160,278)"/>
<path d="M0 0 C1.42944945 2.35438733 2.08661261 3.48032433 1.625 6.25 C1.41875 6.8275 1.2125 7.405 1 8 C0.01 7.67 -0.98 7.34 -2 7 C-1.34 4.69 -0.68 2.38 0 0 Z " fill="#EE452C" transform="translate(483,110)"/>
<path d="M0 0 C1.65 0.33 3.3 0.66 5 1 C5 1.99 5 2.98 5 4 C3.35 4 1.7 4 0 4 C0 2.68 0 1.36 0 0 Z " fill="#EE4335" transform="translate(417,48)"/>
<path d="M0 0 C3 1 3 1 4.1875 3.375 C5 6 5 6 5 9 C4.34 9 3.68 9 3 9 C2.01 6.03 1.02 3.06 0 0 Z " fill="#EC1C63" transform="translate(65,409)"/>
</svg>
